# MagicaVoxel @ ephtracy

# material
mtllib ¸öÅë.mtl
usemtl palette

# normals
vn -1 0 0
vn 1 0 0
vn 0 0 1
vn 0 0 -1
vn 0 -1 0
vn 0 1 0

# texcoords
vt 0.0332031 0.5
vt 0.958984 0.5
vt 0.962891 0.5
vt 0.966797 0.5

# verts
v -4.5 2 1.5
v -4.5 2 -1.5
v -4.5 6 1.5
v -4.5 6 -1.5
v -3.5 0 1.5
v -3.5 0 -1.5
v -3.5 1 2.5
v -3.5 1 1.5
v -3.5 1 -1.5
v -3.5 1 -2.5
v -3.5 2 1.5
v -3.5 2 -1.5
v -3.5 4 -1.5
v -3.5 4 -2.5
v -3.5 5 -1.5
v -3.5 5 -2.5
v -3.5 6 2.5
v -3.5 6 1.5
v -2.5 5 -1.5
v -2.5 5 -2.5
v -2.5 6 1.5
v -2.5 6 -0.5
v -2.5 6 -1.5
v -2.5 6 -2.5
v -2.5 7 1.5
v -2.5 7 -0.5
v -1.5 6 2.5
v -1.5 6 1.5
v -1.5 6 -0.5
v -1.5 6 -1.5
v -1.5 7 2.5
v -1.5 7 1.5
v -1.5 7 -0.5
v -1.5 7 -1.5
v 2.5 0 0.5
v 2.5 0 -0.5
v 2.5 1 1.5
v 2.5 1 0.5
v 2.5 1 -0.5
v 2.5 1 -1.5
v 2.5 2 -1.5
v 2.5 4 1.5
v 2.5 4 -1.5
v -2.5 0 0.5
v -2.5 0 -0.5
v -2.5 1 0.5
v -2.5 1 -0.5
v -2.5 1 -1.5
v -2.5 2 1.5
v -2.5 2 0.5
v -2.5 2 -1.5
v -2.5 4 1.5
v -2.5 4 -1.5
v -1.5 1 1.5
v -1.5 1 0.5
v -1.5 2 1.5
v -1.5 2 0.5
v 1.5 6 2.5
v 1.5 6 1.5
v 1.5 6 -0.5
v 1.5 6 -1.5
v 1.5 7 2.5
v 1.5 7 1.5
v 1.5 7 -0.5
v 1.5 7 -1.5
v 2.5 5 -1.5
v 2.5 5 -2.5
v 2.5 6 1.5
v 2.5 6 -0.5
v 2.5 6 -1.5
v 2.5 6 -2.5
v 2.5 7 1.5
v 2.5 7 -0.5
v 3.5 0 1.5
v 3.5 0 -1.5
v 3.5 1 2.5
v 3.5 1 1.5
v 3.5 1 -1.5
v 3.5 1 -2.5
v 3.5 2 1.5
v 3.5 2 -1.5
v 3.5 5 -1.5
v 3.5 5 -2.5
v 3.5 6 2.5
v 3.5 6 1.5
v 4.5 2 1.5
v 4.5 2 -1.5
v 4.5 6 1.5
v 4.5 6 -1.5
v -3.5 1 2.5
v -3.5 6 2.5
v -1.5 1 2.5
v -1.5 2 2.5
v -1.5 6 2.5
v -1.5 7 2.5
v -0.5 1 2.5
v -0.5 2 2.5
v 1.5 6 2.5
v 1.5 7 2.5
v 3.5 1 2.5
v 3.5 6 2.5
v -4.5 2 1.5
v -4.5 6 1.5
v -3.5 0 1.5
v -3.5 1 1.5
v -3.5 2 1.5
v -3.5 6 1.5
v -2.5 6 1.5
v -2.5 7 1.5
v -1.5 1 1.5
v -1.5 6 1.5
v -1.5 7 1.5
v -0.5 1 1.5
v 1.5 6 1.5
v 1.5 7 1.5
v 2.5 6 1.5
v 2.5 7 1.5
v 3.5 0 1.5
v 3.5 1 1.5
v 3.5 2 1.5
v 3.5 6 1.5
v 4.5 2 1.5
v 4.5 6 1.5
v -2.5 0 -0.5
v -2.5 1 -0.5
v 2.5 0 -0.5
v 2.5 1 -0.5
v -2.5 1 -1.5
v -2.5 2 -1.5
v -2.5 4 -1.5
v -0.5 1 -1.5
v -0.5 2 -1.5
v -0.5 4 -1.5
v 0.5 1 -1.5
v 0.5 2 -1.5
v 0.5 4 -1.5
v 2.5 1 -1.5
v 2.5 2 -1.5
v 2.5 4 -1.5
v -2.5 2 1.5
v -2.5 4 1.5
v -1.5 1 1.5
v -1.5 2 1.5
v -0.5 1 1.5
v -0.5 2 1.5
v 2.5 1 1.5
v 2.5 4 1.5
v -2.5 0 0.5
v -2.5 1 0.5
v -2.5 2 0.5
v -1.5 1 0.5
v -1.5 2 0.5
v 2.5 0 0.5
v 2.5 1 0.5
v -2.5 6 -0.5
v -2.5 7 -0.5
v -1.5 6 -0.5
v -1.5 7 -0.5
v 1.5 6 -0.5
v 1.5 7 -0.5
v 2.5 6 -0.5
v 2.5 7 -0.5
v -4.5 2 -1.5
v -4.5 6 -1.5
v -3.5 0 -1.5
v -3.5 1 -1.5
v -3.5 2 -1.5
v -3.5 4 -1.5
v -3.5 5 -1.5
v -2.5 1 -1.5
v -2.5 5 -1.5
v -2.5 6 -1.5
v -1.5 6 -1.5
v -1.5 7 -1.5
v -0.5 1 -1.5
v -0.5 6 -1.5
v 0.5 1 -1.5
v 0.5 6 -1.5
v 1.5 6 -1.5
v 1.5 7 -1.5
v 2.5 1 -1.5
v 2.5 5 -1.5
v 2.5 6 -1.5
v 3.5 0 -1.5
v 3.5 1 -1.5
v 3.5 2 -1.5
v 3.5 5 -1.5
v 4.5 2 -1.5
v 4.5 6 -1.5
v -3.5 1 -2.5
v -3.5 4 -2.5
v -3.5 5 -2.5
v -2.5 1 -2.5
v -2.5 2 -2.5
v -2.5 5 -2.5
v -2.5 6 -2.5
v -1.5 4 -2.5
v -1.5 5 -2.5
v -0.5 1 -2.5
v -0.5 2 -2.5
v -0.5 6 -2.5
v 0.5 1 -2.5
v 0.5 2 -2.5
v 0.5 6 -2.5
v 2.5 1 -2.5
v 2.5 2 -2.5
v 2.5 5 -2.5
v 2.5 6 -2.5
v 3.5 1 -2.5
v 3.5 5 -2.5
v -3.5 0 1.5
v 3.5 0 1.5
v -2.5 0 0.5
v 2.5 0 0.5
v -2.5 0 -0.5
v 2.5 0 -0.5
v -3.5 0 -1.5
v 3.5 0 -1.5
v -3.5 1 2.5
v -1.5 1 2.5
v -0.5 1 2.5
v 3.5 1 2.5
v -3.5 1 1.5
v -1.5 1 1.5
v -0.5 1 1.5
v 3.5 1 1.5
v -3.5 1 -1.5
v -2.5 1 -1.5
v -0.5 1 -1.5
v 0.5 1 -1.5
v 2.5 1 -1.5
v 3.5 1 -1.5
v -3.5 1 -2.5
v -2.5 1 -2.5
v -0.5 1 -2.5
v 0.5 1 -2.5
v 2.5 1 -2.5
v 3.5 1 -2.5
v -4.5 2 1.5
v -3.5 2 1.5
v 3.5 2 1.5
v 4.5 2 1.5
v -4.5 2 -1.5
v -3.5 2 -1.5
v 3.5 2 -1.5
v 4.5 2 -1.5
v -2.5 4 1.5
v 2.5 4 1.5
v -2.5 4 -1.5
v -0.5 4 -1.5
v 0.5 4 -1.5
v 2.5 4 -1.5
v -1.5 1 1.5
v -0.5 1 1.5
v 2.5 1 1.5
v -1.5 1 0.5
v 2.5 1 0.5
v -2.5 1 -0.5
v 2.5 1 -0.5
v -2.5 1 -1.5
v -0.5 1 -1.5
v 0.5 1 -1.5
v 2.5 1 -1.5
v -2.5 2 1.5
v -1.5 2 1.5
v -2.5 2 0.5
v -1.5 2 0.5
v -3.5 5 -1.5
v -2.5 5 -1.5
v 2.5 5 -1.5
v 3.5 5 -1.5
v -3.5 5 -2.5
v -2.5 5 -2.5
v 2.5 5 -2.5
v 3.5 5 -2.5
v -3.5 6 2.5
v -1.5 6 2.5
v 1.5 6 2.5
v 3.5 6 2.5
v -4.5 6 1.5
v -3.5 6 1.5
v -2.5 6 1.5
v -1.5 6 1.5
v 1.5 6 1.5
v 2.5 6 1.5
v 3.5 6 1.5
v 4.5 6 1.5
v -2.5 6 -0.5
v -1.5 6 -0.5
v 1.5 6 -0.5
v 2.5 6 -0.5
v -4.5 6 -1.5
v -2.5 6 -1.5
v -1.5 6 -1.5
v -0.5 6 -1.5
v 0.5 6 -1.5
v 1.5 6 -1.5
v 2.5 6 -1.5
v 4.5 6 -1.5
v -2.5 6 -2.5
v -0.5 6 -2.5
v 0.5 6 -2.5
v 2.5 6 -2.5
v -1.5 7 2.5
v 1.5 7 2.5
v -2.5 7 1.5
v -1.5 7 1.5
v 1.5 7 1.5
v 2.5 7 1.5
v -2.5 7 -0.5
v -1.5 7 -0.5
v 1.5 7 -0.5
v 2.5 7 -0.5
v -1.5 7 -1.5
v 1.5 7 -1.5

# faces
f 3/2/1 2/2/1 1/2/1
f 4/2/1 2/2/1 3/2/1
f 8/4/1 6/4/1 5/4/1
f 9/4/1 6/4/1 8/4/1
f 11/2/1 8/2/1 7/2/1
f 11/2/1 10/2/1 9/2/1
f 11/2/1 9/2/1 8/2/1
f 12/2/1 10/2/1 11/2/1
f 13/2/1 10/2/1 12/2/1
f 14/2/1 10/2/1 13/2/1
f 15/3/1 14/3/1 13/3/1
f 16/3/1 14/3/1 15/3/1
f 17/2/1 11/2/1 7/2/1
f 18/2/1 11/2/1 17/2/1
f 23/2/1 20/2/1 19/2/1
f 24/2/1 20/2/1 23/2/1
f 25/2/1 22/2/1 21/2/1
f 26/2/1 22/2/1 25/2/1
f 31/2/1 28/2/1 27/2/1
f 32/2/1 28/2/1 31/2/1
f 33/1/1 30/1/1 29/1/1
f 34/1/1 30/1/1 33/1/1
f 38/4/1 36/4/1 35/4/1
f 39/4/1 36/4/1 38/4/1
f 41/2/1 38/2/1 37/2/1
f 41/2/1 40/2/1 39/2/1
f 41/2/1 39/2/1 38/2/1
f 42/2/1 41/2/1 37/2/1
f 43/2/1 41/2/1 42/2/1
f 44/4/2 45/4/2 46/4/2
f 46/4/2 45/4/2 47/4/2
f 46/2/2 47/2/2 50/2/2
f 47/2/2 48/2/2 50/2/2
f 50/2/2 48/2/2 51/2/2
f 49/2/2 50/2/2 52/2/2
f 50/2/2 51/2/2 52/2/2
f 52/2/2 51/2/2 53/2/2
f 54/4/2 55/4/2 56/4/2
f 56/4/2 55/4/2 57/4/2
f 58/2/2 59/2/2 62/2/2
f 62/2/2 59/2/2 63/2/2
f 60/1/2 61/1/2 64/1/2
f 64/1/2 61/1/2 65/1/2
f 66/2/2 67/2/2 70/2/2
f 70/2/2 67/2/2 71/2/2
f 68/2/2 69/2/2 72/2/2
f 72/2/2 69/2/2 73/2/2
f 74/4/2 75/4/2 77/4/2
f 77/4/2 75/4/2 78/4/2
f 76/2/2 77/2/2 80/2/2
f 78/2/2 79/2/2 80/2/2
f 77/2/2 78/2/2 80/2/2
f 80/2/2 79/2/2 81/2/2
f 81/2/2 79/2/2 82/2/2
f 82/2/2 79/2/2 83/2/2
f 76/2/2 80/2/2 84/2/2
f 84/2/2 80/2/2 85/2/2
f 86/2/2 87/2/2 88/2/2
f 88/2/2 87/2/2 89/2/2
f 92/2/3 91/2/3 90/2/3
f 93/2/3 91/2/3 92/2/3
f 94/2/3 91/2/3 93/2/3
f 96/4/3 93/4/3 92/4/3
f 97/2/3 95/2/3 94/2/3
f 97/4/3 93/4/3 96/4/3
f 97/2/3 94/2/3 93/2/3
f 98/2/3 97/2/3 96/2/3
f 98/2/3 95/2/3 97/2/3
f 99/2/3 95/2/3 98/2/3
f 100/2/3 98/2/3 96/2/3
f 101/2/3 98/2/3 100/2/3
f 106/2/3 103/2/3 102/2/3
f 107/2/3 103/2/3 106/2/3
f 110/4/3 105/4/3 104/4/3
f 111/2/3 109/2/3 108/2/3
f 112/2/3 109/2/3 111/2/3
f 113/4/3 110/4/3 104/4/3
f 116/2/3 115/2/3 114/2/3
f 117/2/3 115/2/3 116/2/3
f 118/4/3 113/4/3 104/4/3
f 119/4/3 113/4/3 118/4/3
f 122/2/3 121/2/3 120/2/3
f 123/2/3 121/2/3 122/2/3
f 126/4/3 125/4/3 124/4/3
f 127/4/3 125/4/3 126/4/3
f 131/3/3 129/3/3 128/3/3
f 132/2/3 130/2/3 129/2/3
f 132/3/3 129/3/3 131/3/3
f 133/2/3 130/2/3 132/2/3
f 134/4/3 132/4/3 131/4/3
f 134/4/3 133/4/3 132/4/3
f 135/4/3 133/4/3 134/4/3
f 136/4/3 133/4/3 135/4/3
f 137/3/3 135/3/3 134/3/3
f 138/2/3 136/2/3 135/2/3
f 138/3/3 135/3/3 137/3/3
f 139/2/3 136/2/3 138/2/3
f 140/2/4 141/2/4 143/2/4
f 142/4/4 143/4/4 144/4/4
f 143/2/4 141/2/4 145/2/4
f 144/4/4 143/4/4 145/4/4
f 144/2/4 145/2/4 146/2/4
f 145/2/4 141/2/4 147/2/4
f 146/2/4 145/2/4 147/2/4
f 148/4/4 149/4/4 151/4/4
f 149/4/4 150/4/4 151/4/4
f 151/4/4 150/4/4 152/4/4
f 148/4/4 151/4/4 153/4/4
f 153/4/4 151/4/4 154/4/4
f 155/2/4 156/2/4 157/2/4
f 157/2/4 156/2/4 158/2/4
f 159/2/4 160/2/4 161/2/4
f 161/2/4 160/2/4 162/2/4
f 163/2/4 164/2/4 167/2/4
f 167/2/4 164/2/4 168/2/4
f 168/2/4 164/2/4 169/2/4
f 165/4/4 166/4/4 170/4/4
f 169/2/4 164/2/4 171/2/4
f 171/2/4 164/2/4 172/2/4
f 165/4/4 170/4/4 175/4/4
f 173/1/4 174/1/4 176/1/4
f 165/4/4 175/4/4 177/4/4
f 176/1/4 174/1/4 178/1/4
f 178/1/4 174/1/4 179/1/4
f 179/1/4 174/1/4 180/1/4
f 165/4/4 177/4/4 181/4/4
f 165/4/4 181/4/4 184/4/4
f 184/4/4 181/4/4 185/4/4
f 182/2/4 183/2/4 187/2/4
f 186/2/4 187/2/4 188/2/4
f 187/2/4 183/2/4 189/2/4
f 188/2/4 187/2/4 189/2/4
f 190/2/4 191/2/4 193/2/4
f 193/2/4 191/2/4 194/2/4
f 191/3/4 192/3/4 195/3/4
f 194/2/4 191/2/4 197/2/4
f 191/3/4 195/3/4 197/3/4
f 195/2/4 196/2/4 198/2/4
f 197/3/4 195/3/4 198/3/4
f 193/3/4 194/3/4 199/3/4
f 194/2/4 197/2/4 200/2/4
f 199/3/4 194/3/4 200/3/4
f 197/2/4 198/2/4 200/2/4
f 198/2/4 196/2/4 201/2/4
f 200/2/4 198/2/4 201/2/4
f 199/4/4 200/4/4 202/4/4
f 200/4/4 201/4/4 202/4/4
f 202/4/4 201/4/4 203/4/4
f 203/4/4 201/4/4 204/4/4
f 202/3/4 203/3/4 205/3/4
f 203/2/4 204/2/4 206/2/4
f 205/3/4 203/3/4 206/3/4
f 206/2/4 204/2/4 207/2/4
f 207/2/4 204/2/4 208/2/4
f 205/2/4 206/2/4 209/2/4
f 206/2/4 207/2/4 209/2/4
f 209/2/4 207/2/4 210/2/4
f 213/4/5 212/4/5 211/4/5
f 214/4/5 212/4/5 213/4/5
f 215/4/5 213/4/5 211/4/5
f 216/4/5 212/4/5 214/4/5
f 217/4/5 215/4/5 211/4/5
f 217/4/5 216/4/5 215/4/5
f 218/4/5 212/4/5 216/4/5
f 218/4/5 216/4/5 217/4/5
f 223/2/5 220/2/5 219/2/5
f 224/4/5 221/4/5 220/4/5
f 224/2/5 220/2/5 223/2/5
f 225/2/5 222/2/5 221/2/5
f 225/4/5 221/4/5 224/4/5
f 226/2/5 222/2/5 225/2/5
f 233/2/5 228/2/5 227/2/5
f 234/3/5 229/3/5 228/3/5
f 234/2/5 228/2/5 233/2/5
f 235/4/5 230/4/5 229/4/5
f 235/3/5 229/3/5 234/3/5
f 236/3/5 231/3/5 230/3/5
f 236/4/5 230/4/5 235/4/5
f 237/2/5 232/2/5 231/2/5
f 237/3/5 231/3/5 236/3/5
f 238/2/5 232/2/5 237/2/5
f 243/2/5 240/2/5 239/2/5
f 244/2/5 240/2/5 243/2/5
f 245/2/5 242/2/5 241/2/5
f 246/2/5 242/2/5 245/2/5
f 249/2/5 248/2/5 247/2/5
f 250/2/5 248/2/5 249/2/5
f 251/2/5 248/2/5 250/2/5
f 252/2/5 248/2/5 251/2/5
f 253/4/6 254/4/6 256/4/6
f 254/4/6 255/4/6 256/4/6
f 256/4/6 255/4/6 257/4/6
f 258/4/6 259/4/6 260/4/6
f 260/4/6 259/4/6 261/4/6
f 261/4/6 259/4/6 262/4/6
f 262/4/6 259/4/6 263/4/6
f 264/4/6 265/4/6 266/4/6
f 266/4/6 265/4/6 267/4/6
f 268/3/6 269/3/6 272/3/6
f 272/3/6 269/3/6 273/3/6
f 270/2/6 271/2/6 274/2/6
f 274/2/6 271/2/6 275/2/6
f 276/2/6 277/2/6 281/2/6
f 281/2/6 277/2/6 282/2/6
f 282/2/6 277/2/6 283/2/6
f 278/2/6 279/2/6 284/2/6
f 284/2/6 279/2/6 285/2/6
f 285/2/6 279/2/6 286/2/6
f 280/2/6 281/2/6 288/2/6
f 281/2/6 282/2/6 288/2/6
f 286/2/6 287/2/6 291/2/6
f 285/2/6 286/2/6 291/2/6
f 288/2/6 289/2/6 292/2/6
f 280/2/6 288/2/6 292/2/6
f 292/2/6 289/2/6 293/2/6
f 293/2/6 289/2/6 294/2/6
f 290/2/6 291/2/6 297/2/6
f 291/2/6 287/2/6 298/2/6
f 297/2/6 291/2/6 298/2/6
f 298/2/6 287/2/6 299/2/6
f 293/2/6 294/2/6 300/2/6
f 294/2/6 295/2/6 300/2/6
f 295/4/6 296/4/6 301/4/6
f 300/2/6 295/2/6 301/2/6
f 296/2/6 297/2/6 302/2/6
f 301/4/6 296/4/6 302/4/6
f 297/2/6 298/2/6 302/2/6
f 302/2/6 298/2/6 303/2/6
f 304/2/6 305/2/6 307/2/6
f 307/2/6 305/2/6 308/2/6
f 306/2/6 307/2/6 310/2/6
f 307/1/6 308/1/6 311/1/6
f 310/2/6 307/2/6 311/2/6
f 308/2/6 309/2/6 312/2/6
f 311/1/6 308/1/6 312/1/6
f 312/2/6 309/2/6 313/2/6
f 311/1/6 312/1/6 314/1/6
f 314/1/6 312/1/6 315/1/6
