# MagicaVoxel @ ephtracy

# material
mtllib Èü.mtl
usemtl palette

# normals
vn -1 0 0
vn 1 0 0
vn 0 0 1
vn 0 0 -1
vn 0 -1 0
vn 0 1 0

# texcoords
vt 0.0332031 0.5
vt 0.970703 0.5
vt 0.974609 0.5
vt 0.978516 0.5
vt 0.982422 0.5

# verts
v -3.5 0 2.5
v -3.5 0 0.5
v -3.5 0 -0.5
v -3.5 0 -2.5
v -3.5 1 2.5
v -3.5 1 1.5
v -3.5 1 -1.5
v -3.5 1 -2.5
v -3.5 2 2.5
v -3.5 2 1.5
v -3.5 2 0.5
v -3.5 2 -0.5
v -3.5 2 -1.5
v -3.5 2 -2.5
v -3.5 3 2.5
v -3.5 3 1.5
v -3.5 3 -1.5
v -3.5 3 -2.5
v -3.5 4 2.5
v -3.5 4 1.5
v -3.5 4 -1.5
v -3.5 4 -2.5
v -1.5 1 1.5
v -1.5 1 -1.5
v -1.5 2 0.5
v -1.5 2 -0.5
v -1.5 2 -1.5
v -1.5 3 1.5
v -1.5 3 0.5
v -0.5 2 0.5
v -0.5 2 -1.5
v -0.5 3 0.5
v -0.5 3 -0.5
v -0.5 3 -1.5
v 1.5 2 -0.5
v 1.5 2 -1.5
v 1.5 3 -0.5
v 1.5 3 -1.5
v 2.5 0 1.5
v 2.5 0 0.5
v 2.5 0 -0.5
v 2.5 0 -1.5
v 2.5 2 1.5
v 2.5 2 0.5
v 2.5 2 -0.5
v 2.5 2 -1.5
v 2.5 3 0.5
v 2.5 3 -0.5
v 2.5 4 0.5
v 2.5 4 -0.5
v -2.5 0 1.5
v -2.5 0 0.5
v -2.5 0 -0.5
v -2.5 0 -1.5
v -2.5 2 0.5
v -2.5 2 -0.5
v -2.5 2 -1.5
v -2.5 3 1.5
v -2.5 3 0.5
v -2.5 3 -0.5
v -2.5 4 0.5
v -2.5 4 -0.5
v -1.5 2 -0.5
v -1.5 2 -1.5
v -1.5 3 -0.5
v -1.5 3 -1.5
v 0.5 2 0.5
v 0.5 2 -1.5
v 0.5 3 0.5
v 0.5 3 -0.5
v 0.5 3 -1.5
v 1.5 1 1.5
v 1.5 1 -1.5
v 1.5 2 1.5
v 1.5 2 0.5
v 1.5 2 -0.5
v 1.5 2 -1.5
v 3.5 0 2.5
v 3.5 0 0.5
v 3.5 0 -0.5
v 3.5 0 -2.5
v 3.5 1 2.5
v 3.5 1 1.5
v 3.5 1 -1.5
v 3.5 1 -2.5
v 3.5 2 2.5
v 3.5 2 1.5
v 3.5 2 0.5
v 3.5 2 -0.5
v 3.5 2 -1.5
v 3.5 2 -2.5
v 3.5 3 2.5
v 3.5 3 1.5
v 3.5 3 -1.5
v 3.5 3 -2.5
v 3.5 4 2.5
v 3.5 4 1.5
v 3.5 4 -1.5
v 3.5 4 -2.5
v -3.5 0 2.5
v -3.5 1 2.5
v -3.5 2 2.5
v -3.5 3 2.5
v -3.5 4 2.5
v -2.5 1 2.5
v -2.5 2 2.5
v -2.5 3 2.5
v -2.5 4 2.5
v 2.5 1 2.5
v 2.5 2 2.5
v 2.5 3 2.5
v 2.5 4 2.5
v 3.5 0 2.5
v 3.5 1 2.5
v 3.5 2 2.5
v 3.5 3 2.5
v 3.5 4 2.5
v -2.5 2 -0.5
v -2.5 3 -0.5
v -2.5 4 -0.5
v -1.5 2 -0.5
v -1.5 3 -0.5
v -0.5 3 -0.5
v 0.5 3 -0.5
v 1.5 2 -0.5
v 1.5 3 -0.5
v 2.5 2 -0.5
v 2.5 3 -0.5
v 2.5 4 -0.5
v -2.5 0 -1.5
v -2.5 2 -1.5
v -1.5 1 -1.5
v -1.5 2 -1.5
v -1.5 3 -1.5
v -0.5 2 -1.5
v -0.5 3 -1.5
v 0.5 2 -1.5
v 0.5 3 -1.5
v 1.5 1 -1.5
v 1.5 2 -1.5
v 1.5 3 -1.5
v 2.5 0 -1.5
v 2.5 2 -1.5
v -2.5 0 1.5
v -2.5 3 1.5
v -1.5 1 1.5
v -1.5 3 1.5
v 1.5 1 1.5
v 1.5 2 1.5
v 2.5 0 1.5
v 2.5 2 1.5
v -2.5 3 0.5
v -2.5 4 0.5
v -1.5 2 0.5
v -1.5 3 0.5
v -0.5 2 0.5
v -0.5 3 0.5
v 0.5 2 0.5
v 0.5 3 0.5
v 1.5 2 0.5
v 2.5 2 0.5
v 2.5 3 0.5
v 2.5 4 0.5
v -3.5 0 -2.5
v -3.5 1 -2.5
v -3.5 2 -2.5
v -3.5 3 -2.5
v -3.5 4 -2.5
v -2.5 1 -2.5
v -2.5 2 -2.5
v -2.5 3 -2.5
v -2.5 4 -2.5
v 2.5 1 -2.5
v 2.5 2 -2.5
v 2.5 3 -2.5
v 2.5 4 -2.5
v 3.5 0 -2.5
v 3.5 1 -2.5
v 3.5 2 -2.5
v 3.5 3 -2.5
v 3.5 4 -2.5
v -3.5 0 2.5
v 3.5 0 2.5
v -2.5 0 1.5
v 2.5 0 1.5
v -3.5 0 0.5
v -2.5 0 0.5
v 2.5 0 0.5
v 3.5 0 0.5
v -3.5 0 -0.5
v -2.5 0 -0.5
v 2.5 0 -0.5
v 3.5 0 -0.5
v -2.5 0 -1.5
v 2.5 0 -1.5
v -3.5 0 -2.5
v 3.5 0 -2.5
v -1.5 1 1.5
v 1.5 1 1.5
v -1.5 1 -1.5
v 1.5 1 -1.5
v 1.5 2 1.5
v 2.5 2 1.5
v 1.5 2 0.5
v 2.5 2 0.5
v -2.5 2 -0.5
v -1.5 2 -0.5
v 1.5 2 -0.5
v 2.5 2 -0.5
v -2.5 2 -1.5
v -1.5 2 -1.5
v 1.5 2 -1.5
v 2.5 2 -1.5
v -2.5 3 1.5
v -1.5 3 1.5
v -2.5 3 0.5
v -1.5 3 0.5
v -1.5 3 -0.5
v -0.5 3 -0.5
v 0.5 3 -0.5
v 1.5 3 -0.5
v -1.5 3 -1.5
v -0.5 3 -1.5
v 0.5 3 -1.5
v 1.5 3 -1.5
v -1.5 2 0.5
v -0.5 2 0.5
v 0.5 2 0.5
v 1.5 2 0.5
v -1.5 2 -0.5
v 1.5 2 -0.5
v -1.5 2 -1.5
v -0.5 2 -1.5
v 0.5 2 -1.5
v 1.5 2 -1.5
v -0.5 3 0.5
v 0.5 3 0.5
v -0.5 3 -0.5
v 0.5 3 -0.5
v -3.5 4 2.5
v -2.5 4 2.5
v 2.5 4 2.5
v 3.5 4 2.5
v -3.5 4 1.5
v -2.5 4 1.5
v 2.5 4 1.5
v 3.5 4 1.5
v -2.5 4 0.5
v 2.5 4 0.5
v -2.5 4 -0.5
v 2.5 4 -0.5
v -3.5 4 -1.5
v -2.5 4 -1.5
v 2.5 4 -1.5
v 3.5 4 -1.5
v -3.5 4 -2.5
v -2.5 4 -2.5
v 2.5 4 -2.5
v 3.5 4 -2.5

# faces
f 5/5/1 2/5/1 1/5/1
f 6/5/1 2/5/1 5/5/1
f 7/5/1 4/5/1 3/5/1
f 8/5/1 4/5/1 7/5/1
f 9/4/1 6/4/1 5/4/1
f 10/5/1 2/5/1 6/5/1
f 10/4/1 6/4/1 9/4/1
f 11/4/1 3/4/1 2/4/1
f 11/5/1 2/5/1 10/5/1
f 12/5/1 7/5/1 3/5/1
f 12/4/1 3/4/1 11/4/1
f 13/4/1 8/4/1 7/4/1
f 13/5/1 7/5/1 12/5/1
f 14/4/1 8/4/1 13/4/1
f 15/3/1 10/3/1 9/3/1
f 16/5/1 11/5/1 10/5/1
f 16/3/1 10/3/1 15/3/1
f 16/5/1 12/5/1 11/5/1
f 16/5/1 13/5/1 12/5/1
f 17/3/1 14/3/1 13/3/1
f 17/5/1 13/5/1 16/5/1
f 18/3/1 14/3/1 17/3/1
f 19/2/1 16/2/1 15/2/1
f 20/4/1 17/4/1 16/4/1
f 20/2/1 16/2/1 19/2/1
f 21/2/1 18/2/1 17/2/1
f 21/4/1 17/4/1 20/4/1
f 22/2/1 18/2/1 21/2/1
f 25/1/1 24/1/1 23/1/1
f 26/1/1 24/1/1 25/1/1
f 27/1/1 24/1/1 26/1/1
f 28/1/1 25/1/1 23/1/1
f 29/1/1 25/1/1 28/1/1
f 32/1/1 31/1/1 30/1/1
f 33/1/1 31/1/1 32/1/1
f 34/1/1 31/1/1 33/1/1
f 37/5/1 36/5/1 35/5/1
f 38/5/1 36/5/1 37/5/1
f 43/5/1 40/5/1 39/5/1
f 44/4/1 41/4/1 40/4/1
f 44/5/1 40/5/1 43/5/1
f 45/5/1 42/5/1 41/5/1
f 45/4/1 41/4/1 44/4/1
f 46/5/1 42/5/1 45/5/1
f 47/5/1 45/5/1 44/5/1
f 48/5/1 45/5/1 47/5/1
f 49/4/1 48/4/1 47/4/1
f 50/4/1 48/4/1 49/4/1
f 51/5/2 52/5/2 55/5/2
f 52/4/2 53/4/2 55/4/2
f 53/5/2 54/5/2 56/5/2
f 55/4/2 53/4/2 56/4/2
f 56/5/2 54/5/2 57/5/2
f 51/5/2 55/5/2 58/5/2
f 55/5/2 56/5/2 58/5/2
f 58/5/2 56/5/2 59/5/2
f 59/5/2 56/5/2 60/5/2
f 59/4/2 60/4/2 61/4/2
f 61/4/2 60/4/2 62/4/2
f 63/5/2 64/5/2 65/5/2
f 65/5/2 64/5/2 66/5/2
f 67/1/2 68/1/2 69/1/2
f 69/1/2 68/1/2 70/1/2
f 70/1/2 68/1/2 71/1/2
f 72/1/2 73/1/2 74/1/2
f 74/1/2 73/1/2 75/1/2
f 75/1/2 73/1/2 76/1/2
f 76/1/2 73/1/2 77/1/2
f 78/5/2 79/5/2 82/5/2
f 82/5/2 79/5/2 83/5/2
f 80/5/2 81/5/2 84/5/2
f 84/5/2 81/5/2 85/5/2
f 82/4/2 83/4/2 86/4/2
f 83/5/2 79/5/2 87/5/2
f 86/4/2 83/4/2 87/4/2
f 79/4/2 80/4/2 88/4/2
f 87/5/2 79/5/2 88/5/2
f 80/5/2 84/5/2 89/5/2
f 88/4/2 80/4/2 89/4/2
f 84/4/2 85/4/2 90/4/2
f 89/5/2 84/5/2 90/5/2
f 90/4/2 85/4/2 91/4/2
f 86/3/2 87/3/2 92/3/2
f 87/5/2 88/5/2 93/5/2
f 92/3/2 87/3/2 93/3/2
f 88/5/2 89/5/2 93/5/2
f 89/5/2 90/5/2 93/5/2
f 90/3/2 91/3/2 94/3/2
f 93/5/2 90/5/2 94/5/2
f 94/3/2 91/3/2 95/3/2
f 92/2/2 93/2/2 96/2/2
f 93/4/2 94/4/2 97/4/2
f 96/2/2 93/2/2 97/2/2
f 94/2/2 95/2/2 98/2/2
f 97/4/2 94/4/2 98/4/2
f 98/2/2 95/2/2 99/2/2
f 105/5/3 101/5/3 100/5/3
f 105/4/3 102/4/3 101/4/3
f 106/3/3 103/3/3 102/3/3
f 106/4/3 102/4/3 105/4/3
f 107/2/3 104/2/3 103/2/3
f 107/3/3 103/3/3 106/3/3
f 108/2/3 104/2/3 107/2/3
f 109/5/3 106/5/3 105/5/3
f 109/5/3 105/5/3 100/5/3
f 109/5/3 107/5/3 106/5/3
f 110/5/3 107/5/3 109/5/3
f 111/4/3 108/4/3 107/4/3
f 111/5/3 107/5/3 110/5/3
f 112/4/3 108/4/3 111/4/3
f 113/5/3 109/5/3 100/5/3
f 114/4/3 110/4/3 109/4/3
f 114/5/3 109/5/3 113/5/3
f 115/3/3 111/3/3 110/3/3
f 115/4/3 110/4/3 114/4/3
f 116/2/3 112/2/3 111/2/3
f 116/3/3 111/3/3 115/3/3
f 117/2/3 112/2/3 116/2/3
f 121/5/3 119/5/3 118/5/3
f 122/4/3 120/4/3 119/4/3
f 122/5/3 119/5/3 121/5/3
f 123/4/3 120/4/3 122/4/3
f 124/4/3 120/4/3 123/4/3
f 126/4/3 120/4/3 124/4/3
f 127/5/3 126/5/3 125/5/3
f 128/4/3 120/4/3 126/4/3
f 128/5/3 126/5/3 127/5/3
f 129/4/3 120/4/3 128/4/3
f 132/5/3 131/5/3 130/5/3
f 133/5/3 131/5/3 132/5/3
f 135/5/3 134/5/3 133/5/3
f 136/5/3 134/5/3 135/5/3
f 139/5/3 132/5/3 130/5/3
f 140/5/3 138/5/3 137/5/3
f 141/5/3 138/5/3 140/5/3
f 142/5/3 139/5/3 130/5/3
f 142/5/3 140/5/3 139/5/3
f 143/5/3 140/5/3 142/5/3
f 144/5/4 145/5/4 146/5/4
f 146/5/4 145/5/4 147/5/4
f 144/5/4 146/5/4 148/5/4
f 144/5/4 148/5/4 150/5/4
f 148/5/4 149/5/4 150/5/4
f 150/5/4 149/5/4 151/5/4
f 152/4/4 153/4/4 155/4/4
f 154/1/4 155/1/4 156/1/4
f 155/4/4 153/4/4 157/4/4
f 156/1/4 155/1/4 157/1/4
f 157/4/4 153/4/4 159/4/4
f 158/1/4 159/1/4 160/1/4
f 160/1/4 159/1/4 161/1/4
f 159/4/4 153/4/4 162/4/4
f 161/1/4 159/1/4 162/1/4
f 162/4/4 153/4/4 163/4/4
f 164/5/4 165/5/4 169/5/4
f 165/4/4 166/4/4 169/4/4
f 166/3/4 167/3/4 170/3/4
f 169/4/4 166/4/4 170/4/4
f 167/2/4 168/2/4 171/2/4
f 170/3/4 167/3/4 171/3/4
f 171/2/4 168/2/4 172/2/4
f 169/5/4 170/5/4 173/5/4
f 164/5/4 169/5/4 173/5/4
f 170/5/4 171/5/4 173/5/4
f 173/5/4 171/5/4 174/5/4
f 171/4/4 172/4/4 175/4/4
f 174/5/4 171/5/4 175/5/4
f 175/4/4 172/4/4 176/4/4
f 164/5/4 173/5/4 177/5/4
f 173/4/4 174/4/4 178/4/4
f 177/5/4 173/5/4 178/5/4
f 174/3/4 175/3/4 179/3/4
f 178/4/4 174/4/4 179/4/4
f 175/2/4 176/2/4 180/2/4
f 179/3/4 175/3/4 180/3/4
f 180/2/4 176/2/4 181/2/4
f 184/5/5 183/5/5 182/5/5
f 185/5/5 183/5/5 184/5/5
f 186/5/5 184/5/5 182/5/5
f 187/5/5 184/5/5 186/5/5
f 188/5/5 183/5/5 185/5/5
f 189/5/5 183/5/5 188/5/5
f 190/4/5 187/4/5 186/4/5
f 191/4/5 187/4/5 190/4/5
f 192/4/5 189/4/5 188/4/5
f 193/4/5 189/4/5 192/4/5
f 194/5/5 191/5/5 190/5/5
f 195/5/5 193/5/5 192/5/5
f 196/5/5 194/5/5 190/5/5
f 196/5/5 195/5/5 194/5/5
f 197/5/5 193/5/5 195/5/5
f 197/5/5 195/5/5 196/5/5
f 200/1/5 199/1/5 198/1/5
f 201/1/5 199/1/5 200/1/5
f 204/1/5 203/1/5 202/1/5
f 205/1/5 203/1/5 204/1/5
f 210/5/5 207/5/5 206/5/5
f 211/5/5 207/5/5 210/5/5
f 212/5/5 209/5/5 208/5/5
f 213/5/5 209/5/5 212/5/5
f 216/4/5 215/4/5 214/4/5
f 217/4/5 215/4/5 216/4/5
f 222/4/5 219/4/5 218/4/5
f 223/4/5 219/4/5 222/4/5
f 224/4/5 221/4/5 220/4/5
f 225/4/5 221/4/5 224/4/5
f 226/1/6 227/1/6 230/1/6
f 228/1/6 229/1/6 231/1/6
f 230/1/6 227/1/6 232/1/6
f 232/1/6 227/1/6 233/1/6
f 228/1/6 231/1/6 234/1/6
f 234/1/6 231/1/6 235/1/6
f 236/1/6 237/1/6 238/1/6
f 238/1/6 237/1/6 239/1/6
f 240/2/6 241/2/6 244/2/6
f 241/4/6 242/4/6 245/4/6
f 244/2/6 241/2/6 245/2/6
f 242/2/6 243/2/6 246/2/6
f 245/4/6 242/4/6 246/4/6
f 246/2/6 243/2/6 247/2/6
f 244/4/6 245/4/6 248/4/6
f 245/4/6 246/4/6 248/4/6
f 246/4/6 247/4/6 248/4/6
f 248/4/6 247/4/6 249/4/6
f 244/4/6 248/4/6 250/4/6
f 249/4/6 247/4/6 251/4/6
f 244/4/6 250/4/6 252/4/6
f 250/4/6 251/4/6 252/4/6
f 252/4/6 251/4/6 253/4/6
f 251/4/6 247/4/6 254/4/6
f 253/4/6 251/4/6 254/4/6
f 254/4/6 247/4/6 255/4/6
f 252/2/6 253/2/6 256/2/6
f 253/4/6 254/4/6 257/4/6
f 256/2/6 253/2/6 257/2/6
f 254/2/6 255/2/6 258/2/6
f 257/4/6 254/4/6 258/4/6
f 258/2/6 255/2/6 259/2/6
