# MagicaVoxel @ ephtracy

# material
mtllib body2.mtl
usemtl palette

# normals
vn -1 0 0
vn 1 0 0
vn 0 0 1
vn 0 0 -1
vn 0 -1 0
vn 0 1 0

# texcoords
vt 0.982422 0.5
vt 0.986328 0.5

# verts
v -7.5 1 0.5
v -7.5 1 -0.5
v -7.5 2 1.5
v -7.5 2 0.5
v -7.5 2 -0.5
v -7.5 2 -1.5
v -7.5 7 1.5
v -7.5 7 -1.5
v -6.5 3 3.5
v -6.5 3 1.5
v -6.5 3 -1.5
v -6.5 3 -3.5
v -6.5 6 3.5
v -6.5 6 1.5
v -6.5 6 -1.5
v -6.5 6 -3.5
v -6.5 7 3.5
v -6.5 7 1.5
v -6.5 7 -1.5
v -6.5 7 -3.5
v -5.5 7 2.5
v -5.5 7 -1.5
v -5.5 8 2.5
v -5.5 8 -1.5
v -4.5 3 -3.5
v -4.5 3 -4.5
v -4.5 6 -3.5
v -4.5 6 -4.5
v -4.5 8 2.5
v -4.5 8 -1.5
v -4.5 9 2.5
v -4.5 9 -1.5
v -3.5 1 3.5
v -3.5 1 2.5
v -3.5 3 3.5
v -3.5 3 2.5
v -2.5 2 -3.5
v -2.5 2 -4.5
v -2.5 3 4.5
v -2.5 3 3.5
v -2.5 3 -3.5
v -2.5 3 -4.5
v -2.5 6 4.5
v -2.5 6 3.5
v -1.5 0 3.5
v -1.5 0 2.5
v -1.5 1 3.5
v -1.5 1 2.5
v -1.5 1 -3.5
v -1.5 1 -4.5
v -1.5 2 4.5
v -1.5 2 3.5
v -1.5 2 -3.5
v -1.5 2 -4.5
v -1.5 3 4.5
v -1.5 3 3.5
v -1.5 7 -1.5
v -1.5 7 -2.5
v -1.5 8 -1.5
v -1.5 8 -2.5
v -0.5 0 -3.5
v -0.5 0 -4.5
v -0.5 1 4.5
v -0.5 1 3.5
v -0.5 1 -3.5
v -0.5 1 -4.5
v -0.5 2 4.5
v -0.5 2 3.5
v 1.5 7 1.5
v 1.5 7 -0.5
v 1.5 8 1.5
v 1.5 8 -0.5
v 5.5 6 -2.5
v 5.5 6 -3.5
v 5.5 7 -2.5
v 5.5 7 -3.5
v 6.5 1 0.5
v 6.5 1 -0.5
v 6.5 2 1.5
v 6.5 2 0.5
v 6.5 2 -0.5
v 6.5 2 -1.5
v 6.5 3 2.5
v 6.5 3 1.5
v 6.5 3 -1.5
v 6.5 3 -2.5
v 6.5 6 2.5
v 6.5 6 -2.5
v -6.5 1 0.5
v -6.5 1 -0.5
v -6.5 2 1.5
v -6.5 2 0.5
v -6.5 2 -0.5
v -6.5 2 -1.5
v -6.5 3 1.5
v -6.5 3 -1.5
v -5.5 3 2.5
v -5.5 3 -2.5
v -5.5 5 -1.5
v -5.5 5 -2.5
v -5.5 6 2.5
v -5.5 6 -1.5
v -5.5 6 -2.5
v -5.5 6 -3.5
v -5.5 7 -2.5
v -5.5 7 -3.5
v -1.5 7 1.5
v -1.5 7 -0.5
v -1.5 8 1.5
v -1.5 8 -0.5
v 0.5 0 -3.5
v 0.5 0 -4.5
v 0.5 1 4.5
v 0.5 1 3.5
v 0.5 1 -3.5
v 0.5 1 -4.5
v 0.5 2 4.5
v 0.5 2 3.5
v 1.5 0 3.5
v 1.5 0 2.5
v 1.5 1 3.5
v 1.5 1 2.5
v 1.5 1 -3.5
v 1.5 1 -4.5
v 1.5 2 4.5
v 1.5 2 3.5
v 1.5 2 -3.5
v 1.5 2 -4.5
v 1.5 3 4.5
v 1.5 3 3.5
v 1.5 7 -1.5
v 1.5 7 -2.5
v 1.5 8 -1.5
v 1.5 8 -2.5
v 2.5 2 -3.5
v 2.5 2 -4.5
v 2.5 3 4.5
v 2.5 3 3.5
v 2.5 3 -3.5
v 2.5 3 -4.5
v 2.5 6 4.5
v 2.5 6 3.5
v 3.5 1 3.5
v 3.5 1 2.5
v 3.5 3 3.5
v 3.5 3 2.5
v 4.5 3 -3.5
v 4.5 3 -4.5
v 4.5 6 -3.5
v 4.5 6 -4.5
v 4.5 8 2.5
v 4.5 8 -1.5
v 4.5 9 2.5
v 4.5 9 -1.5
v 5.5 5 -1.5
v 5.5 5 -2.5
v 5.5 6 -1.5
v 5.5 6 -2.5
v 5.5 7 2.5
v 5.5 7 -1.5
v 5.5 8 2.5
v 5.5 8 -1.5
v 6.5 6 3.5
v 6.5 6 1.5
v 6.5 6 -1.5
v 6.5 6 -3.5
v 6.5 7 3.5
v 6.5 7 1.5
v 6.5 7 -1.5
v 6.5 7 -3.5
v 7.5 1 0.5
v 7.5 1 -0.5
v 7.5 2 1.5
v 7.5 2 0.5
v 7.5 2 -0.5
v 7.5 2 -1.5
v 7.5 3 3.5
v 7.5 3 1.5
v 7.5 3 -1.5
v 7.5 3 -3.5
v 7.5 6 3.5
v 7.5 6 1.5
v 7.5 6 -1.5
v 7.5 6 -3.5
v 7.5 7 1.5
v 7.5 7 -1.5
v -2.5 3 4.5
v -2.5 6 4.5
v -1.5 2 4.5
v -1.5 3 4.5
v -1.5 6 4.5
v -0.5 1 4.5
v -0.5 2 4.5
v 0.5 1 4.5
v 0.5 2 4.5
v 1.5 2 4.5
v 1.5 3 4.5
v 1.5 6 4.5
v 2.5 3 4.5
v 2.5 6 4.5
v -6.5 3 3.5
v -6.5 6 3.5
v -6.5 7 3.5
v -3.5 1 3.5
v -3.5 3 3.5
v -2.5 3 3.5
v -2.5 6 3.5
v -1.5 0 3.5
v -1.5 1 3.5
v -1.5 2 3.5
v -1.5 3 3.5
v -1.5 6 3.5
v -0.5 1 3.5
v -0.5 2 3.5
v 0.5 1 3.5
v 0.5 2 3.5
v 1.5 0 3.5
v 1.5 1 3.5
v 1.5 2 3.5
v 1.5 3 3.5
v 1.5 6 3.5
v 2.5 3 3.5
v 2.5 6 3.5
v 3.5 1 3.5
v 3.5 3 3.5
v 6.5 6 3.5
v 6.5 7 3.5
v 7.5 3 3.5
v 7.5 6 3.5
v -5.5 7 2.5
v -5.5 8 2.5
v -4.5 8 2.5
v -4.5 9 2.5
v 4.5 8 2.5
v 4.5 9 2.5
v 5.5 7 2.5
v 5.5 8 2.5
v -7.5 2 1.5
v -7.5 7 1.5
v -6.5 2 1.5
v -6.5 3 1.5
v -6.5 6 1.5
v -6.5 7 1.5
v 6.5 2 1.5
v 6.5 3 1.5
v 6.5 6 1.5
v 6.5 7 1.5
v 7.5 2 1.5
v 7.5 3 1.5
v 7.5 6 1.5
v 7.5 7 1.5
v -7.5 1 0.5
v -7.5 2 0.5
v -6.5 1 0.5
v -6.5 2 0.5
v 6.5 1 0.5
v 6.5 2 0.5
v 7.5 1 0.5
v 7.5 2 0.5
v -1.5 7 -0.5
v -1.5 8 -0.5
v 1.5 7 -0.5
v 1.5 8 -0.5
v -5.5 5 -1.5
v -5.5 6 -1.5
v 1.5 6 -1.5
v 5.5 5 -1.5
v 5.5 6 -1.5
v -5.5 3 -2.5
v -5.5 5 -2.5
v 5.5 5 -2.5
v 5.5 6 -2.5
v 6.5 3 -2.5
v 6.5 6 -2.5
v -2.5 2 -3.5
v -2.5 3 -3.5
v -1.5 1 -3.5
v -1.5 2 -3.5
v -0.5 0 -3.5
v -0.5 1 -3.5
v 0.5 0 -3.5
v 0.5 1 -3.5
v 1.5 1 -3.5
v 1.5 2 -3.5
v 2.5 2 -3.5
v 2.5 3 -3.5
v -5.5 3 2.5
v -5.5 6 2.5
v -3.5 1 2.5
v -3.5 3 2.5
v -1.5 0 2.5
v -1.5 1 2.5
v 1.5 0 2.5
v 1.5 1 2.5
v 1.5 6 2.5
v 3.5 1 2.5
v 3.5 3 2.5
v 5.5 6 2.5
v 6.5 3 2.5
v 6.5 6 2.5
v -1.5 7 1.5
v -1.5 8 1.5
v 1.5 7 1.5
v 1.5 8 1.5
v -7.5 1 -0.5
v -7.5 2 -0.5
v -6.5 1 -0.5
v -6.5 2 -0.5
v 6.5 1 -0.5
v 6.5 2 -0.5
v 7.5 1 -0.5
v 7.5 2 -0.5
v -7.5 2 -1.5
v -7.5 7 -1.5
v -6.5 2 -1.5
v -6.5 3 -1.5
v -6.5 6 -1.5
v -6.5 7 -1.5
v -5.5 7 -1.5
v -5.5 8 -1.5
v -4.5 8 -1.5
v -4.5 9 -1.5
v -1.5 7 -1.5
v -1.5 8 -1.5
v 1.5 7 -1.5
v 1.5 8 -1.5
v 4.5 8 -1.5
v 4.5 9 -1.5
v 5.5 7 -1.5
v 5.5 8 -1.5
v 6.5 2 -1.5
v 6.5 3 -1.5
v 6.5 6 -1.5
v 6.5 7 -1.5
v 7.5 2 -1.5
v 7.5 3 -1.5
v 7.5 6 -1.5
v 7.5 7 -1.5
v -5.5 6 -2.5
v -5.5 7 -2.5
v -1.5 7 -2.5
v -1.5 8 -2.5
v 1.5 7 -2.5
v 1.5 8 -2.5
v 5.5 6 -2.5
v 5.5 7 -2.5
v -6.5 3 -3.5
v -6.5 6 -3.5
v -6.5 7 -3.5
v -5.5 6 -3.5
v -5.5 7 -3.5
v -4.5 3 -3.5
v -4.5 6 -3.5
v 4.5 3 -3.5
v 4.5 6 -3.5
v 5.5 6 -3.5
v 5.5 7 -3.5
v 6.5 6 -3.5
v 6.5 7 -3.5
v 7.5 3 -3.5
v 7.5 6 -3.5
v -4.5 3 -4.5
v -4.5 6 -4.5
v -2.5 2 -4.5
v -2.5 3 -4.5
v -1.5 1 -4.5
v -1.5 2 -4.5
v -0.5 0 -4.5
v -0.5 1 -4.5
v 0.5 0 -4.5
v 0.5 1 -4.5
v 1.5 1 -4.5
v 1.5 2 -4.5
v 2.5 2 -4.5
v 2.5 3 -4.5
v 4.5 3 -4.5
v 4.5 6 -4.5
v -1.5 0 3.5
v 1.5 0 3.5
v -1.5 0 2.5
v 1.5 0 2.5
v -0.5 0 -3.5
v 0.5 0 -3.5
v -0.5 0 -4.5
v 0.5 0 -4.5
v -0.5 1 4.5
v 0.5 1 4.5
v -3.5 1 3.5
v -1.5 1 3.5
v -0.5 1 3.5
v 0.5 1 3.5
v 1.5 1 3.5
v 3.5 1 3.5
v -3.5 1 2.5
v -1.5 1 2.5
v 1.5 1 2.5
v 3.5 1 2.5
v -7.5 1 0.5
v -6.5 1 0.5
v 6.5 1 0.5
v 7.5 1 0.5
v -7.5 1 -0.5
v -6.5 1 -0.5
v 6.5 1 -0.5
v 7.5 1 -0.5
v -1.5 1 -3.5
v -0.5 1 -3.5
v 0.5 1 -3.5
v 1.5 1 -3.5
v -1.5 1 -4.5
v -0.5 1 -4.5
v 0.5 1 -4.5
v 1.5 1 -4.5
v -1.5 2 4.5
v -0.5 2 4.5
v 0.5 2 4.5
v 1.5 2 4.5
v -1.5 2 3.5
v -0.5 2 3.5
v 0.5 2 3.5
v 1.5 2 3.5
v -7.5 2 1.5
v -6.5 2 1.5
v 6.5 2 1.5
v 7.5 2 1.5
v -7.5 2 0.5
v -6.5 2 0.5
v 6.5 2 0.5
v 7.5 2 0.5
v -7.5 2 -0.5
v -6.5 2 -0.5
v 6.5 2 -0.5
v 7.5 2 -0.5
v -7.5 2 -1.5
v -6.5 2 -1.5
v 6.5 2 -1.5
v 7.5 2 -1.5
v -2.5 2 -3.5
v -1.5 2 -3.5
v 1.5 2 -3.5
v 2.5 2 -3.5
v -2.5 2 -4.5
v -1.5 2 -4.5
v 1.5 2 -4.5
v 2.5 2 -4.5
v -2.5 3 4.5
v -1.5 3 4.5
v 1.5 3 4.5
v 2.5 3 4.5
v -6.5 3 3.5
v -3.5 3 3.5
v -2.5 3 3.5
v -1.5 3 3.5
v 1.5 3 3.5
v 2.5 3 3.5
v 3.5 3 3.5
v 7.5 3 3.5
v -5.5 3 2.5
v -3.5 3 2.5
v 3.5 3 2.5
v 6.5 3 2.5
v -6.5 3 1.5
v 6.5 3 1.5
v 7.5 3 1.5
v -6.5 3 -1.5
v 6.5 3 -1.5
v 7.5 3 -1.5
v -5.5 3 -2.5
v 6.5 3 -2.5
v -6.5 3 -3.5
v -4.5 3 -3.5
v -2.5 3 -3.5
v 2.5 3 -3.5
v 4.5 3 -3.5
v 7.5 3 -3.5
v -4.5 3 -4.5
v -2.5 3 -4.5
v 2.5 3 -4.5
v 4.5 3 -4.5
v -5.5 5 -1.5
v 5.5 5 -1.5
v -5.5 5 -2.5
v 5.5 5 -2.5
v -5.5 6 2.5
v 1.5 6 2.5
v 5.5 6 2.5
v 6.5 6 2.5
v -5.5 6 -1.5
v 1.5 6 -1.5
v 5.5 6 -1.5
v 5.5 6 -2.5
v 6.5 6 -2.5
v -1.5 8 1.5
v 1.5 8 1.5
v -1.5 8 -0.5
v 1.5 8 -0.5
v -2.5 6 4.5
v -1.5 6 4.5
v 1.5 6 4.5
v 2.5 6 4.5
v -2.5 6 3.5
v -1.5 6 3.5
v 1.5 6 3.5
v 2.5 6 3.5
v 6.5 6 3.5
v 7.5 6 3.5
v 6.5 6 1.5
v 7.5 6 1.5
v 6.5 6 -1.5
v 7.5 6 -1.5
v -5.5 6 -2.5
v 5.5 6 -2.5
v -5.5 6 -3.5
v -4.5 6 -3.5
v 4.5 6 -3.5
v 5.5 6 -3.5
v 6.5 6 -3.5
v 7.5 6 -3.5
v -4.5 6 -4.5
v 4.5 6 -4.5
v -6.5 7 3.5
v 6.5 7 3.5
v -5.5 7 2.5
v 5.5 7 2.5
v -7.5 7 1.5
v -6.5 7 1.5
v -1.5 7 1.5
v 1.5 7 1.5
v 6.5 7 1.5
v 7.5 7 1.5
v -1.5 7 -0.5
v 1.5 7 -0.5
v -7.5 7 -1.5
v -6.5 7 -1.5
v -5.5 7 -1.5
v -1.5 7 -1.5
v 1.5 7 -1.5
v 5.5 7 -1.5
v 6.5 7 -1.5
v 7.5 7 -1.5
v -5.5 7 -2.5
v -1.5 7 -2.5
v 1.5 7 -2.5
v 5.5 7 -2.5
v -6.5 7 -3.5
v -5.5 7 -3.5
v 5.5 7 -3.5
v 6.5 7 -3.5
v -5.5 8 2.5
v -4.5 8 2.5
v 4.5 8 2.5
v 5.5 8 2.5
v -5.5 8 -1.5
v -4.5 8 -1.5
v -1.5 8 -1.5
v 1.5 8 -1.5
v 4.5 8 -1.5
v 5.5 8 -1.5
v -1.5 8 -2.5
v 1.5 8 -2.5
v -4.5 9 2.5
v 4.5 9 2.5
v -4.5 9 -1.5
v 4.5 9 -1.5

# faces
f 4/2/1 2/2/1 1/2/1
f 5/2/1 2/2/1 4/2/1
f 7/2/1 4/2/1 3/2/1
f 7/2/1 6/2/1 5/2/1
f 7/2/1 5/2/1 4/2/1
f 8/2/1 6/2/1 7/2/1
f 13/1/1 10/1/1 9/1/1
f 14/1/1 10/1/1 13/1/1
f 15/1/1 12/1/1 11/1/1
f 16/1/1 12/1/1 15/1/1
f 17/2/1 14/2/1 13/2/1
f 18/2/1 14/2/1 17/2/1
f 19/2/1 16/2/1 15/2/1
f 20/2/1 16/2/1 19/2/1
f 23/2/1 22/2/1 21/2/1
f 24/2/1 22/2/1 23/2/1
f 27/2/1 26/2/1 25/2/1
f 28/2/1 26/2/1 27/2/1
f 31/2/1 30/2/1 29/2/1
f 32/2/1 30/2/1 31/2/1
f 35/1/1 34/1/1 33/1/1
f 36/1/1 34/1/1 35/1/1
f 41/2/1 38/2/1 37/2/1
f 42/2/1 38/2/1 41/2/1
f 43/1/1 40/1/1 39/1/1
f 44/1/1 40/1/1 43/1/1
f 47/1/1 46/1/1 45/1/1
f 48/1/1 46/1/1 47/1/1
f 53/2/1 50/2/1 49/2/1
f 54/2/1 50/2/1 53/2/1
f 55/2/1 52/2/1 51/2/1
f 56/2/1 52/2/1 55/2/1
f 59/2/1 58/2/1 57/2/1
f 60/2/1 58/2/1 59/2/1
f 65/2/1 62/2/1 61/2/1
f 66/2/1 62/2/1 65/2/1
f 67/2/1 64/2/1 63/2/1
f 68/2/1 64/2/1 67/2/1
f 71/2/1 70/2/1 69/2/1
f 72/2/1 70/2/1 71/2/1
f 75/2/1 74/2/1 73/2/1
f 76/2/1 74/2/1 75/2/1
f 80/2/1 78/2/1 77/2/1
f 81/2/1 78/2/1 80/2/1
f 84/2/1 80/2/1 79/2/1
f 84/2/1 82/2/1 81/2/1
f 84/2/1 81/2/1 80/2/1
f 85/2/1 82/2/1 84/2/1
f 87/1/1 84/1/1 83/1/1
f 87/1/1 86/1/1 85/1/1
f 87/1/1 85/1/1 84/1/1
f 88/1/1 86/1/1 87/1/1
f 89/2/2 90/2/2 92/2/2
f 92/2/2 90/2/2 93/2/2
f 91/2/2 92/2/2 95/2/2
f 93/2/2 94/2/2 95/2/2
f 92/2/2 93/2/2 95/2/2
f 95/2/2 94/2/2 96/2/2
f 97/1/2 98/1/2 99/1/2
f 99/1/2 98/1/2 100/1/2
f 97/1/2 99/1/2 101/1/2
f 101/1/2 99/1/2 102/1/2
f 103/2/2 104/2/2 105/2/2
f 105/2/2 104/2/2 106/2/2
f 107/2/2 108/2/2 109/2/2
f 109/2/2 108/2/2 110/2/2
f 111/2/2 112/2/2 115/2/2
f 115/2/2 112/2/2 116/2/2
f 113/2/2 114/2/2 117/2/2
f 117/2/2 114/2/2 118/2/2
f 119/1/2 120/1/2 121/1/2
f 121/1/2 120/1/2 122/1/2
f 123/2/2 124/2/2 127/2/2
f 127/2/2 124/2/2 128/2/2
f 125/2/2 126/2/2 129/2/2
f 129/2/2 126/2/2 130/2/2
f 131/2/2 132/2/2 133/2/2
f 133/2/2 132/2/2 134/2/2
f 135/2/2 136/2/2 139/2/2
f 139/2/2 136/2/2 140/2/2
f 137/1/2 138/1/2 141/1/2
f 141/1/2 138/1/2 142/1/2
f 143/1/2 144/1/2 145/1/2
f 145/1/2 144/1/2 146/1/2
f 147/2/2 148/2/2 149/2/2
f 149/2/2 148/2/2 150/2/2
f 151/2/2 152/2/2 153/2/2
f 153/2/2 152/2/2 154/2/2
f 155/2/2 156/2/2 157/2/2
f 157/2/2 156/2/2 158/2/2
f 159/2/2 160/2/2 161/2/2
f 161/2/2 160/2/2 162/2/2
f 163/2/2 164/2/2 167/2/2
f 167/2/2 164/2/2 168/2/2
f 165/2/2 166/2/2 169/2/2
f 169/2/2 166/2/2 170/2/2
f 171/2/2 172/2/2 174/2/2
f 174/2/2 172/2/2 175/2/2
f 173/2/2 174/2/2 178/2/2
f 175/2/2 176/2/2 178/2/2
f 174/2/2 175/2/2 178/2/2
f 178/2/2 176/2/2 179/2/2
f 177/1/2 178/1/2 181/1/2
f 179/1/2 180/1/2 181/1/2
f 178/1/2 179/1/2 181/1/2
f 181/1/2 180/1/2 182/1/2
f 182/1/2 180/1/2 183/1/2
f 183/1/2 180/1/2 184/1/2
f 182/2/2 183/2/2 185/2/2
f 185/2/2 183/2/2 186/2/2
f 190/1/3 188/1/3 187/1/3
f 191/1/3 188/1/3 190/1/3
f 193/2/3 190/2/3 189/2/3
f 193/2/3 191/2/3 190/2/3
f 194/2/3 193/2/3 192/2/3
f 195/2/3 191/2/3 193/2/3
f 195/2/3 193/2/3 194/2/3
f 196/2/3 191/2/3 195/2/3
f 197/2/3 191/2/3 196/2/3
f 198/2/3 191/2/3 197/2/3
f 199/1/3 198/1/3 197/1/3
f 200/1/3 198/1/3 199/1/3
f 205/1/3 202/1/3 201/1/3
f 206/1/3 202/1/3 205/1/3
f 206/1/3 205/1/3 204/1/3
f 207/2/3 203/2/3 202/2/3
f 207/1/3 202/1/3 206/1/3
f 209/1/3 206/1/3 204/1/3
f 210/1/3 206/1/3 209/1/3
f 211/1/3 206/1/3 210/1/3
f 212/2/3 203/2/3 207/2/3
f 213/1/3 209/1/3 208/1/3
f 213/1/3 210/1/3 209/1/3
f 214/1/3 210/1/3 213/1/3
f 215/1/3 213/1/3 208/1/3
f 217/1/3 215/1/3 208/1/3
f 217/1/3 216/1/3 215/1/3
f 218/1/3 216/1/3 217/1/3
f 219/1/3 216/1/3 218/1/3
f 221/2/3 203/2/3 212/2/3
f 222/1/3 220/1/3 219/1/3
f 222/1/3 219/1/3 218/1/3
f 223/2/3 203/2/3 221/2/3
f 224/1/3 222/1/3 218/1/3
f 224/1/3 223/1/3 222/1/3
f 225/1/3 223/1/3 224/1/3
f 226/2/3 203/2/3 223/2/3
f 226/1/3 223/1/3 225/1/3
f 227/2/3 203/2/3 226/2/3
f 228/1/3 226/1/3 225/1/3
f 229/1/3 226/1/3 228/1/3
f 232/2/3 231/2/3 230/2/3
f 234/2/3 232/2/3 230/2/3
f 234/2/3 233/2/3 232/2/3
f 235/2/3 233/2/3 234/2/3
f 236/2/3 234/2/3 230/2/3
f 237/2/3 234/2/3 236/2/3
f 240/2/3 239/2/3 238/2/3
f 241/2/3 239/2/3 240/2/3
f 242/2/3 239/2/3 241/2/3
f 243/2/3 239/2/3 242/2/3
f 248/2/3 245/2/3 244/2/3
f 249/2/3 245/2/3 248/2/3
f 250/2/3 247/2/3 246/2/3
f 251/2/3 247/2/3 250/2/3
f 254/2/3 253/2/3 252/2/3
f 255/2/3 253/2/3 254/2/3
f 258/2/3 257/2/3 256/2/3
f 259/2/3 257/2/3 258/2/3
f 262/2/3 261/2/3 260/2/3
f 263/2/3 261/2/3 262/2/3
f 266/2/3 265/2/3 264/2/3
f 267/2/3 266/2/3 264/2/3
f 268/2/3 266/2/3 267/2/3
f 271/1/3 270/1/3 269/1/3
f 273/1/3 271/1/3 269/1/3
f 273/1/3 272/1/3 271/1/3
f 274/1/3 272/1/3 273/1/3
f 278/2/3 276/2/3 275/2/3
f 280/2/3 278/2/3 277/2/3
f 281/2/3 280/2/3 279/2/3
f 282/2/3 278/2/3 280/2/3
f 282/2/3 280/2/3 281/2/3
f 283/2/3 278/2/3 282/2/3
f 284/2/3 276/2/3 278/2/3
f 284/2/3 278/2/3 283/2/3
f 285/2/3 276/2/3 284/2/3
f 286/2/3 276/2/3 285/2/3
f 287/1/4 288/1/4 290/1/4
f 289/1/4 290/1/4 292/1/4
f 291/1/4 292/1/4 293/1/4
f 292/1/4 290/1/4 294/1/4
f 293/1/4 292/1/4 294/1/4
f 290/1/4 288/1/4 295/1/4
f 294/1/4 290/1/4 295/1/4
f 294/1/4 295/1/4 296/1/4
f 296/1/4 295/1/4 297/1/4
f 297/1/4 295/1/4 298/1/4
f 297/1/4 298/1/4 299/1/4
f 299/1/4 298/1/4 300/1/4
f 301/2/4 302/2/4 303/2/4
f 303/2/4 302/2/4 304/2/4
f 305/2/4 306/2/4 307/2/4
f 307/2/4 306/2/4 308/2/4
f 309/2/4 310/2/4 311/2/4
f 311/2/4 310/2/4 312/2/4
f 313/2/4 314/2/4 315/2/4
f 315/2/4 314/2/4 316/2/4
f 316/2/4 314/2/4 317/2/4
f 317/2/4 314/2/4 318/2/4
f 319/2/4 320/2/4 321/2/4
f 319/2/4 321/2/4 323/2/4
f 321/2/4 322/2/4 323/2/4
f 323/2/4 322/2/4 324/2/4
f 324/2/4 322/2/4 326/2/4
f 326/2/4 322/2/4 327/2/4
f 325/2/4 326/2/4 327/2/4
f 327/2/4 322/2/4 328/2/4
f 325/2/4 327/2/4 329/2/4
f 329/2/4 327/2/4 330/2/4
f 331/2/4 332/2/4 335/2/4
f 335/2/4 332/2/4 336/2/4
f 333/2/4 334/2/4 337/2/4
f 337/2/4 334/2/4 338/2/4
f 339/2/4 340/2/4 341/2/4
f 339/2/4 341/2/4 343/2/4
f 341/2/4 342/2/4 343/2/4
f 343/2/4 342/2/4 344/2/4
f 339/2/4 343/2/4 345/2/4
f 345/2/4 343/2/4 346/2/4
f 347/1/4 348/1/4 350/1/4
f 348/2/4 349/2/4 350/2/4
f 350/2/4 349/2/4 351/2/4
f 347/1/4 350/1/4 352/1/4
f 352/1/4 350/1/4 353/1/4
f 354/1/4 355/1/4 356/1/4
f 354/1/4 356/1/4 358/1/4
f 356/2/4 357/2/4 358/2/4
f 358/2/4 357/2/4 359/2/4
f 354/1/4 358/1/4 360/1/4
f 360/1/4 358/1/4 361/1/4
f 362/2/4 363/2/4 365/2/4
f 364/2/4 365/2/4 367/2/4
f 366/2/4 367/2/4 369/2/4
f 368/2/4 369/2/4 370/2/4
f 369/2/4 367/2/4 371/2/4
f 370/2/4 369/2/4 371/2/4
f 371/2/4 367/2/4 372/2/4
f 367/2/4 365/2/4 373/2/4
f 372/2/4 367/2/4 373/2/4
f 373/2/4 365/2/4 374/2/4
f 365/2/4 363/2/4 375/2/4
f 374/2/4 365/2/4 375/2/4
f 375/2/4 363/2/4 376/2/4
f 376/2/4 363/2/4 377/2/4
f 380/1/5 379/1/5 378/1/5
f 381/1/5 379/1/5 380/1/5
f 384/2/5 383/2/5 382/2/5
f 385/2/5 383/2/5 384/2/5
f 390/2/5 387/2/5 386/2/5
f 391/2/5 387/2/5 390/2/5
f 394/1/5 389/1/5 388/1/5
f 395/1/5 389/1/5 394/1/5
f 396/1/5 393/1/5 392/1/5
f 397/1/5 393/1/5 396/1/5
f 402/2/5 399/2/5 398/2/5
f 403/2/5 399/2/5 402/2/5
f 404/2/5 401/2/5 400/2/5
f 405/2/5 401/2/5 404/2/5
f 410/2/5 407/2/5 406/2/5
f 411/2/5 407/2/5 410/2/5
f 412/2/5 409/2/5 408/2/5
f 413/2/5 409/2/5 412/2/5
f 418/2/5 415/2/5 414/2/5
f 419/2/5 415/2/5 418/2/5
f 420/2/5 417/2/5 416/2/5
f 421/2/5 417/2/5 420/2/5
f 426/2/5 423/2/5 422/2/5
f 427/2/5 423/2/5 426/2/5
f 428/2/5 425/2/5 424/2/5
f 429/2/5 425/2/5 428/2/5
f 434/2/5 431/2/5 430/2/5
f 435/2/5 431/2/5 434/2/5
f 436/2/5 433/2/5 432/2/5
f 437/2/5 433/2/5 436/2/5
f 442/2/5 439/2/5 438/2/5
f 443/2/5 439/2/5 442/2/5
f 444/2/5 441/2/5 440/2/5
f 445/2/5 441/2/5 444/2/5
f 452/1/5 447/1/5 446/1/5
f 453/1/5 447/1/5 452/1/5
f 454/1/5 449/1/5 448/1/5
f 455/1/5 449/1/5 454/1/5
f 458/1/5 451/1/5 450/1/5
f 459/1/5 451/1/5 458/1/5
f 460/1/5 457/1/5 456/1/5
f 461/1/5 457/1/5 460/1/5
f 462/1/5 458/1/5 450/1/5
f 463/1/5 457/1/5 461/1/5
f 464/1/5 457/1/5 463/1/5
f 465/1/5 458/1/5 462/1/5
f 468/1/5 458/1/5 465/1/5
f 469/1/5 467/1/5 466/1/5
f 470/1/5 468/1/5 465/1/5
f 470/1/5 469/1/5 468/1/5
f 471/1/5 469/1/5 470/1/5
f 472/1/5 469/1/5 471/1/5
f 473/1/5 469/1/5 472/1/5
f 474/1/5 469/1/5 473/1/5
f 475/1/5 467/1/5 469/1/5
f 475/1/5 469/1/5 474/1/5
f 476/2/5 472/2/5 471/2/5
f 477/2/5 472/2/5 476/2/5
f 478/2/5 474/2/5 473/2/5
f 479/2/5 474/2/5 478/2/5
f 482/2/5 481/2/5 480/2/5
f 483/2/5 481/2/5 482/2/5
f 488/2/5 485/2/5 484/2/5
f 489/1/5 486/1/5 485/1/5
f 489/2/5 485/2/5 488/2/5
f 490/2/5 487/2/5 486/2/5
f 490/1/5 486/1/5 489/1/5
f 491/2/5 487/2/5 490/2/5
f 492/2/5 487/2/5 491/2/5
f 495/2/5 494/2/5 493/2/5
f 496/2/5 494/2/5 495/2/5
f 497/1/6 498/1/6 501/1/6
f 498/2/6 499/2/6 502/2/6
f 501/1/6 498/1/6 502/1/6
f 499/1/6 500/1/6 503/1/6
f 502/2/6 499/2/6 503/2/6
f 503/1/6 500/1/6 504/1/6
f 505/1/6 506/1/6 507/1/6
f 507/1/6 506/1/6 508/1/6
f 511/1/6 512/1/6 513/1/6
f 513/1/6 512/1/6 514/1/6
f 514/1/6 512/1/6 515/1/6
f 515/1/6 512/1/6 516/1/6
f 509/1/6 510/1/6 517/1/6
f 517/1/6 510/1/6 518/1/6
f 514/2/6 515/2/6 519/2/6
f 519/2/6 515/2/6 520/2/6
f 521/2/6 522/2/6 523/2/6
f 523/2/6 522/2/6 524/2/6
f 521/2/6 523/2/6 526/2/6
f 524/2/6 522/2/6 529/2/6
f 527/2/6 528/2/6 531/2/6
f 531/2/6 528/2/6 532/2/6
f 525/2/6 526/2/6 533/2/6
f 526/2/6 523/2/6 534/2/6
f 533/2/6 526/2/6 534/2/6
f 534/2/6 523/2/6 535/2/6
f 529/2/6 530/2/6 538/2/6
f 524/2/6 529/2/6 538/2/6
f 538/2/6 530/2/6 539/2/6
f 539/2/6 530/2/6 540/2/6
f 535/2/6 536/2/6 541/2/6
f 534/2/6 535/2/6 541/2/6
f 541/2/6 536/2/6 542/2/6
f 538/2/6 539/2/6 543/2/6
f 537/2/6 538/2/6 543/2/6
f 543/2/6 539/2/6 544/2/6
f 534/2/6 541/2/6 545/2/6
f 545/2/6 541/2/6 546/2/6
f 544/2/6 539/2/6 547/2/6
f 547/2/6 539/2/6 548/2/6
f 549/2/6 550/2/6 553/2/6
f 553/2/6 550/2/6 554/2/6
f 551/2/6 552/2/6 557/2/6
f 557/2/6 552/2/6 558/2/6
f 555/2/6 556/2/6 559/2/6
f 559/2/6 556/2/6 560/2/6
f 561/2/6 562/2/6 563/2/6
f 563/2/6 562/2/6 564/2/6
