# MagicaVoxel @ ephtracy

# material
mtllib body1.mtl
usemtl palette

# normals
vn -1 0 0
vn 1 0 0
vn 0 0 1
vn 0 0 -1
vn 0 -1 0
vn 0 1 0

# texcoords
vt 0.982422 0.5
vt 0.986328 0.5

# verts
v -7.5 5 0.5
v -7.5 5 -2.5
v -7.5 10 0.5
v -7.5 10 -2.5
v -6.5 2 1.5
v -6.5 2 -1.5
v -6.5 3 -1.5
v -6.5 3 -3.5
v -6.5 4 2.5
v -6.5 4 1.5
v -6.5 4 -3.5
v -6.5 4 -4.5
v -6.5 5 0.5
v -6.5 5 -2.5
v -6.5 6 3.5
v -6.5 6 2.5
v -6.5 7 1.5
v -6.5 7 0.5
v -6.5 8 -3.5
v -6.5 8 -4.5
v -6.5 9 3.5
v -6.5 9 2.5
v -6.5 10 1.5
v -6.5 10 0.5
v -6.5 10 -2.5
v -6.5 11 2.5
v -6.5 11 -3.5
v -5.5 0 0.5
v -5.5 0 -2.5
v -5.5 1 0.5
v -5.5 1 -2.5
v -5.5 3 2.5
v -5.5 3 1.5
v -5.5 4 2.5
v -5.5 4 1.5
v -5.5 7 1.5
v -5.5 7 0.5
v -5.5 9 3.5
v -5.5 9 2.5
v -5.5 10 3.5
v -5.5 10 2.5
v -5.5 10 1.5
v -5.5 10 0.5
v -4.5 1 1.5
v -4.5 1 0.5
v -4.5 1 -2.5
v -4.5 2 1.5
v -4.5 2 -1.5
v -4.5 3 -1.5
v -4.5 3 -2.5
v -4.5 8 -3.5
v -4.5 8 -4.5
v -4.5 11 -3.5
v -4.5 11 -4.5
v -3.5 3 -3.5
v -3.5 3 -4.5
v -3.5 4 3.5
v -3.5 4 2.5
v -3.5 4 -3.5
v -3.5 4 -4.5
v -3.5 6 3.5
v -3.5 6 2.5
v -3.5 10 3.5
v -3.5 10 2.5
v -3.5 11 3.5
v -3.5 11 2.5
v -2.5 3 3.5
v -2.5 3 2.5
v -2.5 4 3.5
v -2.5 4 2.5
v -1.5 0 -2.5
v -1.5 0 -3.5
v -1.5 1 4.5
v -1.5 1 1.5
v -1.5 1 -2.5
v -1.5 1 -3.5
v -1.5 3 3.5
v -1.5 3 1.5
v -1.5 8 4.5
v -1.5 8 3.5
v 1.5 0 0.5
v 1.5 0 -1.5
v 1.5 1 0.5
v 1.5 1 -1.5
v 1.5 3 1.5
v 1.5 3 -2.5
v 1.5 4 1.5
v 1.5 4 -2.5
v -1.5 0 0.5
v -1.5 0 -1.5
v -1.5 1 0.5
v -1.5 1 -1.5
v -1.5 3 1.5
v -1.5 3 -2.5
v -1.5 4 1.5
v -1.5 4 -2.5
v 1.5 0 -2.5
v 1.5 0 -3.5
v 1.5 1 4.5
v 1.5 1 1.5
v 1.5 1 -2.5
v 1.5 1 -3.5
v 1.5 3 3.5
v 1.5 3 1.5
v 1.5 8 4.5
v 1.5 8 3.5
v 2.5 3 3.5
v 2.5 3 2.5
v 2.5 4 3.5
v 2.5 4 2.5
v 3.5 3 -3.5
v 3.5 3 -4.5
v 3.5 4 3.5
v 3.5 4 2.5
v 3.5 4 -3.5
v 3.5 4 -4.5
v 3.5 6 3.5
v 3.5 6 2.5
v 3.5 10 3.5
v 3.5 10 2.5
v 3.5 11 3.5
v 3.5 11 2.5
v 4.5 1 1.5
v 4.5 1 0.5
v 4.5 1 -2.5
v 4.5 2 1.5
v 4.5 2 -1.5
v 4.5 3 -1.5
v 4.5 3 -2.5
v 4.5 8 -3.5
v 4.5 8 -4.5
v 4.5 11 -3.5
v 4.5 11 -4.5
v 5.5 0 0.5
v 5.5 0 -2.5
v 5.5 1 0.5
v 5.5 1 -2.5
v 5.5 3 2.5
v 5.5 3 1.5
v 5.5 4 2.5
v 5.5 4 1.5
v 5.5 7 1.5
v 5.5 7 0.5
v 5.5 9 3.5
v 5.5 9 2.5
v 5.5 10 3.5
v 5.5 10 2.5
v 5.5 10 1.5
v 5.5 10 0.5
v 6.5 2 1.5
v 6.5 2 -1.5
v 6.5 3 -1.5
v 6.5 3 -3.5
v 6.5 4 2.5
v 6.5 4 1.5
v 6.5 4 -3.5
v 6.5 4 -4.5
v 6.5 5 0.5
v 6.5 5 -2.5
v 6.5 6 3.5
v 6.5 6 2.5
v 6.5 7 1.5
v 6.5 7 0.5
v 6.5 8 -3.5
v 6.5 8 -4.5
v 6.5 9 3.5
v 6.5 9 2.5
v 6.5 10 1.5
v 6.5 10 0.5
v 6.5 10 -2.5
v 6.5 11 2.5
v 6.5 11 -3.5
v 7.5 5 0.5
v 7.5 5 -2.5
v 7.5 10 0.5
v 7.5 10 -2.5
v -1.5 1 4.5
v -1.5 8 4.5
v 1.5 1 4.5
v 1.5 8 4.5
v -6.5 6 3.5
v -6.5 9 3.5
v -5.5 6 3.5
v -5.5 9 3.5
v -5.5 10 3.5
v -3.5 4 3.5
v -3.5 6 3.5
v -3.5 10 3.5
v -3.5 11 3.5
v -2.5 3 3.5
v -2.5 4 3.5
v -1.5 3 3.5
v -1.5 8 3.5
v 1.5 3 3.5
v 1.5 8 3.5
v 2.5 3 3.5
v 2.5 4 3.5
v 3.5 4 3.5
v 3.5 6 3.5
v 3.5 10 3.5
v 3.5 11 3.5
v 5.5 6 3.5
v 5.5 9 3.5
v 5.5 10 3.5
v 6.5 6 3.5
v 6.5 9 3.5
v -6.5 4 2.5
v -6.5 6 2.5
v -6.5 9 2.5
v -6.5 11 2.5
v -5.5 3 2.5
v -5.5 4 2.5
v -5.5 6 2.5
v -5.5 9 2.5
v -5.5 10 2.5
v -5.5 11 2.5
v -3.5 4 2.5
v -3.5 6 2.5
v -3.5 10 2.5
v -3.5 11 2.5
v -2.5 3 2.5
v -2.5 4 2.5
v 2.5 3 2.5
v 2.5 4 2.5
v 3.5 4 2.5
v 3.5 6 2.5
v 3.5 10 2.5
v 3.5 11 2.5
v 5.5 3 2.5
v 5.5 4 2.5
v 5.5 6 2.5
v 5.5 9 2.5
v 5.5 10 2.5
v 5.5 11 2.5
v 6.5 4 2.5
v 6.5 6 2.5
v 6.5 9 2.5
v 6.5 11 2.5
v -6.5 2 1.5
v -6.5 4 1.5
v -5.5 2 1.5
v -5.5 3 1.5
v -5.5 4 1.5
v -4.5 1 1.5
v -4.5 2 1.5
v -1.5 1 1.5
v -1.5 3 1.5
v 1.5 1 1.5
v 1.5 3 1.5
v 4.5 1 1.5
v 4.5 2 1.5
v 5.5 2 1.5
v 5.5 3 1.5
v 5.5 4 1.5
v 6.5 2 1.5
v 6.5 4 1.5
v -7.5 5 0.5
v -7.5 10 0.5
v -6.5 5 0.5
v -6.5 7 0.5
v -6.5 10 0.5
v -5.5 0 0.5
v -5.5 1 0.5
v -5.5 7 0.5
v -5.5 10 0.5
v -4.5 1 0.5
v -1.5 0 0.5
v -1.5 1 0.5
v 1.5 0 0.5
v 1.5 1 0.5
v 4.5 1 0.5
v 5.5 0 0.5
v 5.5 1 0.5
v 5.5 7 0.5
v 5.5 10 0.5
v 6.5 5 0.5
v 6.5 7 0.5
v 6.5 10 0.5
v 7.5 5 0.5
v 7.5 10 0.5
v -1.5 0 -1.5
v -1.5 1 -1.5
v 1.5 0 -1.5
v 1.5 1 -1.5
v -1.5 3 -2.5
v -1.5 4 -2.5
v 1.5 3 -2.5
v 1.5 4 -2.5
v -6.5 7 1.5
v -6.5 10 1.5
v -5.5 7 1.5
v -5.5 10 1.5
v -1.5 3 1.5
v -1.5 4 1.5
v 1.5 3 1.5
v 1.5 4 1.5
v 5.5 7 1.5
v 5.5 10 1.5
v 6.5 7 1.5
v 6.5 10 1.5
v -6.5 2 -1.5
v -6.5 3 -1.5
v -5.5 2 -1.5
v -5.5 3 -1.5
v -4.5 2 -1.5
v -4.5 3 -1.5
v 4.5 2 -1.5
v 4.5 3 -1.5
v 5.5 2 -1.5
v 5.5 3 -1.5
v 6.5 2 -1.5
v 6.5 3 -1.5
v -7.5 5 -2.5
v -7.5 10 -2.5
v -6.5 5 -2.5
v -6.5 10 -2.5
v -5.5 0 -2.5
v -5.5 1 -2.5
v -4.5 1 -2.5
v -4.5 3 -2.5
v -1.5 0 -2.5
v -1.5 1 -2.5
v 1.5 0 -2.5
v 1.5 1 -2.5
v 4.5 1 -2.5
v 4.5 3 -2.5
v 5.5 0 -2.5
v 5.5 1 -2.5
v 6.5 5 -2.5
v 6.5 10 -2.5
v 7.5 5 -2.5
v 7.5 10 -2.5
v -6.5 3 -3.5
v -6.5 4 -3.5
v -6.5 8 -3.5
v -6.5 11 -3.5
v -5.5 3 -3.5
v -5.5 4 -3.5
v -5.5 8 -3.5
v -5.5 11 -3.5
v -4.5 8 -3.5
v -4.5 11 -3.5
v -3.5 3 -3.5
v -3.5 4 -3.5
v -1.5 0 -3.5
v -1.5 1 -3.5
v 1.5 0 -3.5
v 1.5 1 -3.5
v 3.5 3 -3.5
v 3.5 4 -3.5
v 4.5 8 -3.5
v 4.5 11 -3.5
v 5.5 3 -3.5
v 5.5 4 -3.5
v 5.5 8 -3.5
v 5.5 11 -3.5
v 6.5 3 -3.5
v 6.5 4 -3.5
v 6.5 8 -3.5
v 6.5 11 -3.5
v -6.5 4 -4.5
v -6.5 8 -4.5
v -5.5 4 -4.5
v -5.5 8 -4.5
v -4.5 8 -4.5
v -4.5 11 -4.5
v -3.5 3 -4.5
v -3.5 4 -4.5
v 3.5 3 -4.5
v 3.5 4 -4.5
v 4.5 8 -4.5
v 4.5 11 -4.5
v 5.5 4 -4.5
v 5.5 8 -4.5
v 6.5 4 -4.5
v 6.5 8 -4.5
v -5.5 0 0.5
v -1.5 0 0.5
v 1.5 0 0.5
v 5.5 0 0.5
v -1.5 0 -1.5
v 1.5 0 -1.5
v -5.5 0 -2.5
v -1.5 0 -2.5
v 1.5 0 -2.5
v 5.5 0 -2.5
v -1.5 0 -3.5
v 1.5 0 -3.5
v -1.5 1 4.5
v 1.5 1 4.5
v -4.5 1 1.5
v -1.5 1 1.5
v 1.5 1 1.5
v 4.5 1 1.5
v -4.5 1 0.5
v -1.5 1 0.5
v 1.5 1 0.5
v 4.5 1 0.5
v -1.5 1 -1.5
v 1.5 1 -1.5
v -6.5 2 1.5
v -5.5 2 1.5
v -4.5 2 1.5
v 4.5 2 1.5
v 5.5 2 1.5
v 6.5 2 1.5
v -6.5 2 -1.5
v -5.5 2 -1.5
v -4.5 2 -1.5
v 4.5 2 -1.5
v 5.5 2 -1.5
v 6.5 2 -1.5
v -2.5 3 3.5
v -1.5 3 3.5
v 1.5 3 3.5
v 2.5 3 3.5
v -5.5 3 2.5
v -2.5 3 2.5
v 2.5 3 2.5
v 5.5 3 2.5
v -5.5 3 1.5
v -1.5 3 1.5
v 1.5 3 1.5
v 5.5 3 1.5
v -6.5 3 -1.5
v -5.5 3 -1.5
v -4.5 3 -1.5
v 4.5 3 -1.5
v 5.5 3 -1.5
v 6.5 3 -1.5
v -4.5 3 -2.5
v 4.5 3 -2.5
v -6.5 3 -3.5
v -5.5 3 -3.5
v -3.5 3 -3.5
v 3.5 3 -3.5
v 5.5 3 -3.5
v 6.5 3 -3.5
v -3.5 3 -4.5
v 3.5 3 -4.5
v -3.5 4 3.5
v -2.5 4 3.5
v 2.5 4 3.5
v 3.5 4 3.5
v -6.5 4 2.5
v -5.5 4 2.5
v -3.5 4 2.5
v -2.5 4 2.5
v 2.5 4 2.5
v 3.5 4 2.5
v 5.5 4 2.5
v 6.5 4 2.5
v -6.5 4 1.5
v -5.5 4 1.5
v -1.5 4 1.5
v 1.5 4 1.5
v 5.5 4 1.5
v 6.5 4 1.5
v -1.5 4 -2.5
v 1.5 4 -2.5
v -6.5 4 -3.5
v -5.5 4 -3.5
v -3.5 4 -3.5
v 3.5 4 -3.5
v 5.5 4 -3.5
v 6.5 4 -3.5
v -6.5 4 -4.5
v -5.5 4 -4.5
v -3.5 4 -4.5
v 3.5 4 -4.5
v 5.5 4 -4.5
v 6.5 4 -4.5
v -7.5 5 0.5
v -6.5 5 0.5
v 6.5 5 0.5
v 7.5 5 0.5
v -7.5 5 -2.5
v -6.5 5 -2.5
v 6.5 5 -2.5
v 7.5 5 -2.5
v -6.5 6 3.5
v -5.5 6 3.5
v -3.5 6 3.5
v 3.5 6 3.5
v 5.5 6 3.5
v 6.5 6 3.5
v -6.5 6 2.5
v -5.5 6 2.5
v -3.5 6 2.5
v 3.5 6 2.5
v 5.5 6 2.5
v 6.5 6 2.5
v -6.5 10 1.5
v -5.5 10 1.5
v 5.5 10 1.5
v 6.5 10 1.5
v -6.5 10 0.5
v -5.5 10 0.5
v 5.5 10 0.5
v 6.5 10 0.5
v -5.5 1 0.5
v -4.5 1 0.5
v 4.5 1 0.5
v 5.5 1 0.5
v -5.5 1 -2.5
v -4.5 1 -2.5
v -1.5 1 -2.5
v 1.5 1 -2.5
v 4.5 1 -2.5
v 5.5 1 -2.5
v -1.5 1 -3.5
v 1.5 1 -3.5
v -1.5 3 1.5
v 1.5 3 1.5
v -1.5 3 -2.5
v 1.5 3 -2.5
v -6.5 7 1.5
v -5.5 7 1.5
v 5.5 7 1.5
v 6.5 7 1.5
v -6.5 7 0.5
v -5.5 7 0.5
v 5.5 7 0.5
v 6.5 7 0.5
v -1.5 8 4.5
v 1.5 8 4.5
v -1.5 8 3.5
v 1.5 8 3.5
v -6.5 8 -3.5
v -5.5 8 -3.5
v -4.5 8 -3.5
v 4.5 8 -3.5
v 5.5 8 -3.5
v 6.5 8 -3.5
v -6.5 8 -4.5
v -5.5 8 -4.5
v -4.5 8 -4.5
v 4.5 8 -4.5
v 5.5 8 -4.5
v 6.5 8 -4.5
v -6.5 9 3.5
v -5.5 9 3.5
v 5.5 9 3.5
v 6.5 9 3.5
v -6.5 9 2.5
v -5.5 9 2.5
v 5.5 9 2.5
v 6.5 9 2.5
v -5.5 10 3.5
v -3.5 10 3.5
v 3.5 10 3.5
v 5.5 10 3.5
v -5.5 10 2.5
v -3.5 10 2.5
v 3.5 10 2.5
v 5.5 10 2.5
v -7.5 10 0.5
v -6.5 10 0.5
v 6.5 10 0.5
v 7.5 10 0.5
v -7.5 10 -2.5
v -6.5 10 -2.5
v 6.5 10 -2.5
v 7.5 10 -2.5
v -3.5 11 3.5
v 3.5 11 3.5
v -6.5 11 2.5
v -5.5 11 2.5
v -3.5 11 2.5
v 3.5 11 2.5
v 5.5 11 2.5
v 6.5 11 2.5
v -6.5 11 -3.5
v -5.5 11 -3.5
v -4.5 11 -3.5
v 4.5 11 -3.5
v 5.5 11 -3.5
v 6.5 11 -3.5
v -4.5 11 -4.5
v 4.5 11 -4.5

# faces
f 3/2/1 2/2/1 1/2/1
f 4/2/1 2/2/1 3/2/1
f 7/1/1 6/1/1 5/1/1
f 10/1/1 7/1/1 5/1/1
f 10/1/1 8/1/1 7/1/1
f 11/1/1 8/1/1 10/1/1
f 13/1/1 10/1/1 9/1/1
f 13/1/1 12/1/1 11/1/1
f 13/1/1 11/1/1 10/1/1
f 14/1/1 12/1/1 13/1/1
f 16/1/1 13/1/1 9/1/1
f 17/1/1 13/1/1 16/1/1
f 17/1/1 16/1/1 15/1/1
f 18/1/1 13/1/1 17/1/1
f 19/1/1 12/1/1 14/1/1
f 20/1/1 12/1/1 19/1/1
f 21/1/1 17/1/1 15/1/1
f 22/1/1 17/1/1 21/1/1
f 23/1/1 17/1/1 22/1/1
f 25/1/1 19/1/1 14/1/1
f 26/1/1 24/1/1 23/1/1
f 26/1/1 25/1/1 24/1/1
f 26/1/1 23/1/1 22/1/1
f 27/1/1 19/1/1 25/1/1
f 27/1/1 25/1/1 26/1/1
f 30/2/1 29/2/1 28/2/1
f 31/2/1 29/2/1 30/2/1
f 34/2/1 33/2/1 32/2/1
f 35/2/1 33/2/1 34/2/1
f 40/2/1 39/2/1 38/2/1
f 41/2/1 39/2/1 40/2/1
f 42/2/1 37/2/1 36/2/1
f 43/2/1 37/2/1 42/2/1
f 47/2/1 45/2/1 44/2/1
f 47/2/1 46/2/1 45/2/1
f 48/2/1 46/2/1 47/2/1
f 49/2/1 46/2/1 48/2/1
f 50/2/1 46/2/1 49/2/1
f 53/2/1 52/2/1 51/2/1
f 54/2/1 52/2/1 53/2/1
f 59/2/1 56/2/1 55/2/1
f 60/2/1 56/2/1 59/2/1
f 61/2/1 58/2/1 57/2/1
f 62/2/1 58/2/1 61/2/1
f 65/2/1 64/2/1 63/2/1
f 66/2/1 64/2/1 65/2/1
f 69/2/1 68/2/1 67/2/1
f 70/2/1 68/2/1 69/2/1
f 75/2/1 72/2/1 71/2/1
f 76/2/1 72/2/1 75/2/1
f 77/1/1 74/1/1 73/1/1
f 78/1/1 74/1/1 77/1/1
f 79/1/1 77/1/1 73/1/1
f 80/1/1 77/1/1 79/1/1
f 83/2/1 82/2/1 81/2/1
f 84/2/1 82/2/1 83/2/1
f 87/2/1 86/2/1 85/2/1
f 88/2/1 86/2/1 87/2/1
f 89/2/2 90/2/2 91/2/2
f 91/2/2 90/2/2 92/2/2
f 93/2/2 94/2/2 95/2/2
f 95/2/2 94/2/2 96/2/2
f 97/2/2 98/2/2 101/2/2
f 101/2/2 98/2/2 102/2/2
f 99/1/2 100/1/2 103/1/2
f 103/1/2 100/1/2 104/1/2
f 99/1/2 103/1/2 105/1/2
f 105/1/2 103/1/2 106/1/2
f 107/2/2 108/2/2 109/2/2
f 109/2/2 108/2/2 110/2/2
f 111/2/2 112/2/2 115/2/2
f 115/2/2 112/2/2 116/2/2
f 113/2/2 114/2/2 117/2/2
f 117/2/2 114/2/2 118/2/2
f 119/2/2 120/2/2 121/2/2
f 121/2/2 120/2/2 122/2/2
f 123/2/2 124/2/2 126/2/2
f 124/2/2 125/2/2 126/2/2
f 126/2/2 125/2/2 127/2/2
f 127/2/2 125/2/2 128/2/2
f 128/2/2 125/2/2 129/2/2
f 130/2/2 131/2/2 132/2/2
f 132/2/2 131/2/2 133/2/2
f 134/2/2 135/2/2 136/2/2
f 136/2/2 135/2/2 137/2/2
f 138/2/2 139/2/2 140/2/2
f 140/2/2 139/2/2 141/2/2
f 144/2/2 145/2/2 146/2/2
f 146/2/2 145/2/2 147/2/2
f 142/2/2 143/2/2 148/2/2
f 148/2/2 143/2/2 149/2/2
f 150/1/2 151/1/2 152/1/2
f 150/1/2 152/1/2 155/1/2
f 152/1/2 153/1/2 155/1/2
f 155/1/2 153/1/2 156/1/2
f 154/1/2 155/1/2 158/1/2
f 156/1/2 157/1/2 158/1/2
f 155/1/2 156/1/2 158/1/2
f 158/1/2 157/1/2 159/1/2
f 154/1/2 158/1/2 161/1/2
f 161/1/2 158/1/2 162/1/2
f 160/1/2 161/1/2 162/1/2
f 162/1/2 158/1/2 163/1/2
f 159/1/2 157/1/2 164/1/2
f 164/1/2 157/1/2 165/1/2
f 160/1/2 162/1/2 166/1/2
f 166/1/2 162/1/2 167/1/2
f 167/1/2 162/1/2 168/1/2
f 159/1/2 164/1/2 170/1/2
f 168/1/2 169/1/2 171/1/2
f 169/1/2 170/1/2 171/1/2
f 167/1/2 168/1/2 171/1/2
f 170/1/2 164/1/2 172/1/2
f 171/1/2 170/1/2 172/1/2
f 173/2/2 174/2/2 175/2/2
f 175/2/2 174/2/2 176/2/2
f 179/1/3 178/1/3 177/1/3
f 180/1/3 178/1/3 179/1/3
f 183/1/3 182/1/3 181/1/3
f 184/1/3 182/1/3 183/1/3
f 187/2/3 184/2/3 183/2/3
f 187/2/3 185/2/3 184/2/3
f 188/2/3 185/2/3 187/2/3
f 191/2/3 187/2/3 186/2/3
f 191/2/3 189/2/3 188/2/3
f 191/2/3 188/2/3 187/2/3
f 192/2/3 191/2/3 190/2/3
f 193/2/3 189/2/3 191/2/3
f 193/2/3 191/2/3 192/2/3
f 195/2/3 189/2/3 193/2/3
f 196/2/3 195/2/3 194/2/3
f 197/2/3 195/2/3 196/2/3
f 198/2/3 195/2/3 197/2/3
f 199/2/3 195/2/3 198/2/3
f 200/2/3 189/2/3 195/2/3
f 200/2/3 195/2/3 199/2/3
f 201/2/3 189/2/3 200/2/3
f 202/2/3 200/2/3 199/2/3
f 203/2/3 200/2/3 202/2/3
f 204/2/3 200/2/3 203/2/3
f 205/1/3 203/1/3 202/1/3
f 206/1/3 203/1/3 205/1/3
f 212/1/3 208/1/3 207/1/3
f 213/1/3 208/1/3 212/1/3
f 214/1/3 210/1/3 209/1/3
f 215/1/3 210/1/3 214/1/3
f 216/1/3 210/1/3 215/1/3
f 217/2/3 213/2/3 212/2/3
f 217/2/3 212/2/3 211/2/3
f 218/2/3 213/2/3 217/2/3
f 219/2/3 216/2/3 215/2/3
f 220/2/3 216/2/3 219/2/3
f 221/2/3 217/2/3 211/2/3
f 222/2/3 217/2/3 221/2/3
f 225/2/3 224/2/3 223/2/3
f 229/2/3 225/2/3 223/2/3
f 229/2/3 226/2/3 225/2/3
f 230/2/3 226/2/3 229/2/3
f 231/2/3 226/2/3 230/2/3
f 233/2/3 228/2/3 227/2/3
f 234/2/3 228/2/3 233/2/3
f 235/1/3 231/1/3 230/1/3
f 236/1/3 231/1/3 235/1/3
f 237/1/3 234/1/3 233/1/3
f 237/1/3 233/1/3 232/1/3
f 238/1/3 234/1/3 237/1/3
f 241/1/3 240/1/3 239/1/3
f 242/1/3 240/1/3 241/1/3
f 243/1/3 240/1/3 242/1/3
f 245/2/3 242/2/3 241/2/3
f 246/2/3 245/2/3 244/2/3
f 247/2/3 242/2/3 245/2/3
f 247/2/3 245/2/3 246/2/3
f 250/2/3 249/2/3 248/2/3
f 251/2/3 249/2/3 250/2/3
f 252/2/3 249/2/3 251/2/3
f 253/2/3 249/2/3 252/2/3
f 255/1/3 253/1/3 252/1/3
f 255/1/3 254/1/3 253/1/3
f 256/1/3 254/1/3 255/1/3
f 259/2/3 258/2/3 257/2/3
f 260/2/3 258/2/3 259/2/3
f 261/2/3 258/2/3 260/2/3
f 264/2/3 261/2/3 260/2/3
f 265/2/3 261/2/3 264/2/3
f 266/2/3 263/2/3 262/2/3
f 267/2/3 266/2/3 262/2/3
f 268/2/3 266/2/3 267/2/3
f 271/2/3 270/2/3 269/2/3
f 272/2/3 271/2/3 269/2/3
f 273/2/3 271/2/3 272/2/3
f 277/2/3 275/2/3 274/2/3
f 278/2/3 275/2/3 277/2/3
f 279/2/3 277/2/3 276/2/3
f 279/2/3 278/2/3 277/2/3
f 280/2/3 278/2/3 279/2/3
f 283/2/3 282/2/3 281/2/3
f 284/2/3 282/2/3 283/2/3
f 287/2/3 286/2/3 285/2/3
f 288/2/3 286/2/3 287/2/3
f 289/1/4 290/1/4 291/1/4
f 291/1/4 290/1/4 292/1/4
f 293/2/4 294/2/4 295/2/4
f 295/2/4 294/2/4 296/2/4
f 297/1/4 298/1/4 299/1/4
f 299/1/4 298/1/4 300/1/4
f 301/1/4 302/1/4 303/1/4
f 303/1/4 302/1/4 304/1/4
f 303/2/4 304/2/4 305/2/4
f 305/2/4 304/2/4 306/2/4
f 307/2/4 308/2/4 309/2/4
f 309/2/4 308/2/4 310/2/4
f 309/1/4 310/1/4 311/1/4
f 311/1/4 310/1/4 312/1/4
f 313/2/4 314/2/4 315/2/4
f 315/2/4 314/2/4 316/2/4
f 317/2/4 318/2/4 319/2/4
f 317/2/4 319/2/4 321/2/4
f 319/2/4 320/2/4 321/2/4
f 321/2/4 320/2/4 322/2/4
f 322/2/4 320/2/4 324/2/4
f 324/2/4 320/2/4 325/2/4
f 323/2/4 324/2/4 325/2/4
f 325/2/4 320/2/4 326/2/4
f 323/2/4 325/2/4 327/2/4
f 327/2/4 325/2/4 328/2/4
f 329/2/4 330/2/4 331/2/4
f 331/2/4 330/2/4 332/2/4
f 333/1/4 334/1/4 337/1/4
f 337/1/4 334/1/4 338/1/4
f 335/1/4 336/1/4 339/1/4
f 339/1/4 336/1/4 340/1/4
f 339/2/4 340/2/4 341/2/4
f 341/2/4 340/2/4 342/2/4
f 337/2/4 338/2/4 343/2/4
f 343/2/4 338/2/4 344/2/4
f 345/2/4 346/2/4 347/2/4
f 347/2/4 346/2/4 348/2/4
f 349/2/4 350/2/4 353/2/4
f 353/2/4 350/2/4 354/2/4
f 351/2/4 352/2/4 355/2/4
f 355/2/4 352/2/4 356/2/4
f 353/1/4 354/1/4 357/1/4
f 357/1/4 354/1/4 358/1/4
f 355/1/4 356/1/4 359/1/4
f 359/1/4 356/1/4 360/1/4
f 361/1/4 362/1/4 363/1/4
f 363/1/4 362/1/4 364/1/4
f 363/2/4 364/2/4 365/2/4
f 363/2/4 365/2/4 368/2/4
f 365/2/4 366/2/4 368/2/4
f 367/2/4 368/2/4 369/2/4
f 368/2/4 366/2/4 370/2/4
f 369/2/4 368/2/4 370/2/4
f 370/2/4 366/2/4 371/2/4
f 371/2/4 366/2/4 372/2/4
f 370/2/4 371/2/4 373/2/4
f 373/2/4 371/2/4 374/2/4
f 373/1/4 374/1/4 375/1/4
f 375/1/4 374/1/4 376/1/4
f 381/2/5 378/2/5 377/2/5
f 382/2/5 380/2/5 379/2/5
f 383/2/5 381/2/5 377/2/5
f 383/2/5 382/2/5 381/2/5
f 384/2/5 382/2/5 383/2/5
f 385/2/5 380/2/5 382/2/5
f 385/2/5 382/2/5 384/2/5
f 386/2/5 380/2/5 385/2/5
f 387/2/5 385/2/5 384/2/5
f 388/2/5 385/2/5 387/2/5
f 392/1/5 390/1/5 389/1/5
f 393/1/5 390/1/5 392/1/5
f 395/2/5 392/2/5 391/2/5
f 395/2/5 394/2/5 393/2/5
f 395/2/5 393/2/5 392/2/5
f 396/2/5 394/2/5 395/2/5
f 397/2/5 394/2/5 396/2/5
f 398/2/5 394/2/5 397/2/5
f 399/2/5 397/2/5 396/2/5
f 400/2/5 397/2/5 399/2/5
f 407/1/5 402/1/5 401/1/5
f 408/2/5 403/2/5 402/2/5
f 408/1/5 402/1/5 407/1/5
f 409/2/5 403/2/5 408/2/5
f 410/2/5 405/2/5 404/2/5
f 411/1/5 406/1/5 405/1/5
f 411/2/5 405/2/5 410/2/5
f 412/1/5 406/1/5 411/1/5
f 418/2/5 414/2/5 413/2/5
f 419/2/5 416/2/5 415/2/5
f 421/2/5 418/2/5 417/2/5
f 422/2/5 414/2/5 418/2/5
f 422/2/5 418/2/5 421/2/5
f 423/2/5 420/2/5 419/2/5
f 423/2/5 419/2/5 415/2/5
f 424/2/5 420/2/5 423/2/5
f 431/2/5 427/2/5 426/2/5
f 432/2/5 429/2/5 428/2/5
f 433/1/5 426/1/5 425/1/5
f 434/2/5 431/2/5 426/2/5
f 434/1/5 426/1/5 433/1/5
f 434/2/5 432/2/5 431/2/5
f 435/2/5 432/2/5 434/2/5
f 436/2/5 432/2/5 435/2/5
f 437/2/5 429/2/5 432/2/5
f 437/2/5 432/2/5 436/2/5
f 437/1/5 430/1/5 429/1/5
f 438/1/5 430/1/5 437/1/5
f 439/2/5 436/2/5 435/2/5
f 440/2/5 436/2/5 439/2/5
f 447/2/5 442/2/5 441/2/5
f 448/2/5 442/2/5 447/2/5
f 449/2/5 444/2/5 443/2/5
f 450/2/5 444/2/5 449/2/5
f 453/1/5 446/1/5 445/1/5
f 454/1/5 446/1/5 453/1/5
f 457/1/5 452/1/5 451/1/5
f 458/1/5 452/1/5 457/1/5
f 459/2/5 456/2/5 455/2/5
f 460/2/5 456/2/5 459/2/5
f 467/1/5 462/1/5 461/1/5
f 468/2/5 463/2/5 462/2/5
f 468/1/5 462/1/5 467/1/5
f 469/2/5 463/2/5 468/2/5
f 470/2/5 465/2/5 464/2/5
f 471/1/5 466/1/5 465/1/5
f 471/2/5 465/2/5 470/2/5
f 472/1/5 466/1/5 471/1/5
f 477/2/5 474/2/5 473/2/5
f 478/2/5 474/2/5 477/2/5
f 479/2/5 476/2/5 475/2/5
f 480/2/5 476/2/5 479/2/5
f 487/1/5 482/1/5 481/1/5
f 488/2/5 483/2/5 482/2/5
f 488/1/5 482/1/5 487/1/5
f 489/2/5 483/2/5 488/2/5
f 490/2/5 485/2/5 484/2/5
f 491/1/5 486/1/5 485/1/5
f 491/2/5 485/2/5 490/2/5
f 492/1/5 486/1/5 491/1/5
f 497/1/5 494/1/5 493/1/5
f 498/1/5 494/1/5 497/1/5
f 499/1/5 496/1/5 495/1/5
f 500/1/5 496/1/5 499/1/5
f 501/2/6 502/2/6 505/2/6
f 505/2/6 502/2/6 506/2/6
f 503/2/6 504/2/6 509/2/6
f 509/2/6 504/2/6 510/2/6
f 507/2/6 508/2/6 511/2/6
f 511/2/6 508/2/6 512/2/6
f 513/2/6 514/2/6 515/2/6
f 515/2/6 514/2/6 516/2/6
f 517/1/6 518/1/6 521/1/6
f 521/1/6 518/1/6 522/1/6
f 519/1/6 520/1/6 523/1/6
f 523/1/6 520/1/6 524/1/6
f 525/1/6 526/1/6 527/1/6
f 527/1/6 526/1/6 528/1/6
f 529/1/6 530/1/6 535/1/6
f 530/2/6 531/2/6 536/2/6
f 535/1/6 530/1/6 536/1/6
f 536/2/6 531/2/6 537/2/6
f 532/2/6 533/2/6 538/2/6
f 533/1/6 534/1/6 539/1/6
f 538/2/6 533/2/6 539/2/6
f 539/1/6 534/1/6 540/1/6
f 541/1/6 542/1/6 545/1/6
f 545/1/6 542/1/6 546/1/6
f 543/1/6 544/1/6 547/1/6
f 547/1/6 544/1/6 548/1/6
f 549/2/6 550/2/6 553/2/6
f 553/2/6 550/2/6 554/2/6
f 551/2/6 552/2/6 555/2/6
f 555/2/6 552/2/6 556/2/6
f 557/2/6 558/2/6 561/2/6
f 561/2/6 558/2/6 562/2/6
f 559/2/6 560/2/6 563/2/6
f 563/2/6 560/2/6 564/2/6
f 565/2/6 566/2/6 569/2/6
f 569/2/6 566/2/6 570/2/6
f 567/1/6 568/1/6 573/1/6
f 568/2/6 569/2/6 574/2/6
f 573/1/6 568/1/6 574/1/6
f 569/2/6 570/2/6 574/2/6
f 570/2/6 571/2/6 574/2/6
f 574/2/6 571/2/6 575/2/6
f 575/2/6 571/2/6 576/2/6
f 571/1/6 572/1/6 577/1/6
f 576/2/6 571/2/6 577/2/6
f 577/1/6 572/1/6 578/1/6
f 575/2/6 576/2/6 579/2/6
f 579/2/6 576/2/6 580/2/6
