# MagicaVoxel @ ephtracy

# material
mtllib Hend1.mtl
usemtl palette

# normals
vn -1 0 0
vn 1 0 0
vn 0 0 1
vn 0 0 -1
vn 0 -1 0
vn 0 1 0

# texcoords
vt 0.978516 0.5
vt 0.986328 0.5

# verts
v -2.5 3 1.5
v -2.5 3 -2.5
v -2.5 7 1.5
v -2.5 7 -2.5
v -1.5 0 1.5
v -1.5 0 -1.5
v -1.5 2 1.5
v -1.5 2 -1.5
v -1.5 2 -2.5
v -1.5 3 1.5
v -1.5 3 -2.5
v -1.5 7 1.5
v -1.5 7 -2.5
v -1.5 8 1.5
v -1.5 8 -2.5
v -0.5 2 2.5
v -0.5 2 1.5
v -0.5 6 2.5
v -0.5 6 1.5
v 0.5 6 2.5
v 0.5 6 1.5
v 0.5 8 2.5
v 0.5 8 1.5
v 0.5 2 2.5
v 0.5 2 1.5
v 0.5 2 -1.5
v 0.5 2 -2.5
v 0.5 4 2.5
v 0.5 4 1.5
v 0.5 4 -1.5
v 0.5 4 -2.5
v 1.5 0 1.5
v 1.5 0 -1.5
v 1.5 2 1.5
v 1.5 2 -1.5
v 1.5 7 2.5
v 1.5 7 1.5
v 1.5 8 2.5
v 1.5 8 1.5
v 2.5 2 1.5
v 2.5 2 -1.5
v 2.5 4 2.5
v 2.5 4 1.5
v 2.5 4 -1.5
v 2.5 4 -2.5
v 2.5 7 2.5
v 2.5 7 1.5
v 2.5 8 1.5
v 2.5 8 -2.5
v -0.5 2 2.5
v -0.5 6 2.5
v 0.5 2 2.5
v 0.5 4 2.5
v 0.5 6 2.5
v 0.5 8 2.5
v 1.5 7 2.5
v 1.5 8 2.5
v 2.5 4 2.5
v 2.5 7 2.5
v -2.5 3 1.5
v -2.5 7 1.5
v -1.5 0 1.5
v -1.5 2 1.5
v -1.5 3 1.5
v -1.5 7 1.5
v -1.5 8 1.5
v -0.5 2 1.5
v -0.5 6 1.5
v 0.5 2 1.5
v 0.5 4 1.5
v 0.5 6 1.5
v 0.5 8 1.5
v 1.5 0 1.5
v 1.5 2 1.5
v 1.5 7 1.5
v 1.5 8 1.5
v 2.5 2 1.5
v 2.5 4 1.5
v 2.5 7 1.5
v 2.5 8 1.5
v -1.5 0 -1.5
v -1.5 2 -1.5
v 0.5 2 -1.5
v 0.5 4 -1.5
v 1.5 0 -1.5
v 1.5 2 -1.5
v 2.5 2 -1.5
v 2.5 4 -1.5
v -2.5 3 -2.5
v -2.5 7 -2.5
v -1.5 2 -2.5
v -1.5 3 -2.5
v -1.5 7 -2.5
v -1.5 8 -2.5
v 0.5 2 -2.5
v 0.5 4 -2.5
v 2.5 4 -2.5
v 2.5 8 -2.5
v -1.5 0 1.5
v 1.5 0 1.5
v -1.5 0 -1.5
v 1.5 0 -1.5
v -0.5 2 2.5
v 0.5 2 2.5
v -0.5 2 1.5
v 0.5 2 1.5
v 1.5 2 1.5
v 2.5 2 1.5
v -1.5 2 -1.5
v 0.5 2 -1.5
v 1.5 2 -1.5
v 2.5 2 -1.5
v -1.5 2 -2.5
v 0.5 2 -2.5
v -2.5 3 1.5
v -1.5 3 1.5
v -2.5 3 -2.5
v -1.5 3 -2.5
v 0.5 4 2.5
v 2.5 4 2.5
v 0.5 4 1.5
v 2.5 4 1.5
v 0.5 4 -1.5
v 2.5 4 -1.5
v 0.5 4 -2.5
v 2.5 4 -2.5
v -0.5 6 2.5
v 0.5 6 2.5
v -0.5 6 1.5
v 0.5 6 1.5
v 1.5 7 2.5
v 2.5 7 2.5
v -2.5 7 1.5
v -1.5 7 1.5
v 1.5 7 1.5
v 2.5 7 1.5
v -2.5 7 -2.5
v -1.5 7 -2.5
v 0.5 8 2.5
v 1.5 8 2.5
v -1.5 8 1.5
v 0.5 8 1.5
v 1.5 8 1.5
v 2.5 8 1.5
v -1.5 8 -2.5
v 2.5 8 -2.5

# faces
f 3/2/1 2/2/1 1/2/1
f 4/2/1 2/2/1 3/2/1
f 7/1/1 6/1/1 5/1/1
f 8/1/1 6/1/1 7/1/1
f 10/2/1 8/2/1 7/2/1
f 10/2/1 9/2/1 8/2/1
f 11/2/1 9/2/1 10/2/1
f 14/2/1 13/2/1 12/2/1
f 15/2/1 13/2/1 14/2/1
f 18/2/1 17/2/1 16/2/1
f 19/2/1 17/2/1 18/2/1
f 22/2/1 21/2/1 20/2/1
f 23/2/1 21/2/1 22/2/1
f 24/2/2 25/2/2 28/2/2
f 28/2/2 25/2/2 29/2/2
f 26/2/2 27/2/2 30/2/2
f 30/2/2 27/2/2 31/2/2
f 32/1/2 33/1/2 34/1/2
f 34/1/2 33/1/2 35/1/2
f 36/2/2 37/2/2 38/2/2
f 38/2/2 37/2/2 39/2/2
f 40/2/2 41/2/2 43/2/2
f 43/2/2 41/2/2 44/2/2
f 42/2/2 43/2/2 46/2/2
f 44/2/2 45/2/2 46/2/2
f 43/2/2 44/2/2 46/2/2
f 46/2/2 45/2/2 47/2/2
f 47/2/2 45/2/2 48/2/2
f 48/2/2 45/2/2 49/2/2
f 52/2/3 51/2/3 50/2/3
f 53/2/3 51/2/3 52/2/3
f 54/2/3 51/2/3 53/2/3
f 56/2/3 55/2/3 54/2/3
f 56/2/3 54/2/3 53/2/3
f 57/2/3 55/2/3 56/2/3
f 58/2/3 56/2/3 53/2/3
f 59/2/3 56/2/3 58/2/3
f 64/2/3 61/2/3 60/2/3
f 65/2/3 61/2/3 64/2/3
f 67/1/3 63/1/3 62/1/3
f 67/2/3 66/2/3 65/2/3
f 67/2/3 65/2/3 64/2/3
f 67/2/3 64/2/3 63/2/3
f 68/2/3 66/2/3 67/2/3
f 69/1/3 67/1/3 62/1/3
f 71/2/3 66/2/3 68/2/3
f 72/2/3 66/2/3 71/2/3
f 73/1/3 69/1/3 62/1/3
f 74/2/3 70/2/3 69/2/3
f 74/1/3 69/1/3 73/1/3
f 77/2/3 70/2/3 74/2/3
f 78/2/3 70/2/3 77/2/3
f 79/2/3 76/2/3 75/2/3
f 80/2/3 76/2/3 79/2/3
f 81/1/4 82/1/4 83/1/4
f 81/1/4 83/1/4 85/1/4
f 83/2/4 84/2/4 86/2/4
f 85/1/4 83/1/4 86/1/4
f 86/2/4 84/2/4 87/2/4
f 87/2/4 84/2/4 88/2/4
f 89/2/4 90/2/4 92/2/4
f 92/2/4 90/2/4 93/2/4
f 91/2/4 92/2/4 95/2/4
f 93/2/4 94/2/4 95/2/4
f 92/2/4 93/2/4 95/2/4
f 95/2/4 94/2/4 96/2/4
f 96/2/4 94/2/4 97/2/4
f 97/2/4 94/2/4 98/2/4
f 101/1/5 100/1/5 99/1/5
f 102/1/5 100/1/5 101/1/5
f 105/2/5 104/2/5 103/2/5
f 106/2/5 104/2/5 105/2/5
f 111/2/5 108/2/5 107/2/5
f 112/2/5 108/2/5 111/2/5
f 113/2/5 110/2/5 109/2/5
f 114/2/5 110/2/5 113/2/5
f 117/2/5 116/2/5 115/2/5
f 118/2/5 116/2/5 117/2/5
f 121/2/5 120/2/5 119/2/5
f 122/2/5 120/2/5 121/2/5
f 125/2/5 124/2/5 123/2/5
f 126/2/5 124/2/5 125/2/5
f 127/2/6 128/2/6 129/2/6
f 129/2/6 128/2/6 130/2/6
f 131/2/6 132/2/6 135/2/6
f 135/2/6 132/2/6 136/2/6
f 133/2/6 134/2/6 137/2/6
f 137/2/6 134/2/6 138/2/6
f 139/2/6 140/2/6 142/2/6
f 142/2/6 140/2/6 143/2/6
f 141/2/6 142/2/6 145/2/6
f 143/2/6 144/2/6 145/2/6
f 142/2/6 143/2/6 145/2/6
f 145/2/6 144/2/6 146/2/6
