# MagicaVoxel @ ephtracy

# material
mtllib body1.mtl
usemtl palette

# normals
vn -1 0 0
vn 1 0 0
vn 0 0 1
vn 0 0 -1
vn 0 -1 0
vn 0 1 0

# texcoords
vt 0.970703 0.5
vt 0.974609 0.5
vt 0.978516 0.5
vt 0.982422 0.5

# verts
v -5.5 1 3
v -5.5 1 -3
v -5.5 2 3
v -5.5 2 -3
v -5.5 3 3
v -5.5 3 -3
v -5.5 4 3
v -5.5 4 -3
v -5.5 6 3
v -5.5 6 -3
v -4.5 0 3
v -4.5 0 -3
v -4.5 1 3
v -4.5 1 -3
v 4.5 0 3
v 4.5 0 -3
v 4.5 1 3
v 4.5 1 -3
v 5.5 1 3
v 5.5 1 -3
v 5.5 2 3
v 5.5 2 -3
v 5.5 3 3
v 5.5 3 -3
v 5.5 4 3
v 5.5 4 -3
v 5.5 6 3
v 5.5 6 -3
v -5.5 1 3
v -5.5 2 3
v -5.5 3 3
v -5.5 4 3
v -5.5 6 3
v -4.5 0 3
v -4.5 1 3
v -4.5 2 3
v -4.5 3 3
v -4.5 4 3
v 4.5 0 3
v 4.5 1 3
v 4.5 2 3
v 4.5 3 3
v 4.5 4 3
v 5.5 1 3
v 5.5 2 3
v 5.5 3 3
v 5.5 4 3
v 5.5 6 3
v -5.5 1 -3
v -5.5 2 -3
v -5.5 3 -3
v -5.5 4 -3
v -5.5 6 -3
v -4.5 0 -3
v -4.5 1 -3
v -4.5 2 -3
v -4.5 3 -3
v -4.5 4 -3
v 4.5 0 -3
v 4.5 1 -3
v 4.5 2 -3
v 4.5 3 -3
v 4.5 4 -3
v 5.5 1 -3
v 5.5 2 -3
v 5.5 3 -3
v 5.5 4 -3
v 5.5 6 -3
v -4.5 0 3
v 4.5 0 3
v -4.5 0 -3
v 4.5 0 -3
v -5.5 1 3
v -4.5 1 3
v 4.5 1 3
v 5.5 1 3
v -5.5 1 -3
v -4.5 1 -3
v 4.5 1 -3
v 5.5 1 -3
v -5.5 6 3
v 5.5 6 3
v -5.5 6 -3
v 5.5 6 -3

# faces
f 3/1/1 2/1/1 1/1/1
f 4/1/1 2/1/1 3/1/1
f 5/2/1 4/2/1 3/2/1
f 6/2/1 4/2/1 5/2/1
f 7/3/1 6/3/1 5/3/1
f 8/3/1 6/3/1 7/3/1
f 9/4/1 8/4/1 7/4/1
f 10/4/1 8/4/1 9/4/1
f 13/1/1 12/1/1 11/1/1
f 14/1/1 12/1/1 13/1/1
f 15/1/2 16/1/2 17/1/2
f 17/1/2 16/1/2 18/1/2
f 19/1/2 20/1/2 21/1/2
f 21/1/2 20/1/2 22/1/2
f 21/2/2 22/2/2 23/2/2
f 23/2/2 22/2/2 24/2/2
f 23/3/2 24/3/2 25/3/2
f 25/3/2 24/3/2 26/3/2
f 25/4/2 26/4/2 27/4/2
f 27/4/2 26/4/2 28/4/2
f 35/1/3 30/1/3 29/1/3
f 36/2/3 31/2/3 30/2/3
f 36/1/3 30/1/3 35/1/3
f 37/3/3 32/3/3 31/3/3
f 37/2/3 31/2/3 36/2/3
f 38/4/3 33/4/3 32/4/3
f 38/3/3 32/3/3 37/3/3
f 39/1/3 35/1/3 34/1/3
f 39/1/3 36/1/3 35/1/3
f 40/1/3 36/1/3 39/1/3
f 41/4/3 37/4/3 36/4/3
f 41/1/3 36/1/3 40/1/3
f 41/4/3 38/4/3 37/4/3
f 42/4/3 38/4/3 41/4/3
f 43/4/3 33/4/3 38/4/3
f 43/4/3 38/4/3 42/4/3
f 44/1/3 41/1/3 40/1/3
f 45/2/3 42/2/3 41/2/3
f 45/1/3 41/1/3 44/1/3
f 46/3/3 43/3/3 42/3/3
f 46/2/3 42/2/3 45/2/3
f 47/4/3 33/4/3 43/4/3
f 47/3/3 43/3/3 46/3/3
f 48/4/3 33/4/3 47/4/3
f 49/1/4 50/1/4 55/1/4
f 50/2/4 51/2/4 56/2/4
f 55/1/4 50/1/4 56/1/4
f 51/3/4 52/3/4 57/3/4
f 56/2/4 51/2/4 57/2/4
f 52/4/4 53/4/4 58/4/4
f 57/3/4 52/3/4 58/3/4
f 54/1/4 55/1/4 59/1/4
f 55/1/4 56/1/4 59/1/4
f 59/1/4 56/1/4 60/1/4
f 56/4/4 57/4/4 61/4/4
f 60/1/4 56/1/4 61/1/4
f 57/4/4 58/4/4 61/4/4
f 61/4/4 58/4/4 62/4/4
f 58/4/4 53/4/4 63/4/4
f 62/4/4 58/4/4 63/4/4
f 60/1/4 61/1/4 64/1/4
f 61/2/4 62/2/4 65/2/4
f 64/1/4 61/1/4 65/1/4
f 62/3/4 63/3/4 66/3/4
f 65/2/4 62/2/4 66/2/4
f 63/4/4 53/4/4 67/4/4
f 66/3/4 63/3/4 67/3/4
f 67/4/4 53/4/4 68/4/4
f 71/1/5 70/1/5 69/1/5
f 72/1/5 70/1/5 71/1/5
f 77/1/5 74/1/5 73/1/5
f 78/1/5 74/1/5 77/1/5
f 79/1/5 76/1/5 75/1/5
f 80/1/5 76/1/5 79/1/5
f 81/4/6 82/4/6 83/4/6
f 83/4/6 82/4/6 84/4/6
