# MagicaVoxel @ ephtracy

# material
mtllib Base2.mtl
usemtl palette

# normals
vn -1 0 0
vn 1 0 0
vn 0 0 1
vn 0 0 -1
vn 0 -1 0
vn 0 1 0

# texcoords
vt 0.908203 0.5
vt 0.970703 0.5
vt 0.974609 0.5
vt 0.978516 0.5
vt 0.982422 0.5
vt 0.986328 0.5

# verts
v -22.5 0 22.5
v -22.5 0 -22.5
v -22.5 2 22.5
v -22.5 2 -22.5
v 2.5 2 12.5
v 2.5 2 11.5
v 2.5 2 10.5
v 2.5 3 12.5
v 2.5 3 11.5
v 2.5 3 10.5
v 3.5 2 14.5
v 3.5 2 13.5
v 3.5 2 12.5
v 3.5 2 10.5
v 3.5 2 9.5
v 3.5 3 14.5
v 3.5 3 13.5
v 3.5 3 12.5
v 3.5 3 10.5
v 3.5 3 9.5
v 3.5 4 13.5
v 3.5 4 12.5
v 4.5 2 15.5
v 4.5 2 14.5
v 4.5 3 15.5
v 4.5 3 14.5
v 4.5 3 13.5
v 4.5 4 15.5
v 4.5 4 13.5
v 5.5 2 14.5
v 5.5 2 13.5
v 5.5 3 14.5
v 5.5 3 13.5
v 6.5 3 13.5
v 6.5 3 12.5
v 6.5 3 11.5
v 6.5 4 13.5
v 6.5 4 12.5
v 6.5 4 11.5
v 7.5 2 15.5
v 7.5 2 14.5
v 7.5 2 13.5
v 7.5 2 12.5
v 7.5 2 10.5
v 7.5 3 15.5
v 7.5 3 14.5
v 7.5 3 13.5
v 7.5 3 12.5
v 7.5 3 11.5
v 7.5 3 10.5
v 8.5 2 10.5
v 8.5 2 9.5
v 8.5 3 11.5
v 8.5 3 10.5
v 8.5 3 9.5
v 8.5 4 11.5
v 8.5 4 10.5
v 4.5 2 14.5
v 4.5 2 13.5
v 4.5 2 12.5
v 4.5 2 11.5
v 4.5 2 10.5
v 4.5 2 9.5
v 4.5 3 14.5
v 4.5 3 13.5
v 4.5 3 12.5
v 4.5 3 11.5
v 4.5 3 10.5
v 4.5 3 9.5
v 4.5 4 13.5
v 4.5 4 12.5
v 5.5 2 11.5
v 5.5 2 10.5
v 5.5 3 11.5
v 5.5 3 10.5
v 6.5 2 15.5
v 6.5 2 14.5
v 6.5 3 15.5
v 6.5 3 14.5
v 6.5 3 13.5
v 6.5 4 15.5
v 6.5 4 14.5
v 6.5 4 13.5
v 8.5 2 15.5
v 8.5 2 14.5
v 8.5 2 13.5
v 8.5 3 15.5
v 8.5 3 14.5
v 8.5 3 13.5
v 8.5 3 12.5
v 8.5 3 11.5
v 8.5 4 13.5
v 8.5 4 12.5
v 8.5 4 11.5
v 9.5 2 13.5
v 9.5 2 12.5
v 9.5 2 11.5
v 9.5 3 13.5
v 9.5 3 12.5
v 9.5 3 11.5
v 10.5 2 11.5
v 10.5 2 10.5
v 10.5 2 9.5
v 10.5 3 10.5
v 10.5 3 9.5
v 10.5 4 11.5
v 10.5 4 10.5
v 22.5 0 22.5
v 22.5 0 -22.5
v 22.5 2 22.5
v 22.5 2 -22.5
v -22.5 0 22.5
v -22.5 2 22.5
v 22.5 0 22.5
v 22.5 2 22.5
v 4.5 2 15.5
v 4.5 3 15.5
v 4.5 4 15.5
v 5.5 2 15.5
v 5.5 3 15.5
v 5.5 4 15.5
v 6.5 2 15.5
v 6.5 3 15.5
v 6.5 4 15.5
v 7.5 2 15.5
v 7.5 3 15.5
v 8.5 2 15.5
v 8.5 3 15.5
v 3.5 2 14.5
v 3.5 3 14.5
v 4.5 2 14.5
v 4.5 3 14.5
v 6.5 2 14.5
v 6.5 3 14.5
v 7.5 2 14.5
v 7.5 3 14.5
v 3.5 3 13.5
v 3.5 4 13.5
v 4.5 3 13.5
v 4.5 4 13.5
v 6.5 3 13.5
v 6.5 4 13.5
v 7.5 3 13.5
v 7.5 4 13.5
v 8.5 2 13.5
v 8.5 3 13.5
v 8.5 4 13.5
v 9.5 2 13.5
v 9.5 3 13.5
v 2.5 2 12.5
v 2.5 3 12.5
v 3.5 2 12.5
v 3.5 3 12.5
v 4.5 2 11.5
v 4.5 3 11.5
v 5.5 2 11.5
v 5.5 3 11.5
v 8.5 3 11.5
v 8.5 4 11.5
v 9.5 2 11.5
v 9.5 3 11.5
v 9.5 4 11.5
v 10.5 2 11.5
v 10.5 4 11.5
v 4.5 2 14.5
v 4.5 3 14.5
v 5.5 2 14.5
v 5.5 3 14.5
v 4.5 3 13.5
v 4.5 4 13.5
v 5.5 2 13.5
v 5.5 3 13.5
v 5.5 4 13.5
v 6.5 2 13.5
v 6.5 3 13.5
v 6.5 4 13.5
v 7.5 2 13.5
v 7.5 3 13.5
v 3.5 3 12.5
v 3.5 4 12.5
v 4.5 3 12.5
v 4.5 4 12.5
v 6.5 3 11.5
v 6.5 4 11.5
v 7.5 3 11.5
v 8.5 3 11.5
v 8.5 4 11.5
v 2.5 2 10.5
v 2.5 3 10.5
v 3.5 2 10.5
v 3.5 3 10.5
v 4.5 2 10.5
v 4.5 3 10.5
v 5.5 2 10.5
v 5.5 3 10.5
v 7.5 2 10.5
v 7.5 3 10.5
v 8.5 2 10.5
v 8.5 3 10.5
v 8.5 4 10.5
v 9.5 3 10.5
v 9.5 4 10.5
v 10.5 3 10.5
v 10.5 4 10.5
v 3.5 2 9.5
v 3.5 3 9.5
v 4.5 2 9.5
v 4.5 3 9.5
v 8.5 2 9.5
v 8.5 3 9.5
v 9.5 2 9.5
v 9.5 3 9.5
v 10.5 2 9.5
v 10.5 3 9.5
v -22.5 0 -22.5
v -22.5 2 -22.5
v 22.5 0 -22.5
v 22.5 2 -22.5
v -22.5 0 22.5
v 22.5 0 22.5
v -22.5 0 -22.5
v 22.5 0 -22.5
v 4.5 3 14.5
v 5.5 3 14.5
v 4.5 3 13.5
v 5.5 3 13.5
v 6.5 3 13.5
v 7.5 3 13.5
v 6.5 3 12.5
v 7.5 3 12.5
v 6.5 3 11.5
v 7.5 3 11.5
v -22.5 2 22.5
v 22.5 2 22.5
v 4.5 2 15.5
v 5.5 2 15.5
v 6.5 2 15.5
v 7.5 2 15.5
v 8.5 2 15.5
v 3.5 2 14.5
v 4.5 2 14.5
v 5.5 2 14.5
v 6.5 2 14.5
v 7.5 2 14.5
v 8.5 2 14.5
v 3.5 2 13.5
v 4.5 2 13.5
v 5.5 2 13.5
v 6.5 2 13.5
v 7.5 2 13.5
v 8.5 2 13.5
v 9.5 2 13.5
v 2.5 2 12.5
v 3.5 2 12.5
v 4.5 2 12.5
v 7.5 2 12.5
v 9.5 2 12.5
v 2.5 2 11.5
v 4.5 2 11.5
v 5.5 2 11.5
v 9.5 2 11.5
v 10.5 2 11.5
v 2.5 2 10.5
v 3.5 2 10.5
v 4.5 2 10.5
v 5.5 2 10.5
v 6.5 2 10.5
v 7.5 2 10.5
v 8.5 2 10.5
v 10.5 2 10.5
v 3.5 2 9.5
v 4.5 2 9.5
v 5.5 2 9.5
v 6.5 2 9.5
v 7.5 2 9.5
v 8.5 2 9.5
v 9.5 2 9.5
v 10.5 2 9.5
v 2.5 2 8.5
v 3.5 2 8.5
v 5.5 2 8.5
v 6.5 2 8.5
v 2.5 2 7.5
v 3.5 2 7.5
v 4.5 2 7.5
v 5.5 2 7.5
v -22.5 2 -22.5
v 22.5 2 -22.5
v 7.5 3 15.5
v 8.5 3 15.5
v 3.5 3 14.5
v 4.5 3 14.5
v 6.5 3 14.5
v 7.5 3 14.5
v 8.5 3 14.5
v 3.5 3 13.5
v 4.5 3 13.5
v 6.5 3 13.5
v 7.5 3 13.5
v 8.5 3 13.5
v 9.5 3 13.5
v 2.5 3 12.5
v 3.5 3 12.5
v 4.5 3 12.5
v 8.5 3 12.5
v 9.5 3 12.5
v 2.5 3 11.5
v 3.5 3 11.5
v 4.5 3 11.5
v 5.5 3 11.5
v 7.5 3 11.5
v 8.5 3 11.5
v 9.5 3 11.5
v 2.5 3 10.5
v 3.5 3 10.5
v 4.5 3 10.5
v 5.5 3 10.5
v 7.5 3 10.5
v 8.5 3 10.5
v 9.5 3 10.5
v 10.5 3 10.5
v 3.5 3 9.5
v 4.5 3 9.5
v 8.5 3 9.5
v 9.5 3 9.5
v 10.5 3 9.5
v 4.5 4 15.5
v 5.5 4 15.5
v 6.5 4 15.5
v 5.5 4 14.5
v 6.5 4 14.5
v 3.5 4 13.5
v 4.5 4 13.5
v 5.5 4 13.5
v 6.5 4 13.5
v 7.5 4 13.5
v 8.5 4 13.5
v 3.5 4 12.5
v 4.5 4 12.5
v 6.5 4 12.5
v 7.5 4 12.5
v 8.5 4 12.5
v 6.5 4 11.5
v 8.5 4 11.5
v 9.5 4 11.5
v 10.5 4 11.5
v 8.5 4 10.5
v 9.5 4 10.5
v 10.5 4 10.5

# faces
f 3/1/1 2/1/1 1/1/1
f 4/1/1 2/1/1 3/1/1
f 8/5/1 6/5/1 5/5/1
f 9/4/1 7/4/1 6/4/1
f 9/5/1 6/5/1 8/5/1
f 10/4/1 7/4/1 9/4/1
f 16/4/1 12/4/1 11/4/1
f 17/5/1 13/5/1 12/5/1
f 17/4/1 12/4/1 16/4/1
f 18/5/1 13/5/1 17/5/1
f 19/4/1 15/4/1 14/4/1
f 20/4/1 15/4/1 19/4/1
f 21/5/1 18/5/1 17/5/1
f 22/5/1 18/5/1 21/5/1
f 25/6/1 24/6/1 23/6/1
f 26/6/1 24/6/1 25/6/1
f 28/4/1 26/4/1 25/4/1
f 28/4/1 27/4/1 26/4/1
f 29/4/1 27/4/1 28/4/1
f 32/5/1 31/5/1 30/5/1
f 33/5/1 31/5/1 32/5/1
f 37/4/1 35/4/1 34/4/1
f 38/3/1 36/3/1 35/3/1
f 38/4/1 35/4/1 37/4/1
f 39/3/1 36/3/1 38/3/1
f 45/4/1 41/4/1 40/4/1
f 46/4/1 41/4/1 45/4/1
f 47/5/1 43/5/1 42/5/1
f 48/4/1 44/4/1 43/4/1
f 48/5/1 43/5/1 47/5/1
f 49/4/1 44/4/1 48/4/1
f 50/4/1 44/4/1 49/4/1
f 54/4/1 52/4/1 51/4/1
f 55/4/1 52/4/1 54/4/1
f 56/4/1 54/4/1 53/4/1
f 57/4/1 54/4/1 56/4/1
f 58/4/2 59/4/2 64/4/2
f 59/5/2 60/5/2 65/5/2
f 64/4/2 59/4/2 65/4/2
f 60/3/2 61/3/2 66/3/2
f 65/5/2 60/5/2 66/5/2
f 66/3/2 61/3/2 67/3/2
f 62/4/2 63/4/2 68/4/2
f 68/4/2 63/4/2 69/4/2
f 65/5/2 66/5/2 70/5/2
f 70/5/2 66/5/2 71/5/2
f 72/2/2 73/2/2 74/2/2
f 74/2/2 73/2/2 75/2/2
f 76/5/2 77/5/2 78/5/2
f 78/5/2 77/5/2 79/5/2
f 78/3/2 79/3/2 81/3/2
f 79/5/2 80/5/2 82/5/2
f 81/3/2 79/3/2 82/3/2
f 82/5/2 80/5/2 83/5/2
f 84/4/2 85/4/2 87/4/2
f 85/5/2 86/5/2 88/5/2
f 87/4/2 85/4/2 88/4/2
f 88/5/2 86/5/2 89/5/2
f 89/5/2 90/5/2 92/5/2
f 90/3/2 91/3/2 93/3/2
f 92/5/2 90/5/2 93/5/2
f 93/3/2 91/3/2 94/3/2
f 95/5/2 96/5/2 98/5/2
f 96/2/2 97/2/2 99/2/2
f 98/5/2 96/5/2 99/5/2
f 99/2/2 97/2/2 100/2/2
f 101/5/2 102/5/2 104/5/2
f 102/3/2 103/3/2 104/3/2
f 104/3/2 103/3/2 105/3/2
f 101/5/2 104/5/2 106/5/2
f 106/5/2 104/5/2 107/5/2
f 108/1/2 109/1/2 110/1/2
f 110/1/2 109/1/2 111/1/2
f 114/1/3 113/1/3 112/1/3
f 115/1/3 113/1/3 114/1/3
f 119/6/3 117/6/3 116/6/3
f 120/4/3 118/4/3 117/4/3
f 120/6/3 117/6/3 119/6/3
f 121/4/3 118/4/3 120/4/3
f 122/5/3 120/5/3 119/5/3
f 123/3/3 121/3/3 120/3/3
f 123/5/3 120/5/3 122/5/3
f 124/3/3 121/3/3 123/3/3
f 127/4/3 126/4/3 125/4/3
f 128/4/3 126/4/3 127/4/3
f 131/4/3 130/4/3 129/4/3
f 132/4/3 130/4/3 131/4/3
f 135/2/3 134/2/3 133/2/3
f 136/2/3 134/2/3 135/2/3
f 139/5/3 138/5/3 137/5/3
f 140/5/3 138/5/3 139/5/3
f 143/4/3 142/4/3 141/4/3
f 144/4/3 142/4/3 143/4/3
f 146/5/3 144/5/3 143/5/3
f 147/5/3 144/5/3 146/5/3
f 148/5/3 146/5/3 145/5/3
f 149/5/3 146/5/3 148/5/3
f 152/5/3 151/5/3 150/5/3
f 153/5/3 151/5/3 152/5/3
f 156/2/3 155/2/3 154/2/3
f 157/2/3 155/2/3 156/2/3
f 161/4/3 159/4/3 158/4/3
f 162/4/3 159/4/3 161/4/3
f 163/5/3 161/5/3 160/5/3
f 163/5/3 162/5/3 161/5/3
f 164/5/3 162/5/3 163/5/3
f 165/6/4 166/6/4 167/6/4
f 167/6/4 166/6/4 168/6/4
f 169/4/4 170/4/4 172/4/4
f 172/4/4 170/4/4 173/4/4
f 171/5/4 172/5/4 174/5/4
f 172/5/4 173/5/4 174/5/4
f 174/5/4 173/5/4 175/5/4
f 175/5/4 173/5/4 176/5/4
f 174/2/4 175/2/4 177/2/4
f 177/2/4 175/2/4 178/2/4
f 179/5/4 180/5/4 181/5/4
f 181/5/4 180/5/4 182/5/4
f 183/3/4 184/3/4 185/3/4
f 185/3/4 184/3/4 186/3/4
f 186/3/4 184/3/4 187/3/4
f 188/4/4 189/4/4 190/4/4
f 190/4/4 189/4/4 191/4/4
f 192/2/4 193/2/4 194/2/4
f 194/2/4 193/2/4 195/2/4
f 196/4/4 197/4/4 198/4/4
f 198/4/4 197/4/4 199/4/4
f 199/4/4 200/4/4 201/4/4
f 201/4/4 200/4/4 202/4/4
f 201/5/4 202/5/4 203/5/4
f 203/5/4 202/5/4 204/5/4
f 205/4/4 206/4/4 207/4/4
f 207/4/4 206/4/4 208/4/4
f 209/4/4 210/4/4 211/4/4
f 211/4/4 210/4/4 212/4/4
f 211/3/4 212/3/4 213/3/4
f 213/3/4 212/3/4 214/3/4
f 215/1/4 216/1/4 217/1/4
f 217/1/4 216/1/4 218/1/4
f 221/1/5 220/1/5 219/1/5
f 222/1/5 220/1/5 221/1/5
f 225/4/5 224/4/5 223/4/5
f 226/4/5 224/4/5 225/4/5
f 229/4/5 228/4/5 227/4/5
f 230/4/5 228/4/5 229/4/5
f 231/3/5 230/3/5 229/3/5
f 232/3/5 230/3/5 231/3/5
f 233/1/6 234/1/6 235/1/6
f 235/1/6 234/1/6 236/1/6
f 236/1/6 234/1/6 237/1/6
f 237/1/6 234/1/6 238/1/6
f 238/1/6 234/1/6 239/1/6
f 233/1/6 235/1/6 240/1/6
f 240/1/6 235/1/6 241/1/6
f 237/1/6 238/1/6 243/1/6
f 243/1/6 238/1/6 244/1/6
f 239/1/6 234/1/6 245/1/6
f 233/1/6 240/1/6 246/1/6
f 241/4/6 242/4/6 247/4/6
f 247/4/6 242/4/6 248/4/6
f 245/1/6 234/1/6 251/1/6
f 251/1/6 234/1/6 252/1/6
f 233/1/6 246/1/6 253/1/6
f 253/1/6 246/1/6 254/1/6
f 249/4/6 250/4/6 255/4/6
f 247/4/6 248/4/6 255/4/6
f 248/4/6 249/4/6 255/4/6
f 255/4/6 250/4/6 256/4/6
f 252/1/6 234/1/6 257/1/6
f 233/1/6 253/1/6 258/1/6
f 255/4/6 256/4/6 259/4/6
f 259/4/6 256/4/6 260/4/6
f 257/1/6 234/1/6 261/1/6
f 261/1/6 234/1/6 262/1/6
f 233/1/6 258/1/6 263/1/6
f 260/4/6 256/4/6 266/4/6
f 266/4/6 256/4/6 267/4/6
f 267/4/6 256/4/6 268/4/6
f 262/1/6 234/1/6 270/1/6
f 263/4/6 264/4/6 271/4/6
f 265/4/6 266/4/6 272/4/6
f 266/6/6 267/6/6 273/6/6
f 272/4/6 266/4/6 273/4/6
f 267/4/6 268/4/6 274/4/6
f 273/6/6 267/6/6 274/6/6
f 268/6/6 269/6/6 275/6/6
f 274/4/6 268/4/6 275/4/6
f 275/6/6 269/6/6 276/6/6
f 270/1/6 234/1/6 278/1/6
f 233/1/6 263/1/6 279/1/6
f 263/4/6 271/4/6 279/4/6
f 271/4/6 272/4/6 279/4/6
f 279/4/6 272/4/6 280/4/6
f 273/6/6 274/6/6 281/6/6
f 272/6/6 273/6/6 281/6/6
f 276/1/6 277/1/6 282/1/6
f 281/6/6 274/6/6 282/6/6
f 277/1/6 278/1/6 282/1/6
f 274/1/6 275/1/6 282/1/6
f 275/1/6 276/1/6 282/1/6
f 233/1/6 279/1/6 283/1/6
f 279/6/6 280/6/6 283/6/6
f 280/4/6 272/4/6 284/4/6
f 283/6/6 280/6/6 284/6/6
f 272/6/6 281/6/6 285/6/6
f 284/4/6 272/4/6 285/4/6
f 281/1/6 282/1/6 286/1/6
f 285/6/6 281/6/6 286/6/6
f 283/1/6 284/1/6 287/1/6
f 233/1/6 283/1/6 287/1/6
f 285/1/6 286/1/6 287/1/6
f 284/1/6 285/1/6 287/1/6
f 286/1/6 282/1/6 288/1/6
f 287/1/6 286/1/6 288/1/6
f 282/1/6 278/1/6 288/1/6
f 278/1/6 234/1/6 288/1/6
f 289/4/6 290/4/6 294/4/6
f 294/4/6 290/4/6 295/4/6
f 291/4/6 292/4/6 296/4/6
f 296/4/6 292/4/6 297/4/6
f 293/2/6 294/2/6 298/2/6
f 294/5/6 295/5/6 299/5/6
f 298/2/6 294/2/6 299/2/6
f 299/5/6 295/5/6 300/5/6
f 300/5/6 301/5/6 305/5/6
f 305/5/6 301/5/6 306/5/6
f 302/5/6 303/5/6 307/5/6
f 303/3/6 304/3/6 308/3/6
f 307/5/6 303/5/6 308/5/6
f 308/3/6 304/3/6 309/3/6
f 305/2/6 306/2/6 312/2/6
f 312/2/6 306/2/6 313/2/6
f 307/4/6 308/4/6 314/4/6
f 309/2/6 310/2/6 315/2/6
f 314/4/6 308/4/6 315/4/6
f 308/2/6 309/2/6 315/2/6
f 315/2/6 310/2/6 316/2/6
f 316/2/6 310/2/6 317/2/6
f 311/4/6 312/4/6 318/4/6
f 318/4/6 312/4/6 319/4/6
f 315/4/6 316/4/6 322/4/6
f 322/4/6 316/4/6 323/4/6
f 319/4/6 320/4/6 324/4/6
f 320/3/6 321/3/6 325/3/6
f 324/4/6 320/4/6 325/4/6
f 325/3/6 321/3/6 326/3/6
f 327/4/6 328/4/6 330/4/6
f 328/3/6 329/3/6 330/3/6
f 330/3/6 329/3/6 331/3/6
f 327/4/6 330/4/6 333/4/6
f 330/5/6 331/5/6 334/5/6
f 333/4/6 330/4/6 334/4/6
f 334/5/6 331/5/6 335/5/6
f 332/5/6 333/5/6 338/5/6
f 338/5/6 333/5/6 339/5/6
f 335/4/6 336/4/6 340/4/6
f 336/5/6 337/5/6 341/5/6
f 340/4/6 336/4/6 341/4/6
f 341/5/6 337/5/6 342/5/6
f 340/3/6 341/3/6 343/3/6
f 341/3/6 342/3/6 343/3/6
f 343/3/6 342/3/6 344/3/6
f 344/4/6 345/4/6 347/4/6
f 345/5/6 346/5/6 348/5/6
f 347/4/6 345/4/6 348/4/6
f 348/5/6 346/5/6 349/5/6
