# MagicaVoxel @ ephtracy

# material
mtllib hand.mtl
usemtl palette

# normals
vn -1 0 0
vn 1 0 0
vn 0 0 1
vn 0 0 -1
vn 0 -1 0
vn 0 1 0

# texcoords
vt 0.974609 0.5
vt 0.978516 0.5
vt 0.982422 0.5

# verts
v -6.5 4 5
v -6.5 4 4
v -6.5 4 -1
v -6.5 4 -3
v -6.5 7 5
v -6.5 7 4
v -6.5 7 -1
v -6.5 7 -3
v -5.5 3 5
v -5.5 3 -3
v -5.5 4 5
v -5.5 4 4
v -5.5 4 -1
v -5.5 4 -3
v -5.5 7 5
v -5.5 7 4
v -5.5 7 -1
v -5.5 7 -3
v -5.5 8 5
v -5.5 8 4
v -5.5 8 -1
v -5.5 8 -3
v -4.5 2 5
v -4.5 2 -3
v -4.5 3 6
v -4.5 3 5
v -4.5 3 -3
v -4.5 3 -4
v -4.5 6 6
v -4.5 6 5
v -4.5 7 6
v -4.5 7 5
v -4.5 7 -3
v -4.5 7 -4
v -4.5 8 5
v -4.5 8 4
v -4.5 8 -1
v -4.5 8 -3
v -4.5 9 5
v -4.5 9 4
v -4.5 9 -1
v -4.5 9 -3
v -3.5 1 4
v -3.5 1 -3
v -3.5 2 7
v -3.5 2 5
v -3.5 2 4
v -3.5 2 -3
v -3.5 2 -5
v -3.5 3 7
v -3.5 3 6
v -3.5 3 5
v -3.5 3 -3
v -3.5 3 -4
v -3.5 6 7
v -3.5 6 6
v -3.5 7 6
v -3.5 7 5
v -3.5 7 -3
v -3.5 7 -4
v -3.5 9 7
v -3.5 9 5
v -3.5 9 -3
v -3.5 9 -5
v -2.5 0 5
v -2.5 0 -4
v -2.5 1 6
v -2.5 1 5
v -2.5 1 4
v -2.5 1 -3
v -2.5 2 6
v -2.5 2 4
v -2.5 2 -3
v -2.5 2 -4
v -2.5 3 8
v -2.5 3 7
v -2.5 4 9
v -2.5 4 8
v -2.5 6 7
v -2.5 7 9
v -2.5 7 8
v -2.5 8 8
v -2.5 8 7
v -2.5 9 7
v -2.5 9 4
v -2.5 9 -1
v -2.5 9 -5
v -2.5 10 7
v -2.5 10 4
v -2.5 10 -1
v -2.5 10 -5
v -1.5 3 9
v -1.5 3 8
v -1.5 4 9
v -1.5 4 8
v -1.5 4 -5
v -1.5 4 -9
v -1.5 7 9
v -1.5 7 8
v -1.5 7 -6
v -1.5 7 -9
v -1.5 8 9
v -1.5 8 8
v -1.5 8 -5
v -1.5 8 -6
v -1.5 10 7
v -1.5 10 4
v -1.5 10 -1
v -1.5 10 -3
v -1.5 11 7
v -1.5 11 -3
v -0.5 11 7
v -0.5 11 -0
v -0.5 12 4
v -0.5 12 -0
v -0.5 13 6
v -0.5 13 4
v -0.5 14 7
v -0.5 14 6
v 0.5 11 7
v 0.5 11 -0
v 0.5 12 4
v 0.5 12 -0
v 0.5 13 6
v 0.5 13 4
v 0.5 14 7
v 0.5 14 6
v 1.5 3 9
v 1.5 3 8
v 1.5 4 9
v 1.5 4 8
v 1.5 4 -5
v 1.5 4 -9
v 1.5 7 9
v 1.5 7 8
v 1.5 7 -6
v 1.5 7 -9
v 1.5 8 9
v 1.5 8 8
v 1.5 8 -5
v 1.5 8 -6
v 1.5 10 7
v 1.5 10 4
v 1.5 10 -1
v 1.5 10 -3
v 1.5 11 7
v 1.5 11 -3
v 2.5 0 5
v 2.5 0 -4
v 2.5 1 6
v 2.5 1 5
v 2.5 1 4
v 2.5 1 -3
v 2.5 2 6
v 2.5 2 4
v 2.5 2 -3
v 2.5 2 -4
v 2.5 3 8
v 2.5 3 7
v 2.5 4 9
v 2.5 4 8
v 2.5 6 7
v 2.5 7 9
v 2.5 7 8
v 2.5 8 8
v 2.5 8 7
v 2.5 9 7
v 2.5 9 4
v 2.5 9 -1
v 2.5 9 -5
v 2.5 10 7
v 2.5 10 4
v 2.5 10 -1
v 2.5 10 -5
v 3.5 1 4
v 3.5 1 -3
v 3.5 2 7
v 3.5 2 5
v 3.5 2 4
v 3.5 2 -3
v 3.5 2 -5
v 3.5 3 7
v 3.5 3 6
v 3.5 3 5
v 3.5 3 -3
v 3.5 3 -4
v 3.5 6 7
v 3.5 6 6
v 3.5 7 6
v 3.5 7 5
v 3.5 7 -3
v 3.5 7 -4
v 3.5 9 7
v 3.5 9 5
v 3.5 9 -3
v 3.5 9 -5
v 4.5 2 5
v 4.5 2 -3
v 4.5 3 6
v 4.5 3 5
v 4.5 3 -3
v 4.5 3 -4
v 4.5 6 6
v 4.5 6 5
v 4.5 7 6
v 4.5 7 5
v 4.5 7 -3
v 4.5 7 -4
v 4.5 8 5
v 4.5 8 4
v 4.5 8 -1
v 4.5 8 -3
v 4.5 9 5
v 4.5 9 4
v 4.5 9 -1
v 4.5 9 -3
v 5.5 3 5
v 5.5 3 -3
v 5.5 4 5
v 5.5 4 4
v 5.5 4 -1
v 5.5 4 -3
v 5.5 7 5
v 5.5 7 4
v 5.5 7 -1
v 5.5 7 -3
v 5.5 8 5
v 5.5 8 4
v 5.5 8 -1
v 5.5 8 -3
v 6.5 4 5
v 6.5 4 4
v 6.5 4 -1
v 6.5 4 -3
v 6.5 7 5
v 6.5 7 4
v 6.5 7 -1
v 6.5 7 -3
v -2.5 4 9
v -2.5 7 9
v -1.5 3 9
v -1.5 4 9
v -1.5 7 9
v -1.5 8 9
v 1.5 3 9
v 1.5 4 9
v 1.5 7 9
v 1.5 8 9
v 2.5 4 9
v 2.5 7 9
v -2.5 3 8
v -2.5 4 8
v -2.5 7 8
v -2.5 8 8
v -1.5 3 8
v -1.5 4 8
v -1.5 7 8
v -1.5 8 8
v 1.5 3 8
v 1.5 4 8
v 1.5 7 8
v 1.5 8 8
v 2.5 3 8
v 2.5 4 8
v 2.5 7 8
v 2.5 8 8
v -3.5 2 7
v -3.5 3 7
v -3.5 6 7
v -3.5 9 7
v -2.5 3 7
v -2.5 6 7
v -2.5 8 7
v -2.5 9 7
v -2.5 10 7
v -1.5 2 7
v -1.5 3 7
v -1.5 9 7
v -1.5 10 7
v -1.5 11 7
v -0.5 11 7
v -0.5 14 7
v 0.5 11 7
v 0.5 14 7
v 1.5 2 7
v 1.5 3 7
v 1.5 9 7
v 1.5 10 7
v 1.5 11 7
v 2.5 3 7
v 2.5 6 7
v 2.5 8 7
v 2.5 9 7
v 2.5 10 7
v 3.5 2 7
v 3.5 3 7
v 3.5 6 7
v 3.5 9 7
v -4.5 3 6
v -4.5 6 6
v -4.5 7 6
v -3.5 3 6
v -3.5 6 6
v -3.5 7 6
v -2.5 1 6
v -2.5 2 6
v -1.5 2 6
v 1.5 2 6
v 2.5 1 6
v 2.5 2 6
v 3.5 3 6
v 3.5 6 6
v 3.5 7 6
v 4.5 3 6
v 4.5 6 6
v 4.5 7 6
v -6.5 4 5
v -6.5 7 5
v -5.5 3 5
v -5.5 4 5
v -5.5 7 5
v -5.5 8 5
v -4.5 2 5
v -4.5 3 5
v -4.5 6 5
v -4.5 7 5
v -4.5 8 5
v -4.5 9 5
v -3.5 2 5
v -3.5 3 5
v -3.5 7 5
v -3.5 9 5
v -2.5 0 5
v -2.5 1 5
v 2.5 0 5
v 2.5 1 5
v 3.5 2 5
v 3.5 3 5
v 3.5 7 5
v 3.5 9 5
v 4.5 2 5
v 4.5 3 5
v 4.5 6 5
v 4.5 7 5
v 4.5 8 5
v 4.5 9 5
v 5.5 3 5
v 5.5 4 5
v 5.5 7 5
v 5.5 8 5
v 6.5 4 5
v 6.5 7 5
v -3.5 1 4
v -3.5 2 4
v -2.5 1 4
v -2.5 2 4
v 2.5 1 4
v 2.5 2 4
v 3.5 1 4
v 3.5 2 4
v -0.5 13 6
v -0.5 14 6
v 0.5 13 6
v 0.5 14 6
v -0.5 12 4
v -0.5 13 4
v 0.5 12 4
v 0.5 13 4
v -0.5 11 -0
v -0.5 12 -0
v 0.5 11 -0
v 0.5 12 -0
v -6.5 4 -3
v -6.5 7 -3
v -5.5 3 -3
v -5.5 4 -3
v -5.5 7 -3
v -5.5 8 -3
v -4.5 2 -3
v -4.5 3 -3
v -4.5 7 -3
v -4.5 8 -3
v -4.5 9 -3
v -3.5 1 -3
v -3.5 2 -3
v -3.5 3 -3
v -3.5 7 -3
v -3.5 9 -3
v -2.5 1 -3
v -2.5 2 -3
v -1.5 10 -3
v -1.5 11 -3
v 1.5 10 -3
v 1.5 11 -3
v 2.5 1 -3
v 2.5 2 -3
v 3.5 1 -3
v 3.5 2 -3
v 3.5 3 -3
v 3.5 7 -3
v 3.5 9 -3
v 4.5 2 -3
v 4.5 3 -3
v 4.5 7 -3
v 4.5 8 -3
v 4.5 9 -3
v 5.5 3 -3
v 5.5 4 -3
v 5.5 7 -3
v 5.5 8 -3
v 6.5 4 -3
v 6.5 7 -3
v -4.5 3 -4
v -4.5 7 -4
v -3.5 3 -4
v -3.5 7 -4
v -2.5 0 -4
v -2.5 2 -4
v 2.5 0 -4
v 2.5 2 -4
v 3.5 3 -4
v 3.5 7 -4
v 4.5 3 -4
v 4.5 7 -4
v -3.5 2 -5
v -3.5 9 -5
v -2.5 9 -5
v -2.5 10 -5
v -1.5 4 -5
v -1.5 8 -5
v 1.5 4 -5
v 1.5 8 -5
v 2.5 9 -5
v 2.5 10 -5
v 3.5 2 -5
v 3.5 9 -5
v -1.5 7 -6
v -1.5 8 -6
v 1.5 7 -6
v 1.5 8 -6
v -1.5 4 -9
v -1.5 7 -9
v 1.5 4 -9
v 1.5 7 -9
v -2.5 0 5
v 2.5 0 5
v -2.5 0 -4
v 2.5 0 -4
v -2.5 1 6
v 2.5 1 6
v -2.5 1 5
v 2.5 1 5
v -3.5 1 4
v -2.5 1 4
v 2.5 1 4
v 3.5 1 4
v -3.5 1 -3
v -2.5 1 -3
v 2.5 1 -3
v 3.5 1 -3
v -3.5 2 7
v -1.5 2 7
v 1.5 2 7
v 3.5 2 7
v -2.5 2 6
v -1.5 2 6
v 1.5 2 6
v 2.5 2 6
v -4.5 2 5
v -3.5 2 5
v 3.5 2 5
v 4.5 2 5
v -3.5 2 4
v -2.5 2 4
v 2.5 2 4
v 3.5 2 4
v -4.5 2 -3
v -3.5 2 -3
v -2.5 2 -3
v 2.5 2 -3
v 3.5 2 -3
v 4.5 2 -3
v -2.5 2 -4
v 2.5 2 -4
v -3.5 2 -5
v 3.5 2 -5
v -1.5 3 9
v 1.5 3 9
v -2.5 3 8
v -1.5 3 8
v 1.5 3 8
v 2.5 3 8
v -2.5 3 7
v -1.5 3 7
v 1.5 3 7
v 2.5 3 7
v -4.5 3 6
v -3.5 3 6
v 3.5 3 6
v 4.5 3 6
v -5.5 3 5
v -4.5 3 5
v -3.5 3 5
v 3.5 3 5
v 4.5 3 5
v 5.5 3 5
v -5.5 3 -3
v -4.5 3 -3
v -3.5 3 -3
v 3.5 3 -3
v 4.5 3 -3
v 5.5 3 -3
v -4.5 3 -4
v -3.5 3 -4
v 3.5 3 -4
v 4.5 3 -4
v -2.5 4 9
v -1.5 4 9
v 1.5 4 9
v 2.5 4 9
v -2.5 4 8
v -1.5 4 8
v 1.5 4 8
v 2.5 4 8
v -6.5 4 5
v -5.5 4 5
v 5.5 4 5
v 6.5 4 5
v -6.5 4 4
v -5.5 4 4
v 5.5 4 4
v 6.5 4 4
v -6.5 4 -1
v -5.5 4 -1
v 5.5 4 -1
v 6.5 4 -1
v -6.5 4 -3
v -5.5 4 -3
v 5.5 4 -3
v 6.5 4 -3
v -1.5 4 -5
v 1.5 4 -5
v -1.5 4 -9
v 1.5 4 -9
v -2.5 7 9
v -1.5 7 9
v 1.5 7 9
v 2.5 7 9
v -2.5 7 8
v -1.5 7 8
v 1.5 7 8
v 2.5 7 8
v -4.5 7 6
v -3.5 7 6
v 3.5 7 6
v 4.5 7 6
v -6.5 7 5
v -5.5 7 5
v -4.5 7 5
v -3.5 7 5
v 3.5 7 5
v 4.5 7 5
v 5.5 7 5
v 6.5 7 5
v -6.5 7 4
v -5.5 7 4
v 5.5 7 4
v 6.5 7 4
v -6.5 7 -1
v -5.5 7 -1
v 5.5 7 -1
v 6.5 7 -1
v -6.5 7 -3
v -5.5 7 -3
v -4.5 7 -3
v -3.5 7 -3
v 3.5 7 -3
v 4.5 7 -3
v 5.5 7 -3
v 6.5 7 -3
v -4.5 7 -4
v -3.5 7 -4
v 3.5 7 -4
v 4.5 7 -4
v -1.5 7 -6
v 1.5 7 -6
v -1.5 7 -9
v 1.5 7 -9
v -1.5 8 9
v 1.5 8 9
v -2.5 8 8
v -1.5 8 8
v 1.5 8 8
v 2.5 8 8
v -2.5 8 7
v 2.5 8 7
v -5.5 8 5
v -4.5 8 5
v 4.5 8 5
v 5.5 8 5
v -5.5 8 4
v -4.5 8 4
v 4.5 8 4
v 5.5 8 4
v -5.5 8 -1
v -4.5 8 -1
v 4.5 8 -1
v 5.5 8 -1
v -5.5 8 -3
v -4.5 8 -3
v 4.5 8 -3
v 5.5 8 -3
v -1.5 8 -5
v 1.5 8 -5
v -1.5 8 -6
v 1.5 8 -6
v -3.5 9 7
v -2.5 9 7
v 2.5 9 7
v 3.5 9 7
v -4.5 9 5
v -3.5 9 5
v 3.5 9 5
v 4.5 9 5
v -4.5 9 4
v -2.5 9 4
v 2.5 9 4
v 4.5 9 4
v -4.5 9 -1
v -2.5 9 -1
v 2.5 9 -1
v 4.5 9 -1
v -4.5 9 -3
v -3.5 9 -3
v 3.5 9 -3
v 4.5 9 -3
v -3.5 9 -5
v -2.5 9 -5
v 2.5 9 -5
v 3.5 9 -5
v -2.5 10 7
v -1.5 10 7
v 1.5 10 7
v 2.5 10 7
v -2.5 10 4
v -1.5 10 4
v 1.5 10 4
v 2.5 10 4
v -2.5 10 -1
v -1.5 10 -1
v 1.5 10 -1
v 2.5 10 -1
v -1.5 10 -3
v 1.5 10 -3
v -2.5 10 -5
v 2.5 10 -5
v -1.5 11 7
v -0.5 11 7
v 0.5 11 7
v 1.5 11 7
v -0.5 11 -0
v 0.5 11 -0
v -1.5 11 -3
v 1.5 11 -3
v -0.5 12 4
v 0.5 12 4
v -0.5 12 -0
v 0.5 12 -0
v -0.5 13 6
v 0.5 13 6
v -0.5 13 4
v 0.5 13 4
v -0.5 14 7
v 0.5 14 7
v -0.5 14 6
v 0.5 14 6

# faces
f 5/2/1 2/2/1 1/2/1
f 6/1/1 3/1/1 2/1/1
f 6/2/1 2/2/1 5/2/1
f 7/2/1 4/2/1 3/2/1
f 7/1/1 3/1/1 6/1/1
f 8/2/1 4/2/1 7/2/1
f 11/2/1 10/2/1 9/2/1
f 12/2/1 10/2/1 11/2/1
f 13/2/1 10/2/1 12/2/1
f 14/2/1 10/2/1 13/2/1
f 19/2/1 16/2/1 15/2/1
f 20/1/1 17/1/1 16/1/1
f 20/2/1 16/2/1 19/2/1
f 21/2/1 18/2/1 17/2/1
f 21/1/1 17/1/1 20/1/1
f 22/2/1 18/2/1 21/2/1
f 26/2/1 24/2/1 23/2/1
f 27/2/1 24/2/1 26/2/1
f 29/1/1 26/1/1 25/1/1
f 30/1/1 26/1/1 29/1/1
f 31/2/1 30/2/1 29/2/1
f 32/2/1 30/2/1 31/2/1
f 33/2/1 28/2/1 27/2/1
f 34/2/1 28/2/1 33/2/1
f 39/2/1 36/2/1 35/2/1
f 40/1/1 37/1/1 36/1/1
f 40/2/1 36/2/1 39/2/1
f 41/2/1 38/2/1 37/2/1
f 41/1/1 37/1/1 40/1/1
f 42/2/1 38/2/1 41/2/1
f 47/2/1 44/2/1 43/2/1
f 48/2/1 44/2/1 47/2/1
f 50/2/1 46/2/1 45/2/1
f 51/2/1 46/2/1 50/2/1
f 52/2/1 46/2/1 51/2/1
f 53/2/1 49/2/1 48/2/1
f 54/2/1 49/2/1 53/2/1
f 55/1/1 51/1/1 50/1/1
f 56/1/1 51/1/1 55/1/1
f 57/2/1 56/2/1 55/2/1
f 60/2/1 49/2/1 54/2/1
f 61/2/1 58/2/1 57/2/1
f 61/2/1 57/2/1 55/2/1
f 62/2/1 58/2/1 61/2/1
f 63/2/1 60/2/1 59/2/1
f 64/2/1 49/2/1 60/2/1
f 64/2/1 60/2/1 63/2/1
f 68/2/1 66/2/1 65/2/1
f 69/2/1 66/2/1 68/2/1
f 70/2/1 66/2/1 69/2/1
f 71/2/1 68/2/1 67/2/1
f 71/2/1 69/2/1 68/2/1
f 72/2/1 69/2/1 71/2/1
f 73/2/1 66/2/1 70/2/1
f 74/2/1 66/2/1 73/2/1
f 78/3/1 76/3/1 75/3/1
f 79/3/1 76/3/1 78/3/1
f 79/3/1 78/3/1 77/3/1
f 80/3/1 79/3/1 77/3/1
f 81/3/1 79/3/1 80/3/1
f 82/3/1 79/3/1 81/3/1
f 83/3/1 79/3/1 82/3/1
f 88/2/1 85/2/1 84/2/1
f 89/1/1 86/1/1 85/1/1
f 89/2/1 85/2/1 88/2/1
f 90/2/1 87/2/1 86/2/1
f 90/1/1 86/1/1 89/1/1
f 91/2/1 87/2/1 90/2/1
f 94/3/1 93/3/1 92/3/1
f 95/3/1 93/3/1 94/3/1
f 100/3/1 97/3/1 96/3/1
f 101/3/1 97/3/1 100/3/1
f 102/3/1 99/3/1 98/3/1
f 103/3/1 99/3/1 102/3/1
f 104/3/1 100/3/1 96/3/1
f 105/3/1 100/3/1 104/3/1
f 110/2/1 107/2/1 106/2/1
f 110/2/1 109/2/1 108/2/1
f 110/2/1 108/2/1 107/2/1
f 111/2/1 109/2/1 110/2/1
f 114/2/1 113/2/1 112/2/1
f 115/2/1 113/2/1 114/2/1
f 116/2/1 114/2/1 112/2/1
f 117/2/1 114/2/1 116/2/1
f 118/2/1 116/2/1 112/2/1
f 119/2/1 116/2/1 118/2/1
f 120/2/2 121/2/2 122/2/2
f 122/2/2 121/2/2 123/2/2
f 120/2/2 122/2/2 124/2/2
f 124/2/2 122/2/2 125/2/2
f 120/2/2 124/2/2 126/2/2
f 126/2/2 124/2/2 127/2/2
f 128/3/2 129/3/2 130/3/2
f 130/3/2 129/3/2 131/3/2
f 132/3/2 133/3/2 136/3/2
f 136/3/2 133/3/2 137/3/2
f 134/3/2 135/3/2 138/3/2
f 138/3/2 135/3/2 139/3/2
f 132/3/2 136/3/2 140/3/2
f 140/3/2 136/3/2 141/3/2
f 142/2/2 143/2/2 146/2/2
f 144/2/2 145/2/2 146/2/2
f 143/2/2 144/2/2 146/2/2
f 146/2/2 145/2/2 147/2/2
f 148/2/2 149/2/2 151/2/2
f 151/2/2 149/2/2 152/2/2
f 152/2/2 149/2/2 153/2/2
f 150/2/2 151/2/2 154/2/2
f 151/2/2 152/2/2 154/2/2
f 154/2/2 152/2/2 155/2/2
f 153/2/2 149/2/2 156/2/2
f 156/2/2 149/2/2 157/2/2
f 158/3/2 159/3/2 161/3/2
f 161/3/2 159/3/2 162/3/2
f 160/3/2 161/3/2 162/3/2
f 160/3/2 162/3/2 163/3/2
f 163/3/2 162/3/2 164/3/2
f 164/3/2 162/3/2 165/3/2
f 165/3/2 162/3/2 166/3/2
f 167/2/2 168/2/2 171/2/2
f 168/1/2 169/1/2 172/1/2
f 171/2/2 168/2/2 172/2/2
f 169/2/2 170/2/2 173/2/2
f 172/1/2 169/1/2 173/1/2
f 173/2/2 170/2/2 174/2/2
f 175/2/2 176/2/2 179/2/2
f 179/2/2 176/2/2 180/2/2
f 177/2/2 178/2/2 182/2/2
f 182/2/2 178/2/2 183/2/2
f 183/2/2 178/2/2 184/2/2
f 180/2/2 181/2/2 185/2/2
f 185/2/2 181/2/2 186/2/2
f 182/1/2 183/1/2 187/1/2
f 187/1/2 183/1/2 188/1/2
f 187/2/2 188/2/2 189/2/2
f 186/2/2 181/2/2 192/2/2
f 189/2/2 190/2/2 193/2/2
f 187/2/2 189/2/2 193/2/2
f 193/2/2 190/2/2 194/2/2
f 191/2/2 192/2/2 195/2/2
f 192/2/2 181/2/2 196/2/2
f 195/2/2 192/2/2 196/2/2
f 197/2/2 198/2/2 200/2/2
f 200/2/2 198/2/2 201/2/2
f 199/1/2 200/1/2 203/1/2
f 203/1/2 200/1/2 204/1/2
f 203/2/2 204/2/2 205/2/2
f 205/2/2 204/2/2 206/2/2
f 201/2/2 202/2/2 207/2/2
f 207/2/2 202/2/2 208/2/2
f 209/2/2 210/2/2 213/2/2
f 210/1/2 211/1/2 214/1/2
f 213/2/2 210/2/2 214/2/2
f 211/2/2 212/2/2 215/2/2
f 214/1/2 211/1/2 215/1/2
f 215/2/2 212/2/2 216/2/2
f 217/2/2 218/2/2 219/2/2
f 219/2/2 218/2/2 220/2/2
f 220/2/2 218/2/2 221/2/2
f 221/2/2 218/2/2 222/2/2
f 223/2/2 224/2/2 227/2/2
f 224/1/2 225/1/2 228/1/2
f 227/2/2 224/2/2 228/2/2
f 225/2/2 226/2/2 229/2/2
f 228/1/2 225/1/2 229/1/2
f 229/2/2 226/2/2 230/2/2
f 231/2/2 232/2/2 235/2/2
f 232/1/2 233/1/2 236/1/2
f 235/2/2 232/2/2 236/2/2
f 233/2/2 234/2/2 237/2/2
f 236/1/2 233/1/2 237/1/2
f 237/2/2 234/2/2 238/2/2
f 242/3/3 240/3/3 239/3/3
f 243/3/3 240/3/3 242/3/3
f 245/3/3 242/3/3 241/3/3
f 245/3/3 244/3/3 243/3/3
f 245/3/3 243/3/3 242/3/3
f 246/3/3 244/3/3 245/3/3
f 247/3/3 244/3/3 246/3/3
f 248/3/3 244/3/3 247/3/3
f 249/3/3 247/3/3 246/3/3
f 250/3/3 247/3/3 249/3/3
f 255/3/3 252/3/3 251/3/3
f 256/3/3 252/3/3 255/3/3
f 257/3/3 254/3/3 253/3/3
f 258/3/3 254/3/3 257/3/3
f 263/3/3 260/3/3 259/3/3
f 264/3/3 260/3/3 263/3/3
f 265/3/3 262/3/3 261/3/3
f 266/3/3 262/3/3 265/3/3
f 271/2/3 268/2/3 267/2/3
f 271/1/3 269/1/3 268/1/3
f 272/2/3 270/2/3 269/2/3
f 272/1/3 269/1/3 271/1/3
f 273/2/3 270/2/3 272/2/3
f 274/2/3 270/2/3 273/2/3
f 276/2/3 271/2/3 267/2/3
f 277/2/3 271/2/3 276/2/3
f 278/2/3 275/2/3 274/2/3
f 278/2/3 274/2/3 273/2/3
f 279/2/3 275/2/3 278/2/3
f 281/2/3 280/2/3 279/2/3
f 283/2/3 281/2/3 279/2/3
f 283/2/3 282/2/3 281/2/3
f 284/2/3 282/2/3 283/2/3
f 285/1/3 277/1/3 276/1/3
f 286/1/3 277/1/3 285/1/3
f 287/2/3 278/2/3 273/2/3
f 287/1/3 279/1/3 278/1/3
f 288/2/3 283/2/3 279/2/3
f 288/1/3 279/1/3 287/1/3
f 289/2/3 283/2/3 288/2/3
f 290/2/3 286/2/3 285/2/3
f 292/2/3 287/2/3 273/2/3
f 292/2/3 288/2/3 287/2/3
f 293/2/3 288/2/3 292/2/3
f 294/2/3 288/2/3 293/2/3
f 295/2/3 290/2/3 285/2/3
f 296/1/3 291/1/3 290/1/3
f 296/2/3 290/2/3 295/2/3
f 297/2/3 292/2/3 291/2/3
f 297/1/3 291/1/3 296/1/3
f 297/2/3 293/2/3 292/2/3
f 298/2/3 293/2/3 297/2/3
f 302/1/3 300/1/3 299/1/3
f 303/2/3 301/2/3 300/2/3
f 303/1/3 300/1/3 302/1/3
f 304/2/3 301/2/3 303/2/3
f 307/2/3 306/2/3 305/2/3
f 308/2/3 307/2/3 305/2/3
f 309/2/3 308/2/3 305/2/3
f 310/2/3 308/2/3 309/2/3
f 314/1/3 312/1/3 311/1/3
f 315/2/3 313/2/3 312/2/3
f 315/1/3 312/1/3 314/1/3
f 316/2/3 313/2/3 315/2/3
f 320/2/3 318/2/3 317/2/3
f 321/2/3 318/2/3 320/2/3
f 324/2/3 320/2/3 319/2/3
f 324/2/3 322/2/3 321/2/3
f 324/2/3 321/2/3 320/2/3
f 325/2/3 322/2/3 324/2/3
f 326/2/3 322/2/3 325/2/3
f 327/2/3 322/2/3 326/2/3
f 329/2/3 324/2/3 323/2/3
f 330/2/3 324/2/3 329/2/3
f 331/2/3 328/2/3 327/2/3
f 331/2/3 327/2/3 326/2/3
f 332/2/3 328/2/3 331/2/3
f 335/2/3 334/2/3 333/2/3
f 336/2/3 334/2/3 335/2/3
f 341/2/3 338/2/3 337/2/3
f 342/2/3 338/2/3 341/2/3
f 344/2/3 340/2/3 339/2/3
f 345/2/3 340/2/3 344/2/3
f 346/2/3 340/2/3 345/2/3
f 347/2/3 343/2/3 342/2/3
f 347/2/3 345/2/3 344/2/3
f 347/2/3 344/2/3 343/2/3
f 348/2/3 345/2/3 347/2/3
f 349/2/3 345/2/3 348/2/3
f 350/2/3 345/2/3 349/2/3
f 351/2/3 349/2/3 348/2/3
f 352/2/3 349/2/3 351/2/3
f 355/2/3 354/2/3 353/2/3
f 356/2/3 354/2/3 355/2/3
f 359/2/3 358/2/3 357/2/3
f 360/2/3 358/2/3 359/2/3
f 361/2/4 362/2/4 363/2/4
f 363/2/4 362/2/4 364/2/4
f 365/2/4 366/2/4 367/2/4
f 367/2/4 366/2/4 368/2/4
f 369/2/4 370/2/4 371/2/4
f 371/2/4 370/2/4 372/2/4
f 373/2/4 374/2/4 376/2/4
f 376/2/4 374/2/4 377/2/4
f 375/2/4 376/2/4 380/2/4
f 377/2/4 378/2/4 380/2/4
f 376/2/4 377/2/4 380/2/4
f 380/2/4 378/2/4 381/2/4
f 381/2/4 378/2/4 382/2/4
f 379/2/4 380/2/4 385/2/4
f 385/2/4 380/2/4 386/2/4
f 381/2/4 382/2/4 387/2/4
f 382/2/4 383/2/4 387/2/4
f 387/2/4 383/2/4 388/2/4
f 384/2/4 385/2/4 389/2/4
f 389/2/4 385/2/4 390/2/4
f 391/2/4 392/2/4 393/2/4
f 393/2/4 392/2/4 394/2/4
f 395/2/4 396/2/4 397/2/4
f 397/2/4 396/2/4 398/2/4
f 398/2/4 399/2/4 402/2/4
f 402/2/4 399/2/4 403/2/4
f 400/2/4 401/2/4 404/2/4
f 404/2/4 401/2/4 405/2/4
f 405/2/4 401/2/4 406/2/4
f 403/2/4 404/2/4 407/2/4
f 404/2/4 405/2/4 407/2/4
f 407/2/4 405/2/4 408/2/4
f 408/2/4 405/2/4 409/2/4
f 409/2/4 405/2/4 410/2/4
f 408/2/4 409/2/4 411/2/4
f 411/2/4 409/2/4 412/2/4
f 413/2/4 414/2/4 415/2/4
f 415/2/4 414/2/4 416/2/4
f 417/2/4 418/2/4 419/2/4
f 419/2/4 418/2/4 420/2/4
f 421/2/4 422/2/4 423/2/4
f 423/2/4 422/2/4 424/2/4
f 425/2/4 426/2/4 427/2/4
f 425/2/4 427/2/4 429/2/4
f 427/2/4 428/2/4 429/2/4
f 429/2/4 428/2/4 430/2/4
f 425/2/4 429/2/4 431/2/4
f 430/2/4 428/2/4 432/2/4
f 432/2/4 428/2/4 433/2/4
f 431/2/4 432/2/4 433/2/4
f 433/2/4 428/2/4 434/2/4
f 425/2/4 431/2/4 435/2/4
f 431/2/4 433/2/4 435/2/4
f 435/2/4 433/2/4 436/2/4
f 437/3/4 438/3/4 439/3/4
f 439/3/4 438/3/4 440/3/4
f 441/3/4 442/3/4 443/3/4
f 443/3/4 442/3/4 444/3/4
f 447/2/5 446/2/5 445/2/5
f 448/2/5 446/2/5 447/2/5
f 451/2/5 450/2/5 449/2/5
f 452/2/5 450/2/5 451/2/5
f 457/2/5 454/2/5 453/2/5
f 458/2/5 454/2/5 457/2/5
f 459/2/5 456/2/5 455/2/5
f 460/2/5 456/2/5 459/2/5
f 465/2/5 462/2/5 461/2/5
f 466/1/5 463/1/5 462/1/5
f 466/2/5 462/2/5 465/2/5
f 467/2/5 464/2/5 463/2/5
f 467/1/5 463/1/5 466/1/5
f 468/2/5 464/2/5 467/2/5
f 470/2/5 465/2/5 461/2/5
f 471/2/5 464/2/5 468/2/5
f 473/2/5 470/2/5 469/2/5
f 473/2/5 465/2/5 470/2/5
f 474/2/5 465/2/5 473/2/5
f 475/2/5 472/2/5 471/2/5
f 475/2/5 471/2/5 468/2/5
f 476/2/5 472/2/5 475/2/5
f 477/2/5 473/2/5 469/2/5
f 478/2/5 473/2/5 477/2/5
f 481/2/5 472/2/5 476/2/5
f 482/2/5 472/2/5 481/2/5
f 483/2/5 479/2/5 478/2/5
f 484/2/5 481/2/5 480/2/5
f 485/2/5 483/2/5 478/2/5
f 485/2/5 484/2/5 483/2/5
f 486/2/5 481/2/5 484/2/5
f 486/2/5 484/2/5 485/2/5
f 490/3/5 488/3/5 487/3/5
f 491/3/5 488/3/5 490/3/5
f 493/3/5 490/3/5 489/3/5
f 493/3/5 492/3/5 491/3/5
f 493/3/5 491/3/5 490/3/5
f 494/3/5 492/3/5 493/3/5
f 495/3/5 492/3/5 494/3/5
f 496/3/5 492/3/5 495/3/5
f 502/1/5 498/1/5 497/1/5
f 503/1/5 498/1/5 502/1/5
f 504/1/5 500/1/5 499/1/5
f 505/1/5 500/1/5 504/1/5
f 507/2/5 502/2/5 501/2/5
f 508/2/5 502/2/5 507/2/5
f 511/2/5 506/2/5 505/2/5
f 512/2/5 506/2/5 511/2/5
f 513/2/5 509/2/5 508/2/5
f 514/2/5 509/2/5 513/2/5
f 515/2/5 511/2/5 510/2/5
f 516/2/5 511/2/5 515/2/5
f 521/3/5 518/3/5 517/3/5
f 522/3/5 518/3/5 521/3/5
f 523/3/5 520/3/5 519/3/5
f 524/3/5 520/3/5 523/3/5
f 529/2/5 526/2/5 525/2/5
f 530/2/5 526/2/5 529/2/5
f 531/2/5 528/2/5 527/2/5
f 532/2/5 528/2/5 531/2/5
f 533/1/5 530/1/5 529/1/5
f 534/1/5 530/1/5 533/1/5
f 535/1/5 532/1/5 531/1/5
f 536/1/5 532/1/5 535/1/5
f 537/2/5 534/2/5 533/2/5
f 538/2/5 534/2/5 537/2/5
f 539/2/5 536/2/5 535/2/5
f 540/2/5 536/2/5 539/2/5
f 543/3/5 542/3/5 541/3/5
f 544/3/5 542/3/5 543/3/5
f 545/3/6 546/3/6 549/3/6
f 549/3/6 546/3/6 550/3/6
f 547/3/6 548/3/6 551/3/6
f 551/3/6 548/3/6 552/3/6
f 553/2/6 554/2/6 559/2/6
f 559/2/6 554/2/6 560/2/6
f 555/2/6 556/2/6 561/2/6
f 561/2/6 556/2/6 562/2/6
f 557/2/6 558/2/6 565/2/6
f 565/2/6 558/2/6 566/2/6
f 563/2/6 564/2/6 567/2/6
f 567/2/6 564/2/6 568/2/6
f 565/1/6 566/1/6 569/1/6
f 569/1/6 566/1/6 570/1/6
f 567/1/6 568/1/6 571/1/6
f 571/1/6 568/1/6 572/1/6
f 569/2/6 570/2/6 573/2/6
f 573/2/6 570/2/6 574/2/6
f 571/2/6 572/2/6 579/2/6
f 579/2/6 572/2/6 580/2/6
f 575/2/6 576/2/6 581/2/6
f 581/2/6 576/2/6 582/2/6
f 577/2/6 578/2/6 583/2/6
f 583/2/6 578/2/6 584/2/6
f 585/3/6 586/3/6 587/3/6
f 587/3/6 586/3/6 588/3/6
f 589/3/6 590/3/6 592/3/6
f 592/3/6 590/3/6 593/3/6
f 591/3/6 592/3/6 595/3/6
f 593/3/6 594/3/6 595/3/6
f 592/3/6 593/3/6 595/3/6
f 595/3/6 594/3/6 596/3/6
f 597/2/6 598/2/6 601/2/6
f 601/2/6 598/2/6 602/2/6
f 599/2/6 600/2/6 603/2/6
f 603/2/6 600/2/6 604/2/6
f 601/1/6 602/1/6 605/1/6
f 605/1/6 602/1/6 606/1/6
f 603/1/6 604/1/6 607/1/6
f 607/1/6 604/1/6 608/1/6
f 605/2/6 606/2/6 609/2/6
f 609/2/6 606/2/6 610/2/6
f 607/2/6 608/2/6 611/2/6
f 611/2/6 608/2/6 612/2/6
f 613/3/6 614/3/6 615/3/6
f 615/3/6 614/3/6 616/3/6
f 617/2/6 618/2/6 622/2/6
f 619/2/6 620/2/6 623/2/6
f 621/2/6 622/2/6 625/2/6
f 622/2/6 618/2/6 626/2/6
f 625/2/6 622/2/6 626/2/6
f 623/2/6 624/2/6 627/2/6
f 619/2/6 623/2/6 627/2/6
f 627/2/6 624/2/6 628/2/6
f 625/1/6 626/1/6 629/1/6
f 629/1/6 626/1/6 630/1/6
f 627/1/6 628/1/6 631/1/6
f 631/1/6 628/1/6 632/1/6
f 629/2/6 630/2/6 633/2/6
f 633/2/6 630/2/6 634/2/6
f 631/2/6 632/2/6 635/2/6
f 635/2/6 632/2/6 636/2/6
f 634/2/6 630/2/6 637/2/6
f 637/2/6 630/2/6 638/2/6
f 631/2/6 635/2/6 639/2/6
f 639/2/6 635/2/6 640/2/6
f 641/2/6 642/2/6 645/2/6
f 645/2/6 642/2/6 646/2/6
f 643/2/6 644/2/6 647/2/6
f 647/2/6 644/2/6 648/2/6
f 645/1/6 646/1/6 649/1/6
f 649/1/6 646/1/6 650/1/6
f 647/1/6 648/1/6 651/1/6
f 651/1/6 648/1/6 652/1/6
f 649/2/6 650/2/6 653/2/6
f 651/2/6 652/2/6 654/2/6
f 649/2/6 653/2/6 655/2/6
f 653/2/6 654/2/6 655/2/6
f 654/2/6 652/2/6 656/2/6
f 655/2/6 654/2/6 656/2/6
f 657/2/6 658/2/6 661/2/6
f 659/2/6 660/2/6 662/2/6
f 657/2/6 661/2/6 663/2/6
f 661/2/6 662/2/6 663/2/6
f 662/2/6 660/2/6 664/2/6
f 663/2/6 662/2/6 664/2/6
f 665/2/6 666/2/6 667/2/6
f 667/2/6 666/2/6 668/2/6
f 669/2/6 670/2/6 671/2/6
f 671/2/6 670/2/6 672/2/6
f 673/2/6 674/2/6 675/2/6
f 675/2/6 674/2/6 676/2/6
