# MagicaVoxel @ ephtracy

# material
mtllib ´Ù¸®.mtl
usemtl palette

# normals
vn -1 0 0
vn 1 0 0
vn 0 0 1
vn 0 0 -1
vn 0 -1 0
vn 0 1 0

# texcoords
vt 0.0332031 0.5
vt 0.537109 0.5
vt 0.986328 0.5

# verts
v -1 0 1.5
v -1 0 -1.5
v -1 1 -0.5
v -1 1 -1.5
v -1 2 1.5
v -1 2 -0.5
v -1 6 1.5
v -1 6 -0.5
v -1 9 1.5
v -1 9 -0.5
v 1 0 1.5
v 1 0 -1.5
v 1 1 -0.5
v 1 1 -1.5
v 1 2 1.5
v 1 2 -0.5
v 1 6 1.5
v 1 6 -0.5
v 1 9 1.5
v 1 9 -0.5
v -1 0 1.5
v -1 2 1.5
v -1 6 1.5
v -1 9 1.5
v 1 0 1.5
v 1 2 1.5
v 1 6 1.5
v 1 9 1.5
v -1 1 -0.5
v -1 2 -0.5
v -1 6 -0.5
v -1 9 -0.5
v 1 1 -0.5
v 1 2 -0.5
v 1 6 -0.5
v 1 9 -0.5
v -1 0 -1.5
v -1 1 -1.5
v 1 0 -1.5
v 1 1 -1.5
v -1 0 1.5
v 1 0 1.5
v -1 0 -1.5
v 1 0 -1.5
v -1 1 -0.5
v 1 1 -0.5
v -1 1 -1.5
v 1 1 -1.5
v -1 9 1.5
v 1 9 1.5
v -1 9 -0.5
v 1 9 -0.5

# faces
f 3/2/1 2/2/1 1/2/1
f 4/2/1 2/2/1 3/2/1
f 5/2/1 3/2/1 1/2/1
f 6/2/1 3/2/1 5/2/1
f 7/3/1 6/3/1 5/3/1
f 8/3/1 6/3/1 7/3/1
f 9/1/1 8/1/1 7/1/1
f 10/1/1 8/1/1 9/1/1
f 11/2/2 12/2/2 13/2/2
f 13/2/2 12/2/2 14/2/2
f 11/2/2 13/2/2 15/2/2
f 15/2/2 13/2/2 16/2/2
f 15/3/2 16/3/2 17/3/2
f 17/3/2 16/3/2 18/3/2
f 17/1/2 18/1/2 19/1/2
f 19/1/2 18/1/2 20/1/2
f 25/2/3 22/2/3 21/2/3
f 26/3/3 23/3/3 22/3/3
f 26/2/3 22/2/3 25/2/3
f 27/1/3 24/1/3 23/1/3
f 27/3/3 23/3/3 26/3/3
f 28/1/3 24/1/3 27/1/3
f 29/2/4 30/2/4 33/2/4
f 30/3/4 31/3/4 34/3/4
f 33/2/4 30/2/4 34/2/4
f 31/1/4 32/1/4 35/1/4
f 34/3/4 31/3/4 35/3/4
f 35/1/4 32/1/4 36/1/4
f 37/2/4 38/2/4 39/2/4
f 39/2/4 38/2/4 40/2/4
f 43/2/5 42/2/5 41/2/5
f 44/2/5 42/2/5 43/2/5
f 45/2/6 46/2/6 47/2/6
f 47/2/6 46/2/6 48/2/6
f 49/1/6 50/1/6 51/1/6
f 51/1/6 50/1/6 52/1/6
