# MagicaVoxel @ ephtracy

# material
mtllib ¸Ó¸®.mtl
usemtl palette

# normals
vn -1 0 0
vn 1 0 0
vn 0 0 1
vn 0 0 -1
vn 0 -1 0
vn 0 1 0

# texcoords
vt 0.0332031 0.5
vt 0.0683594 0.5
vt 0.845703 0.5
vt 0.958984 0.5
vt 0.974609 0.5
vt 0.982422 0.5
vt 0.986328 0.5
vt 0.990234 0.5

# verts
v -3.5 0 -1.5
v -3.5 0 -2.5
v -3.5 2 1.5
v -3.5 2 -1.5
v -3.5 3 2.5
v -3.5 3 1.5
v -3.5 3 -1.5
v -3.5 3 -2.5
v -3.5 3 -3.5
v -3.5 4 4.5
v -3.5 4 3.5
v -3.5 4 1.5
v -3.5 4 0.5
v -3.5 4 -2.5
v -3.5 4 -3.5
v -3.5 5 4.5
v -3.5 5 3.5
v -3.5 5 1.5
v -3.5 5 0.5
v -3.5 5 -0.5
v -3.5 5 -2.5
v -3.5 6 2.5
v -3.5 6 -0.5
v -2.5 1 1.5
v -2.5 1 -0.5
v -2.5 1 -1.5
v -2.5 2 2.5
v -2.5 2 1.5
v -2.5 2 -0.5
v -2.5 2 -1.5
v -2.5 3 4.5
v -2.5 3 3.5
v -2.5 3 2.5
v -2.5 3 1.5
v -2.5 4 4.5
v -2.5 4 3.5
v -2.5 4 -2.5
v -2.5 4 -3.5
v -2.5 5 4.5
v -2.5 5 3.5
v -2.5 5 -0.5
v -2.5 5 -1.5
v -2.5 5 -2.5
v -2.5 6 4.5
v -2.5 6 3.5
v -2.5 6 2.5
v -2.5 6 -0.5
v -2.5 6 -1.5
v -2.5 6 -3.5
v -2.5 7 2.5
v -2.5 7 -0.5
v -1.5 1 2.5
v -1.5 1 1.5
v -1.5 2 5.5
v -1.5 2 4.5
v -1.5 2 3.5
v -1.5 2 2.5
v -1.5 2 1.5
v -1.5 3 6.5
v -1.5 3 5.5
v -1.5 3 4.5
v -1.5 3 3.5
v -1.5 3 2.5
v -1.5 4 5.5
v -1.5 4 4.5
v -1.5 4 3.5
v -1.5 5 6.5
v -1.5 5 5.5
v -1.5 5 4.5
v -1.5 5 3.5
v -1.5 6 -0.5
v -1.5 6 -1.5
v -1.5 6 -2.5
v -1.5 7 -0.5
v -1.5 7 -2.5
v -0.5 1 5.5
v -0.5 1 4.5
v -0.5 2 6.5
v -0.5 2 5.5
v -0.5 2 4.5
v -0.5 3 6.5
v -0.5 3 5.5
v -0.5 3 4.5
v -0.5 3 3.5
v -0.5 4 5.5
v -0.5 4 4.5
v -0.5 4 3.5
v -0.5 5 6.5
v -0.5 5 5.5
v -0.5 5 4.5
v -0.5 5 3.5
v -0.5 6 6.5
v -0.5 6 5.5
v -0.5 6 4.5
v -0.5 6 3.5
v 0.5 4 -2.5
v 0.5 4 -3.5
v 0.5 5 -2.5
v 0.5 5 -3.5
v 1.5 3 -2.5
v 1.5 3 -3.5
v 1.5 4 -2.5
v 1.5 4 -3.5
v 2.5 0 -1.5
v 2.5 0 -2.5
v 2.5 1 -1.5
v 2.5 1 -2.5
v -2.5 0 -1.5
v -2.5 0 -2.5
v -2.5 1 -1.5
v -2.5 1 -2.5
v -2.5 4 4.5
v -2.5 4 3.5
v -2.5 5 4.5
v -2.5 5 3.5
v -1.5 3 4.5
v -1.5 3 3.5
v -1.5 3 -2.5
v -1.5 3 -3.5
v -1.5 4 4.5
v -1.5 4 3.5
v -1.5 4 -2.5
v -1.5 4 -3.5
v -1.5 5 4.5
v -1.5 5 3.5
v -1.5 6 4.5
v -1.5 6 3.5
v -0.5 4 -2.5
v -0.5 4 -3.5
v -0.5 5 -2.5
v -0.5 5 -3.5
v 0.5 1 5.5
v 0.5 1 4.5
v 0.5 2 6.5
v 0.5 2 5.5
v 0.5 3 6.5
v 0.5 3 4.5
v 0.5 3 3.5
v 0.5 4 6.5
v 0.5 4 5.5
v 0.5 4 4.5
v 0.5 4 3.5
v 0.5 5 5.5
v 0.5 5 4.5
v 0.5 5 3.5
v 0.5 6 6.5
v 0.5 6 5.5
v 0.5 6 4.5
v 0.5 6 3.5
v 0.5 6 -1.5
v 0.5 6 -2.5
v 0.5 7 -1.5
v 0.5 7 -2.5
v 1.5 1 2.5
v 1.5 1 1.5
v 1.5 2 3.5
v 1.5 2 2.5
v 1.5 2 1.5
v 1.5 3 6.5
v 1.5 3 4.5
v 1.5 3 3.5
v 1.5 3 2.5
v 1.5 4 6.5
v 1.5 4 5.5
v 1.5 4 4.5
v 1.5 4 3.5
v 1.5 5 5.5
v 1.5 5 4.5
v 1.5 5 3.5
v 1.5 5 -1.5
v 1.5 5 -3.5
v 1.5 6 -0.5
v 1.5 6 -1.5
v 1.5 6 -3.5
v 1.5 7 -0.5
v 1.5 7 -1.5
v 2.5 1 1.5
v 2.5 1 -0.5
v 2.5 1 -1.5
v 2.5 2 2.5
v 2.5 2 1.5
v 2.5 2 -0.5
v 2.5 2 -1.5
v 2.5 3 3.5
v 2.5 3 2.5
v 2.5 3 1.5
v 2.5 3 -2.5
v 2.5 3 -3.5
v 2.5 5 -0.5
v 2.5 5 -1.5
v 2.5 5 -2.5
v 2.5 5 -3.5
v 2.5 6 3.5
v 2.5 6 2.5
v 2.5 6 -0.5
v 2.5 6 -1.5
v 2.5 7 2.5
v 2.5 7 -0.5
v 3.5 0 -1.5
v 3.5 0 -2.5
v 3.5 2 1.5
v 3.5 2 -1.5
v 3.5 2 -2.5
v 3.5 3 2.5
v 3.5 3 1.5
v 3.5 3 -1.5
v 3.5 3 -2.5
v 3.5 4 1.5
v 3.5 4 0.5
v 3.5 5 1.5
v 3.5 5 0.5
v 3.5 5 -0.5
v 3.5 5 -2.5
v 3.5 6 2.5
v 3.5 6 -0.5
v -1.5 3 6.5
v -1.5 5 6.5
v -0.5 2 6.5
v -0.5 3 6.5
v -0.5 5 6.5
v -0.5 6 6.5
v 0.5 2 6.5
v 0.5 3 6.5
v 0.5 4 6.5
v 0.5 6 6.5
v 1.5 3 6.5
v 1.5 4 6.5
v -1.5 2 5.5
v -1.5 3 5.5
v -0.5 1 5.5
v -0.5 2 5.5
v -0.5 3 5.5
v 0.5 1 5.5
v 0.5 2 5.5
v 0.5 4 5.5
v 0.5 5 5.5
v 1.5 4 5.5
v 1.5 5 5.5
v -3.5 4 4.5
v -3.5 5 4.5
v -2.5 3 4.5
v -2.5 4 4.5
v -2.5 5 4.5
v -2.5 6 4.5
v -1.5 3 4.5
v -1.5 4 4.5
v -1.5 5 4.5
v -1.5 6 4.5
v -0.5 4 4.5
v -0.5 5 4.5
v -0.5 6 4.5
v 0.5 5 4.5
v 0.5 6 4.5
v -2.5 4 3.5
v -2.5 5 3.5
v -1.5 2 3.5
v -1.5 3 3.5
v -1.5 4 3.5
v -1.5 5 3.5
v -1.5 6 3.5
v -0.5 3 3.5
v -0.5 4 3.5
v -0.5 5 3.5
v -0.5 6 3.5
v 0.5 3 3.5
v 0.5 4 3.5
v 0.5 5 3.5
v 0.5 6 3.5
v 1.5 2 3.5
v 1.5 3 3.5
v 1.5 4 3.5
v 1.5 5 3.5
v 2.5 3 3.5
v 2.5 6 3.5
v -3.5 3 2.5
v -3.5 6 2.5
v -2.5 2 2.5
v -2.5 3 2.5
v -2.5 6 2.5
v -2.5 7 2.5
v -1.5 1 2.5
v -1.5 2 2.5
v -1.5 3 2.5
v 1.5 1 2.5
v 1.5 2 2.5
v 1.5 3 2.5
v 2.5 2 2.5
v 2.5 3 2.5
v 2.5 6 2.5
v 2.5 7 2.5
v 3.5 3 2.5
v 3.5 6 2.5
v -3.5 2 1.5
v -3.5 3 1.5
v -2.5 1 1.5
v -2.5 2 1.5
v -2.5 3 1.5
v -1.5 1 1.5
v -1.5 2 1.5
v 1.5 1 1.5
v 1.5 2 1.5
v 2.5 1 1.5
v 2.5 2 1.5
v 2.5 3 1.5
v 3.5 2 1.5
v 3.5 3 1.5
v -3.5 0 -1.5
v -3.5 2 -1.5
v -2.5 0 -1.5
v -2.5 1 -1.5
v -2.5 2 -1.5
v 2.5 0 -1.5
v 2.5 1 -1.5
v 2.5 2 -1.5
v 3.5 0 -1.5
v 3.5 2 -1.5
v -1.5 4 5.5
v -1.5 5 5.5
v -0.5 4 5.5
v -0.5 5 5.5
v -0.5 6 5.5
v 0.5 5 5.5
v 0.5 6 5.5
v -1.5 2 4.5
v -1.5 3 4.5
v -1.5 4 4.5
v -0.5 1 4.5
v -0.5 2 4.5
v -0.5 3 4.5
v -0.5 4 4.5
v 0.5 1 4.5
v 0.5 3 4.5
v 0.5 4 4.5
v 1.5 3 4.5
v 1.5 4 4.5
v -3.5 4 3.5
v -3.5 5 3.5
v -2.5 4 3.5
v -2.5 5 3.5
v -3.5 5 -0.5
v -3.5 6 -0.5
v -2.5 5 -0.5
v -2.5 6 -0.5
v -2.5 7 -0.5
v -1.5 6 -0.5
v -1.5 7 -0.5
v 1.5 6 -0.5
v 1.5 7 -0.5
v 2.5 5 -0.5
v 2.5 6 -0.5
v 2.5 7 -0.5
v 3.5 5 -0.5
v 3.5 6 -0.5
v 0.5 6 -1.5
v 0.5 7 -1.5
v 1.5 5 -1.5
v 1.5 6 -1.5
v 1.5 7 -1.5
v 2.5 5 -1.5
v 2.5 6 -1.5
v -3.5 0 -2.5
v -3.5 3 -2.5
v -3.5 4 -2.5
v -3.5 5 -2.5
v -2.5 0 -2.5
v -2.5 1 -2.5
v -2.5 3 -2.5
v -2.5 4 -2.5
v -2.5 5 -2.5
v -1.5 2 -2.5
v -1.5 3 -2.5
v -1.5 4 -2.5
v -1.5 6 -2.5
v -1.5 7 -2.5
v -0.5 2 -2.5
v -0.5 3 -2.5
v -0.5 4 -2.5
v -0.5 5 -2.5
v 0.5 2 -2.5
v 0.5 3 -2.5
v 0.5 4 -2.5
v 0.5 5 -2.5
v 0.5 6 -2.5
v 0.5 7 -2.5
v 1.5 2 -2.5
v 1.5 3 -2.5
v 1.5 4 -2.5
v 2.5 0 -2.5
v 2.5 1 -2.5
v 2.5 2 -2.5
v 2.5 3 -2.5
v 2.5 5 -2.5
v 3.5 0 -2.5
v 3.5 2 -2.5
v 3.5 3 -2.5
v 3.5 5 -2.5
v -3.5 3 -3.5
v -3.5 4 -3.5
v -2.5 4 -3.5
v -2.5 6 -3.5
v -1.5 3 -3.5
v -1.5 4 -3.5
v -0.5 4 -3.5
v -0.5 5 -3.5
v 0.5 4 -3.5
v 0.5 5 -3.5
v 0.5 6 -3.5
v 1.5 3 -3.5
v 1.5 4 -3.5
v 1.5 5 -3.5
v 1.5 6 -3.5
v 2.5 3 -3.5
v 2.5 5 -3.5
v -3.5 0 -1.5
v -2.5 0 -1.5
v 2.5 0 -1.5
v 3.5 0 -1.5
v -3.5 0 -2.5
v -2.5 0 -2.5
v 2.5 0 -2.5
v 3.5 0 -2.5
v -0.5 1 5.5
v 0.5 1 5.5
v -0.5 1 4.5
v 0.5 1 4.5
v -1.5 1 2.5
v 1.5 1 2.5
v -2.5 1 1.5
v -1.5 1 1.5
v 1.5 1 1.5
v 2.5 1 1.5
v -2.5 1 -0.5
v -1.5 1 -0.5
v 1.5 1 -0.5
v 2.5 1 -0.5
v -2.5 1 -1.5
v 2.5 1 -1.5
v -2.5 1 -2.5
v 2.5 1 -2.5
v -0.5 2 6.5
v 0.5 2 6.5
v -1.5 2 5.5
v -0.5 2 5.5
v 0.5 2 5.5
v -1.5 2 4.5
v -0.5 2 4.5
v -1.5 2 3.5
v 1.5 2 3.5
v -2.5 2 2.5
v -1.5 2 2.5
v 1.5 2 2.5
v 2.5 2 2.5
v -3.5 2 1.5
v -2.5 2 1.5
v -1.5 2 1.5
v 1.5 2 1.5
v 2.5 2 1.5
v 3.5 2 1.5
v -2.5 2 -0.5
v 2.5 2 -0.5
v -3.5 2 -1.5
v -2.5 2 -1.5
v 2.5 2 -1.5
v 3.5 2 -1.5
v -1.5 3 6.5
v -0.5 3 6.5
v 0.5 3 6.5
v 1.5 3 6.5
v -1.5 3 5.5
v -0.5 3 5.5
v -2.5 3 4.5
v -1.5 3 4.5
v -0.5 3 4.5
v 0.5 3 4.5
v 1.5 3 4.5
v -2.5 3 3.5
v -1.5 3 3.5
v -0.5 3 3.5
v 0.5 3 3.5
v 1.5 3 3.5
v 2.5 3 3.5
v -3.5 3 2.5
v -2.5 3 2.5
v -1.5 3 2.5
v 1.5 3 2.5
v 2.5 3 2.5
v 3.5 3 2.5
v -3.5 3 1.5
v -2.5 3 1.5
v 2.5 3 1.5
v 3.5 3 1.5
v -3.5 3 -2.5
v -2.5 3 -2.5
v -1.5 3 -2.5
v 1.5 3 -2.5
v 2.5 3 -2.5
v -3.5 3 -3.5
v -1.5 3 -3.5
v 1.5 3 -3.5
v 2.5 3 -3.5
v -3.5 4 4.5
v -2.5 4 4.5
v -1.5 4 4.5
v -0.5 4 4.5
v 0.5 4 4.5
v 1.5 4 4.5
v -3.5 4 3.5
v -2.5 4 3.5
v -1.5 4 3.5
v -0.5 4 3.5
v 0.5 4 3.5
v 1.5 4 3.5
v -1.5 4 -2.5
v -0.5 4 -2.5
v 0.5 4 -2.5
v 1.5 4 -2.5
v -1.5 4 -3.5
v -0.5 4 -3.5
v 0.5 4 -3.5
v 1.5 4 -3.5
v -2.5 5 4.5
v -1.5 5 4.5
v -2.5 5 3.5
v -1.5 5 3.5
v -0.5 5 -2.5
v 0.5 5 -2.5
v -0.5 5 -3.5
v 0.5 5 -3.5
v 0.5 4 6.5
v 1.5 4 6.5
v -1.5 4 5.5
v -0.5 4 5.5
v 0.5 4 5.5
v 1.5 4 5.5
v -2.5 4 4.5
v -1.5 4 4.5
v -0.5 4 4.5
v -2.5 4 3.5
v -1.5 4 3.5
v -3.5 4 -2.5
v -2.5 4 -2.5
v -3.5 4 -3.5
v -2.5 4 -3.5
v -1.5 5 6.5
v -0.5 5 6.5
v -1.5 5 5.5
v -0.5 5 5.5
v 0.5 5 5.5
v 1.5 5 5.5
v -3.5 5 4.5
v -2.5 5 4.5
v -1.5 5 4.5
v -0.5 5 4.5
v 0.5 5 4.5
v 1.5 5 4.5
v -3.5 5 3.5
v -2.5 5 3.5
v -1.5 5 3.5
v -0.5 5 3.5
v 0.5 5 3.5
v 1.5 5 3.5
v -3.5 5 -0.5
v -2.5 5 -0.5
v 2.5 5 -0.5
v 3.5 5 -0.5
v -2.5 5 -1.5
v 1.5 5 -1.5
v 2.5 5 -1.5
v -3.5 5 -2.5
v -2.5 5 -2.5
v 2.5 5 -2.5
v 3.5 5 -2.5
v 1.5 5 -3.5
v 2.5 5 -3.5
v -0.5 6 6.5
v 0.5 6 6.5
v -0.5 6 5.5
v 0.5 6 5.5
v -2.5 6 4.5
v -1.5 6 4.5
v -0.5 6 4.5
v 0.5 6 4.5
v -2.5 6 3.5
v -1.5 6 3.5
v -0.5 6 3.5
v 0.5 6 3.5
v 2.5 6 3.5
v -3.5 6 2.5
v -2.5 6 2.5
v 2.5 6 2.5
v 3.5 6 2.5
v -3.5 6 -0.5
v -2.5 6 -0.5
v -1.5 6 -0.5
v 1.5 6 -0.5
v 2.5 6 -0.5
v 3.5 6 -0.5
v -2.5 6 -1.5
v -1.5 6 -1.5
v 0.5 6 -1.5
v 1.5 6 -1.5
v 2.5 6 -1.5
v -1.5 6 -2.5
v 0.5 6 -2.5
v -2.5 6 -3.5
v 0.5 6 -3.5
v 1.5 6 -3.5
v -2.5 7 2.5
v 2.5 7 2.5
v -2.5 7 -0.5
v -1.5 7 -0.5
v 1.5 7 -0.5
v 2.5 7 -0.5
v 0.5 7 -1.5
v 1.5 7 -1.5
v -1.5 7 -2.5
v 0.5 7 -2.5

# faces
f 4/6/1 2/6/1 1/6/1
f 6/7/1 4/7/1 3/7/1
f 7/6/1 2/6/1 4/6/1
f 7/7/1 4/7/1 6/7/1
f 8/6/1 2/6/1 7/6/1
f 12/7/1 6/7/1 5/7/1
f 12/7/1 7/7/1 6/7/1
f 12/7/1 8/7/1 7/7/1
f 13/7/1 8/7/1 12/7/1
f 14/6/1 9/6/1 8/6/1
f 14/7/1 8/7/1 13/7/1
f 15/6/1 9/6/1 14/6/1
f 16/3/1 11/3/1 10/3/1
f 17/3/1 11/3/1 16/3/1
f 18/1/1 13/1/1 12/1/1
f 18/7/1 12/7/1 5/7/1
f 19/7/1 14/7/1 13/7/1
f 19/1/1 13/1/1 18/1/1
f 20/7/1 14/7/1 19/7/1
f 21/7/1 14/7/1 20/7/1
f 22/7/1 18/7/1 5/7/1
f 22/7/1 20/7/1 19/7/1
f 22/7/1 19/7/1 18/7/1
f 23/7/1 20/7/1 22/7/1
f 28/7/1 25/7/1 24/7/1
f 29/1/1 26/1/1 25/1/1
f 29/7/1 25/7/1 28/7/1
f 30/1/1 26/1/1 29/1/1
f 33/1/1 28/1/1 27/1/1
f 34/1/1 28/1/1 33/1/1
f 35/3/1 32/3/1 31/3/1
f 36/7/1 33/7/1 32/7/1
f 36/3/1 32/3/1 35/3/1
f 40/7/1 33/7/1 36/7/1
f 43/6/1 38/6/1 37/6/1
f 44/3/1 40/3/1 39/3/1
f 45/7/1 33/7/1 40/7/1
f 45/3/1 40/3/1 44/3/1
f 46/7/1 33/7/1 45/7/1
f 47/7/1 42/7/1 41/7/1
f 48/6/1 43/6/1 42/6/1
f 48/7/1 42/7/1 47/7/1
f 49/6/1 38/6/1 43/6/1
f 49/6/1 43/6/1 48/6/1
f 50/7/1 47/7/1 46/7/1
f 51/7/1 47/7/1 50/7/1
f 57/1/1 53/1/1 52/1/1
f 58/1/1 53/1/1 57/1/1
f 60/6/1 55/6/1 54/6/1
f 61/6/1 55/6/1 60/6/1
f 62/7/1 57/7/1 56/7/1
f 63/7/1 57/7/1 62/7/1
f 64/6/1 61/6/1 60/6/1
f 64/6/1 60/6/1 59/6/1
f 65/6/1 61/6/1 64/6/1
f 67/6/1 64/6/1 59/6/1
f 68/6/1 64/6/1 67/6/1
f 69/3/1 66/3/1 65/3/1
f 70/3/1 66/3/1 69/3/1
f 74/7/1 72/7/1 71/7/1
f 74/7/1 73/7/1 72/7/1
f 75/7/1 73/7/1 74/7/1
f 79/6/1 77/6/1 76/6/1
f 80/6/1 77/6/1 79/6/1
f 81/6/1 79/6/1 78/6/1
f 82/6/1 79/6/1 81/6/1
f 86/3/1 84/3/1 83/3/1
f 87/3/1 84/3/1 86/3/1
f 89/6/1 86/6/1 85/6/1
f 90/6/1 86/6/1 89/6/1
f 92/6/1 89/6/1 88/6/1
f 93/6/1 89/6/1 92/6/1
f 94/3/1 91/3/1 90/3/1
f 95/3/1 91/3/1 94/3/1
f 98/7/1 97/7/1 96/7/1
f 99/7/1 97/7/1 98/7/1
f 102/7/1 101/7/1 100/7/1
f 103/7/1 101/7/1 102/7/1
f 106/5/1 105/5/1 104/5/1
f 107/5/1 105/5/1 106/5/1
f 108/6/2 109/6/2 110/6/2
f 110/6/2 109/6/2 111/6/2
f 112/3/2 113/3/2 114/3/2
f 114/3/2 113/3/2 115/3/2
f 116/3/2 117/3/2 120/3/2
f 120/3/2 117/3/2 121/3/2
f 118/6/2 119/6/2 122/6/2
f 122/6/2 119/6/2 123/6/2
f 124/3/2 125/3/2 126/3/2
f 126/3/2 125/3/2 127/3/2
f 128/6/2 129/6/2 130/6/2
f 130/6/2 129/6/2 131/6/2
f 132/6/2 133/6/2 135/6/2
f 134/6/2 135/6/2 136/6/2
f 135/6/2 133/6/2 137/6/2
f 136/6/2 135/6/2 137/6/2
f 137/3/2 138/3/2 141/3/2
f 141/3/2 138/3/2 142/3/2
f 139/6/2 140/6/2 143/6/2
f 139/6/2 143/6/2 146/6/2
f 146/6/2 143/6/2 147/6/2
f 144/3/2 145/3/2 148/3/2
f 148/3/2 145/3/2 149/3/2
f 150/7/2 151/7/2 152/7/2
f 152/7/2 151/7/2 153/7/2
f 154/1/2 155/1/2 157/1/2
f 157/1/2 155/1/2 158/1/2
f 156/7/2 157/7/2 161/7/2
f 161/7/2 157/7/2 162/7/2
f 159/6/2 160/6/2 163/6/2
f 163/6/2 160/6/2 164/6/2
f 164/6/2 160/6/2 165/6/2
f 164/6/2 165/6/2 167/6/2
f 165/3/2 166/3/2 168/3/2
f 167/6/2 165/6/2 168/6/2
f 168/3/2 166/3/2 169/3/2
f 170/7/2 171/7/2 173/7/2
f 173/7/2 171/7/2 174/7/2
f 172/7/2 173/7/2 175/7/2
f 175/7/2 173/7/2 176/7/2
f 177/7/2 178/7/2 181/7/2
f 178/1/2 179/1/2 182/1/2
f 181/7/2 178/7/2 182/7/2
f 182/1/2 179/1/2 183/1/2
f 180/1/2 181/1/2 185/1/2
f 185/1/2 181/1/2 186/1/2
f 187/7/2 188/7/2 191/7/2
f 191/7/2 188/7/2 192/7/2
f 184/7/2 185/7/2 193/7/2
f 193/7/2 185/7/2 194/7/2
f 189/7/2 190/7/2 195/7/2
f 195/7/2 190/7/2 196/7/2
f 194/7/2 195/7/2 197/7/2
f 197/7/2 195/7/2 198/7/2
f 199/5/2 200/5/2 202/5/2
f 202/5/2 200/5/2 203/5/2
f 201/7/2 202/7/2 205/7/2
f 202/6/2 203/6/2 206/6/2
f 205/7/2 202/7/2 206/7/2
f 206/6/2 203/6/2 207/6/2
f 204/7/2 205/7/2 208/7/2
f 205/7/2 206/7/2 208/7/2
f 206/7/2 207/7/2 208/7/2
f 208/7/2 207/7/2 209/7/2
f 204/7/2 208/7/2 210/7/2
f 208/1/2 209/1/2 210/1/2
f 209/7/2 207/7/2 211/7/2
f 210/1/2 209/1/2 211/1/2
f 211/7/2 207/7/2 212/7/2
f 212/7/2 207/7/2 213/7/2
f 204/7/2 210/7/2 214/7/2
f 210/7/2 211/7/2 214/7/2
f 211/7/2 212/7/2 214/7/2
f 214/7/2 212/7/2 215/7/2
f 219/6/3 217/6/3 216/6/3
f 220/6/3 217/6/3 219/6/3
f 222/6/3 219/6/3 218/6/3
f 222/6/3 221/6/3 220/6/3
f 222/6/3 220/6/3 219/6/3
f 223/6/3 221/6/3 222/6/3
f 224/6/3 221/6/3 223/6/3
f 225/6/3 221/6/3 224/6/3
f 226/6/3 224/6/3 223/6/3
f 227/6/3 224/6/3 226/6/3
f 231/6/3 229/6/3 228/6/3
f 232/6/3 229/6/3 231/6/3
f 233/6/3 231/6/3 230/6/3
f 234/6/3 231/6/3 233/6/3
f 237/6/3 236/6/3 235/6/3
f 238/6/3 236/6/3 237/6/3
f 242/3/3 240/3/3 239/3/3
f 243/3/3 240/3/3 242/3/3
f 245/3/3 242/3/3 241/3/3
f 246/3/3 242/3/3 245/3/3
f 247/3/3 244/3/3 243/3/3
f 248/3/3 244/3/3 247/3/3
f 249/3/3 247/3/3 246/3/3
f 250/3/3 247/3/3 249/3/3
f 252/3/3 251/3/3 250/3/3
f 253/3/3 251/3/3 252/3/3
f 258/7/3 255/7/3 254/7/3
f 259/7/3 255/7/3 258/7/3
f 261/7/3 257/7/3 256/7/3
f 261/7/3 258/7/3 257/7/3
f 262/7/3 258/7/3 261/7/3
f 263/7/3 260/7/3 259/7/3
f 264/7/3 260/7/3 263/7/3
f 265/7/3 261/7/3 256/7/3
f 269/7/3 265/7/3 256/7/3
f 269/7/3 266/7/3 265/7/3
f 270/7/3 266/7/3 269/7/3
f 271/7/3 266/7/3 270/7/3
f 272/7/3 268/7/3 267/7/3
f 273/7/3 271/7/3 270/7/3
f 273/7/3 272/7/3 271/7/3
f 274/7/3 268/7/3 272/7/3
f 274/7/3 272/7/3 273/7/3
f 278/7/3 276/7/3 275/7/3
f 279/7/3 276/7/3 278/7/3
f 282/1/3 278/1/3 277/1/3
f 283/1/3 278/1/3 282/1/3
f 284/1/3 282/1/3 281/1/3
f 285/1/3 282/1/3 284/1/3
f 287/1/3 286/1/3 285/1/3
f 288/1/3 286/1/3 287/1/3
f 289/7/3 280/7/3 279/7/3
f 290/7/3 280/7/3 289/7/3
f 291/7/3 289/7/3 288/7/3
f 292/7/3 289/7/3 291/7/3
f 296/7/3 294/7/3 293/7/3
f 297/7/3 294/7/3 296/7/3
f 298/7/3 296/7/3 295/7/3
f 299/7/3 296/7/3 298/7/3
f 302/7/3 301/7/3 300/7/3
f 303/7/3 301/7/3 302/7/3
f 305/7/3 304/7/3 303/7/3
f 306/7/3 304/7/3 305/7/3
f 309/6/3 308/6/3 307/6/3
f 310/6/3 308/6/3 309/6/3
f 311/6/3 308/6/3 310/6/3
f 315/5/3 313/5/3 312/5/3
f 315/5/3 314/5/3 313/5/3
f 316/5/3 314/5/3 315/5/3
f 317/6/4 318/6/4 319/6/4
f 319/6/4 318/6/4 320/6/4
f 320/6/4 321/6/4 322/6/4
f 322/6/4 321/6/4 323/6/4
f 324/6/4 325/6/4 328/6/4
f 325/6/4 326/6/4 328/6/4
f 328/6/4 326/6/4 329/6/4
f 329/6/4 326/6/4 330/6/4
f 327/6/4 328/6/4 331/6/4
f 328/6/4 329/6/4 331/6/4
f 331/6/4 329/6/4 332/6/4
f 332/6/4 333/6/4 334/6/4
f 334/6/4 333/6/4 335/6/4
f 336/3/4 337/3/4 338/3/4
f 338/3/4 337/3/4 339/3/4
f 340/7/4 341/7/4 342/7/4
f 342/7/4 341/7/4 343/7/4
f 343/7/4 344/7/4 345/7/4
f 345/7/4 344/7/4 346/7/4
f 347/7/4 348/7/4 350/7/4
f 350/7/4 348/7/4 351/7/4
f 349/7/4 350/7/4 352/7/4
f 352/7/4 350/7/4 353/7/4
f 354/7/4 355/7/4 357/7/4
f 357/7/4 355/7/4 358/7/4
f 356/7/4 357/7/4 359/7/4
f 359/7/4 357/7/4 360/7/4
f 361/6/4 362/6/4 365/6/4
f 365/6/4 362/6/4 366/6/4
f 366/6/4 362/6/4 367/6/4
f 363/7/4 364/7/4 368/7/4
f 368/7/4 364/7/4 369/7/4
f 366/1/4 367/1/4 370/1/4
f 370/1/4 367/1/4 371/1/4
f 366/1/4 370/1/4 375/1/4
f 370/2/4 371/2/4 375/2/4
f 371/4/4 372/4/4 376/4/4
f 375/2/4 371/2/4 376/2/4
f 376/4/4 372/4/4 377/4/4
f 366/1/4 375/1/4 379/1/4
f 377/1/4 378/1/4 379/1/4
f 376/1/4 377/1/4 379/1/4
f 375/1/4 376/1/4 379/1/4
f 379/1/4 378/1/4 380/1/4
f 380/1/4 378/1/4 381/1/4
f 381/1/4 378/1/4 382/1/4
f 373/7/4 374/7/4 383/7/4
f 383/7/4 374/7/4 384/7/4
f 366/1/4 379/1/4 385/1/4
f 379/2/4 380/2/4 385/2/4
f 380/4/4 381/4/4 386/4/4
f 385/2/4 380/2/4 386/2/4
f 386/4/4 381/4/4 387/4/4
f 366/1/4 385/1/4 389/1/4
f 385/1/4 386/1/4 389/1/4
f 389/1/4 386/1/4 390/1/4
f 390/1/4 386/1/4 391/1/4
f 388/5/4 389/5/4 393/5/4
f 389/5/4 390/5/4 393/5/4
f 390/6/4 391/6/4 394/6/4
f 393/5/4 390/5/4 394/5/4
f 391/7/4 392/7/4 395/7/4
f 394/6/4 391/6/4 395/6/4
f 395/7/4 392/7/4 396/7/4
f 397/6/4 398/6/4 399/6/4
f 397/6/4 399/6/4 401/6/4
f 399/6/4 400/6/4 401/6/4
f 401/6/4 400/6/4 402/6/4
f 402/6/4 400/6/4 403/6/4
f 403/6/4 400/6/4 404/6/4
f 404/6/4 400/6/4 406/6/4
f 406/6/4 400/6/4 407/6/4
f 405/7/4 406/7/4 409/7/4
f 406/7/4 407/7/4 409/7/4
f 409/7/4 407/7/4 410/7/4
f 410/7/4 407/7/4 411/7/4
f 408/7/4 409/7/4 412/7/4
f 409/7/4 410/7/4 412/7/4
f 412/7/4 410/7/4 413/7/4
f 418/6/5 415/6/5 414/6/5
f 419/6/5 415/6/5 418/6/5
f 420/5/5 417/5/5 416/5/5
f 421/5/5 417/5/5 420/5/5
f 424/6/5 423/6/5 422/6/5
f 425/6/5 423/6/5 424/6/5
f 429/1/5 427/1/5 426/1/5
f 430/1/5 427/1/5 429/1/5
f 432/7/5 429/7/5 428/7/5
f 433/1/5 430/1/5 429/1/5
f 433/7/5 429/7/5 432/7/5
f 434/7/5 431/7/5 430/7/5
f 434/1/5 430/1/5 433/1/5
f 435/7/5 431/7/5 434/7/5
f 436/1/5 433/1/5 432/1/5
f 436/1/5 434/1/5 433/1/5
f 436/1/5 435/1/5 434/1/5
f 437/1/5 435/1/5 436/1/5
f 438/1/5 437/1/5 436/1/5
f 439/1/5 437/1/5 438/1/5
f 443/6/5 441/6/5 440/6/5
f 444/6/5 441/6/5 443/6/5
f 445/6/5 443/6/5 442/6/5
f 446/6/5 443/6/5 445/6/5
f 450/7/5 448/7/5 447/7/5
f 451/7/5 448/7/5 450/7/5
f 454/1/5 450/1/5 449/1/5
f 455/1/5 450/1/5 454/1/5
f 456/1/5 452/1/5 451/1/5
f 457/1/5 452/1/5 456/1/5
f 459/7/5 454/7/5 453/7/5
f 460/7/5 458/7/5 457/7/5
f 461/7/5 459/7/5 453/7/5
f 462/7/5 459/7/5 461/7/5
f 463/7/5 458/7/5 460/7/5
f 464/7/5 458/7/5 463/7/5
f 469/6/5 466/6/5 465/6/5
f 470/6/5 466/6/5 469/6/5
f 474/6/5 468/6/5 467/6/5
f 475/6/5 468/6/5 474/6/5
f 476/3/5 472/3/5 471/3/5
f 477/3/5 472/3/5 476/3/5
f 478/3/5 474/3/5 473/3/5
f 479/3/5 474/3/5 478/3/5
f 483/7/5 477/7/5 476/7/5
f 484/7/5 477/7/5 483/7/5
f 485/7/5 481/7/5 480/7/5
f 486/7/5 481/7/5 485/7/5
f 488/7/5 483/7/5 482/7/5
f 489/7/5 483/7/5 488/7/5
f 490/7/5 487/7/5 486/7/5
f 491/7/5 487/7/5 490/7/5
f 497/6/5 493/6/5 492/6/5
f 497/6/5 494/6/5 493/6/5
f 498/6/5 494/6/5 497/6/5
f 499/7/5 496/7/5 495/7/5
f 500/7/5 496/7/5 499/7/5
f 507/3/5 502/3/5 501/3/5
f 508/3/5 502/3/5 507/3/5
f 509/3/5 504/3/5 503/3/5
f 510/3/5 504/3/5 509/3/5
f 511/3/5 506/3/5 505/3/5
f 512/3/5 506/3/5 511/3/5
f 517/6/5 514/6/5 513/6/5
f 518/6/5 514/6/5 517/6/5
f 519/7/5 516/7/5 515/7/5
f 520/7/5 516/7/5 519/7/5
f 523/3/5 522/3/5 521/3/5
f 524/3/5 522/3/5 523/3/5
f 527/6/5 526/6/5 525/6/5
f 528/6/5 526/6/5 527/6/5
f 529/6/6 530/6/6 533/6/6
f 533/6/6 530/6/6 534/6/6
f 531/6/6 532/6/6 536/6/6
f 536/6/6 532/6/6 537/6/6
f 535/3/6 536/3/6 538/3/6
f 538/3/6 536/3/6 539/3/6
f 540/6/6 541/6/6 542/6/6
f 542/6/6 541/6/6 543/6/6
f 544/6/6 545/6/6 546/6/6
f 546/6/6 545/6/6 547/6/6
f 548/6/6 549/6/6 553/6/6
f 547/6/6 548/6/6 553/6/6
f 553/6/6 549/6/6 554/6/6
f 554/6/6 549/6/6 555/6/6
f 550/3/6 551/3/6 556/3/6
f 556/3/6 551/3/6 557/3/6
f 552/3/6 553/3/6 558/3/6
f 558/3/6 553/3/6 559/3/6
f 554/3/6 555/3/6 560/3/6
f 560/3/6 555/3/6 561/3/6
f 562/7/6 563/7/6 566/7/6
f 564/7/6 565/7/6 568/7/6
f 562/7/6 566/7/6 569/7/6
f 569/7/6 566/7/6 570/7/6
f 567/7/6 568/7/6 571/7/6
f 568/7/6 565/7/6 571/7/6
f 571/7/6 565/7/6 572/7/6
f 567/7/6 571/7/6 573/7/6
f 573/7/6 571/7/6 574/7/6
f 575/6/6 576/6/6 577/6/6
f 577/6/6 576/6/6 578/6/6
f 579/3/6 580/3/6 583/3/6
f 583/3/6 580/3/6 584/3/6
f 581/3/6 582/3/6 585/3/6
f 585/3/6 582/3/6 586/3/6
f 585/7/6 586/7/6 589/7/6
f 586/7/6 587/7/6 589/7/6
f 584/7/6 585/7/6 589/7/6
f 583/7/6 584/7/6 589/7/6
f 589/7/6 587/7/6 590/7/6
f 588/7/6 589/7/6 592/7/6
f 592/7/6 589/7/6 593/7/6
f 590/7/6 591/7/6 596/7/6
f 596/7/6 591/7/6 597/7/6
f 593/7/6 594/7/6 598/7/6
f 598/7/6 594/7/6 599/7/6
f 595/7/6 596/7/6 601/7/6
f 601/7/6 596/7/6 602/7/6
f 598/6/6 599/6/6 603/6/6
f 600/7/6 601/7/6 604/7/6
f 598/6/6 603/6/6 605/6/6
f 603/6/6 604/6/6 605/6/6
f 604/7/6 601/7/6 606/7/6
f 605/6/6 604/6/6 606/6/6
f 606/7/6 601/7/6 607/7/6
f 608/7/6 609/7/6 610/7/6
f 610/7/6 609/7/6 611/7/6
f 611/7/6 609/7/6 612/7/6
f 612/7/6 609/7/6 613/7/6
f 611/7/6 612/7/6 614/7/6
f 614/7/6 612/7/6 615/7/6
f 611/7/6 614/7/6 616/7/6
f 616/7/6 614/7/6 617/7/6
