# MagicaVoxel @ ephtracy

# material
mtllib ¸ö.mtl
usemtl palette

# normals
vn -1 0 0
vn 1 0 0
vn 0 0 1
vn 0 0 -1
vn 0 -1 0
vn 0 1 0

# texcoords
vt 0.0332031 0.5
vt 0.958984 0.5
vt 0.962891 0.5
vt 0.966797 0.5
vt 0.970703 0.5
vt 0.974609 0.5
vt 0.978516 0.5
vt 0.982422 0.5

# verts
v -4.5 6 1.5
v -4.5 6 -1.5
v -4.5 10 1.5
v -4.5 10 -1.5
v -3.5 0 2.5
v -3.5 0 0.5
v -3.5 0 -0.5
v -3.5 0 -2.5
v -3.5 1 2.5
v -3.5 1 1.5
v -3.5 1 -1.5
v -3.5 1 -2.5
v -3.5 2 2.5
v -3.5 2 1.5
v -3.5 2 0.5
v -3.5 2 -0.5
v -3.5 2 -1.5
v -3.5 2 -2.5
v -3.5 3 2.5
v -3.5 3 1.5
v -3.5 3 -1.5
v -3.5 3 -2.5
v -3.5 4 2.5
v -3.5 4 1.5
v -3.5 4 -1.5
v -3.5 4 -2.5
v -3.5 5 2.5
v -3.5 5 1.5
v -3.5 5 -1.5
v -3.5 5 -2.5
v -3.5 6 1.5
v -3.5 6 -1.5
v -3.5 8 -1.5
v -3.5 8 -2.5
v -3.5 9 -1.5
v -3.5 9 -2.5
v -3.5 10 2.5
v -3.5 10 1.5
v -2.5 9 -1.5
v -2.5 9 -2.5
v -2.5 10 1.5
v -2.5 10 -0.5
v -2.5 10 -1.5
v -2.5 10 -2.5
v -2.5 11 1.5
v -2.5 11 -0.5
v -1.5 1 1.5
v -1.5 1 -1.5
v -1.5 2 0.5
v -1.5 2 -0.5
v -1.5 2 -1.5
v -1.5 3 1.5
v -1.5 3 0.5
v -1.5 10 2.5
v -1.5 10 1.5
v -1.5 10 -0.5
v -1.5 10 -1.5
v -1.5 11 2.5
v -1.5 11 1.5
v -1.5 11 -0.5
v -1.5 11 -1.5
v -0.5 2 0.5
v -0.5 2 -1.5
v -0.5 3 0.5
v -0.5 3 -0.5
v -0.5 3 -1.5
v 1.5 2 -0.5
v 1.5 2 -1.5
v 1.5 3 -0.5
v 1.5 3 -1.5
v 2.5 0 1.5
v 2.5 0 0.5
v 2.5 0 -0.5
v 2.5 0 -1.5
v 2.5 2 1.5
v 2.5 2 0.5
v 2.5 2 -0.5
v 2.5 2 -1.5
v 2.5 3 0.5
v 2.5 3 -0.5
v 2.5 4 0.5
v 2.5 4 -0.5
v 2.5 5 1.5
v 2.5 5 0.5
v 2.5 5 -0.5
v 2.5 5 -1.5
v 2.5 6 -1.5
v 2.5 8 1.5
v 2.5 8 -1.5
v -2.5 0 1.5
v -2.5 0 0.5
v -2.5 0 -0.5
v -2.5 0 -1.5
v -2.5 2 0.5
v -2.5 2 -0.5
v -2.5 2 -1.5
v -2.5 3 1.5
v -2.5 3 0.5
v -2.5 3 -0.5
v -2.5 4 0.5
v -2.5 4 -0.5
v -2.5 5 0.5
v -2.5 5 -0.5
v -2.5 5 -1.5
v -2.5 6 1.5
v -2.5 6 0.5
v -2.5 6 -1.5
v -2.5 8 1.5
v -2.5 8 -1.5
v -1.5 2 -0.5
v -1.5 2 -1.5
v -1.5 3 -0.5
v -1.5 3 -1.5
v -1.5 5 1.5
v -1.5 5 0.5
v -1.5 6 1.5
v -1.5 6 0.5
v 0.5 2 0.5
v 0.5 2 -1.5
v 0.5 3 0.5
v 0.5 3 -0.5
v 0.5 3 -1.5
v 1.5 1 1.5
v 1.5 1 -1.5
v 1.5 2 1.5
v 1.5 2 0.5
v 1.5 2 -0.5
v 1.5 2 -1.5
v 1.5 10 2.5
v 1.5 10 1.5
v 1.5 10 -0.5
v 1.5 10 -1.5
v 1.5 11 2.5
v 1.5 11 1.5
v 1.5 11 -0.5
v 1.5 11 -1.5
v 2.5 9 -1.5
v 2.5 9 -2.5
v 2.5 10 1.5
v 2.5 10 -0.5
v 2.5 10 -1.5
v 2.5 10 -2.5
v 2.5 11 1.5
v 2.5 11 -0.5
v 3.5 0 2.5
v 3.5 0 0.5
v 3.5 0 -0.5
v 3.5 0 -2.5
v 3.5 1 2.5
v 3.5 1 1.5
v 3.5 1 -1.5
v 3.5 1 -2.5
v 3.5 2 2.5
v 3.5 2 1.5
v 3.5 2 0.5
v 3.5 2 -0.5
v 3.5 2 -1.5
v 3.5 2 -2.5
v 3.5 3 2.5
v 3.5 3 1.5
v 3.5 3 -1.5
v 3.5 3 -2.5
v 3.5 4 2.5
v 3.5 4 1.5
v 3.5 4 -1.5
v 3.5 4 -2.5
v 3.5 5 2.5
v 3.5 5 1.5
v 3.5 5 -1.5
v 3.5 5 -2.5
v 3.5 6 1.5
v 3.5 6 -1.5
v 3.5 9 -1.5
v 3.5 9 -2.5
v 3.5 10 2.5
v 3.5 10 1.5
v 4.5 6 1.5
v 4.5 6 -1.5
v 4.5 10 1.5
v 4.5 10 -1.5
v -3.5 0 2.5
v -3.5 1 2.5
v -3.5 2 2.5
v -3.5 3 2.5
v -3.5 4 2.5
v -3.5 5 2.5
v -3.5 10 2.5
v -2.5 1 2.5
v -2.5 2 2.5
v -2.5 3 2.5
v -2.5 4 2.5
v -1.5 5 2.5
v -1.5 6 2.5
v -1.5 10 2.5
v -1.5 11 2.5
v -0.5 5 2.5
v -0.5 6 2.5
v 1.5 10 2.5
v 1.5 11 2.5
v 2.5 1 2.5
v 2.5 2 2.5
v 2.5 3 2.5
v 2.5 4 2.5
v 3.5 0 2.5
v 3.5 1 2.5
v 3.5 2 2.5
v 3.5 3 2.5
v 3.5 4 2.5
v 3.5 5 2.5
v 3.5 10 2.5
v -4.5 6 1.5
v -4.5 10 1.5
v -3.5 4 1.5
v -3.5 5 1.5
v -3.5 6 1.5
v -3.5 10 1.5
v -2.5 4 1.5
v -2.5 10 1.5
v -2.5 11 1.5
v -1.5 5 1.5
v -1.5 10 1.5
v -1.5 11 1.5
v -0.5 5 1.5
v 1.5 10 1.5
v 1.5 11 1.5
v 2.5 4 1.5
v 2.5 10 1.5
v 2.5 11 1.5
v 3.5 4 1.5
v 3.5 5 1.5
v 3.5 6 1.5
v 3.5 10 1.5
v 4.5 6 1.5
v 4.5 10 1.5
v -2.5 2 -0.5
v -2.5 3 -0.5
v -2.5 4 -0.5
v -2.5 5 -0.5
v -1.5 2 -0.5
v -1.5 3 -0.5
v -0.5 3 -0.5
v 0.5 3 -0.5
v 1.5 2 -0.5
v 1.5 3 -0.5
v 2.5 2 -0.5
v 2.5 3 -0.5
v 2.5 4 -0.5
v 2.5 5 -0.5
v -2.5 0 -1.5
v -2.5 2 -1.5
v -2.5 5 -1.5
v -2.5 6 -1.5
v -2.5 8 -1.5
v -1.5 1 -1.5
v -1.5 2 -1.5
v -1.5 3 -1.5
v -0.5 2 -1.5
v -0.5 3 -1.5
v -0.5 5 -1.5
v -0.5 6 -1.5
v -0.5 8 -1.5
v 0.5 2 -1.5
v 0.5 3 -1.5
v 0.5 5 -1.5
v 0.5 6 -1.5
v 0.5 8 -1.5
v 1.5 1 -1.5
v 1.5 2 -1.5
v 1.5 3 -1.5
v 2.5 0 -1.5
v 2.5 2 -1.5
v 2.5 5 -1.5
v 2.5 6 -1.5
v 2.5 8 -1.5
v -2.5 0 1.5
v -2.5 3 1.5
v -2.5 6 1.5
v -2.5 8 1.5
v -1.5 1 1.5
v -1.5 3 1.5
v -1.5 5 1.5
v -1.5 6 1.5
v -0.5 5 1.5
v -0.5 6 1.5
v 1.5 1 1.5
v 1.5 2 1.5
v 2.5 0 1.5
v 2.5 2 1.5
v 2.5 5 1.5
v 2.5 8 1.5
v -2.5 3 0.5
v -2.5 4 0.5
v -2.5 5 0.5
v -2.5 6 0.5
v -1.5 2 0.5
v -1.5 3 0.5
v -1.5 5 0.5
v -1.5 6 0.5
v -0.5 2 0.5
v -0.5 3 0.5
v 0.5 2 0.5
v 0.5 3 0.5
v 1.5 2 0.5
v 2.5 2 0.5
v 2.5 3 0.5
v 2.5 4 0.5
v 2.5 5 0.5
v -2.5 10 -0.5
v -2.5 11 -0.5
v -1.5 10 -0.5
v -1.5 11 -0.5
v 1.5 10 -0.5
v 1.5 11 -0.5
v 2.5 10 -0.5
v 2.5 11 -0.5
v -4.5 6 -1.5
v -4.5 10 -1.5
v -3.5 4 -1.5
v -3.5 5 -1.5
v -3.5 6 -1.5
v -3.5 8 -1.5
v -3.5 9 -1.5
v -2.5 4 -1.5
v -2.5 5 -1.5
v -2.5 9 -1.5
v -2.5 10 -1.5
v -1.5 10 -1.5
v -1.5 11 -1.5
v -0.5 5 -1.5
v -0.5 10 -1.5
v 0.5 5 -1.5
v 0.5 10 -1.5
v 1.5 10 -1.5
v 1.5 11 -1.5
v 2.5 4 -1.5
v 2.5 5 -1.5
v 2.5 9 -1.5
v 2.5 10 -1.5
v 3.5 4 -1.5
v 3.5 5 -1.5
v 3.5 6 -1.5
v 3.5 9 -1.5
v 4.5 6 -1.5
v 4.5 10 -1.5
v -3.5 0 -2.5
v -3.5 1 -2.5
v -3.5 2 -2.5
v -3.5 3 -2.5
v -3.5 4 -2.5
v -3.5 5 -2.5
v -3.5 8 -2.5
v -3.5 9 -2.5
v -2.5 1 -2.5
v -2.5 2 -2.5
v -2.5 3 -2.5
v -2.5 4 -2.5
v -2.5 5 -2.5
v -2.5 6 -2.5
v -2.5 9 -2.5
v -2.5 10 -2.5
v -1.5 8 -2.5
v -1.5 9 -2.5
v -0.5 5 -2.5
v -0.5 6 -2.5
v -0.5 10 -2.5
v 0.5 5 -2.5
v 0.5 6 -2.5
v 0.5 10 -2.5
v 2.5 1 -2.5
v 2.5 2 -2.5
v 2.5 3 -2.5
v 2.5 4 -2.5
v 2.5 5 -2.5
v 2.5 6 -2.5
v 2.5 9 -2.5
v 2.5 10 -2.5
v 3.5 0 -2.5
v 3.5 1 -2.5
v 3.5 2 -2.5
v 3.5 3 -2.5
v 3.5 4 -2.5
v 3.5 5 -2.5
v 3.5 9 -2.5
v -3.5 0 2.5
v 3.5 0 2.5
v -2.5 0 1.5
v 2.5 0 1.5
v -3.5 0 0.5
v -2.5 0 0.5
v 2.5 0 0.5
v 3.5 0 0.5
v -3.5 0 -0.5
v -2.5 0 -0.5
v 2.5 0 -0.5
v 3.5 0 -0.5
v -2.5 0 -1.5
v 2.5 0 -1.5
v -3.5 0 -2.5
v 3.5 0 -2.5
v -1.5 1 1.5
v 1.5 1 1.5
v -1.5 1 -1.5
v 1.5 1 -1.5
v 1.5 2 1.5
v 2.5 2 1.5
v 1.5 2 0.5
v 2.5 2 0.5
v -2.5 2 -0.5
v -1.5 2 -0.5
v 1.5 2 -0.5
v 2.5 2 -0.5
v -2.5 2 -1.5
v -1.5 2 -1.5
v 1.5 2 -1.5
v 2.5 2 -1.5
v -2.5 3 1.5
v -1.5 3 1.5
v -2.5 3 0.5
v -1.5 3 0.5
v -1.5 3 -0.5
v -0.5 3 -0.5
v 0.5 3 -0.5
v 1.5 3 -0.5
v -1.5 3 -1.5
v -0.5 3 -1.5
v 0.5 3 -1.5
v 1.5 3 -1.5
v -3.5 5 2.5
v -1.5 5 2.5
v -0.5 5 2.5
v 3.5 5 2.5
v -3.5 5 1.5
v -1.5 5 1.5
v -0.5 5 1.5
v 3.5 5 1.5
v -3.5 5 -1.5
v -2.5 5 -1.5
v -0.5 5 -1.5
v 0.5 5 -1.5
v 2.5 5 -1.5
v 3.5 5 -1.5
v -3.5 5 -2.5
v -2.5 5 -2.5
v -0.5 5 -2.5
v 0.5 5 -2.5
v 2.5 5 -2.5
v 3.5 5 -2.5
v -4.5 6 1.5
v -3.5 6 1.5
v 3.5 6 1.5
v 4.5 6 1.5
v -4.5 6 -1.5
v -3.5 6 -1.5
v 3.5 6 -1.5
v 4.5 6 -1.5
v -2.5 8 1.5
v 2.5 8 1.5
v -2.5 8 -1.5
v -0.5 8 -1.5
v 0.5 8 -1.5
v 2.5 8 -1.5
v -1.5 2 0.5
v -0.5 2 0.5
v 0.5 2 0.5
v 1.5 2 0.5
v -1.5 2 -0.5
v 1.5 2 -0.5
v -1.5 2 -1.5
v -0.5 2 -1.5
v 0.5 2 -1.5
v 1.5 2 -1.5
v -0.5 3 0.5
v 0.5 3 0.5
v -0.5 3 -0.5
v 0.5 3 -0.5
v -3.5 4 2.5
v -2.5 4 2.5
v 2.5 4 2.5
v 3.5 4 2.5
v -3.5 4 1.5
v -2.5 4 1.5
v 2.5 4 1.5
v 3.5 4 1.5
v -3.5 4 -1.5
v -2.5 4 -1.5
v 2.5 4 -1.5
v 3.5 4 -1.5
v -3.5 4 -2.5
v -2.5 4 -2.5
v 2.5 4 -2.5
v 3.5 4 -2.5
v -1.5 5 1.5
v -0.5 5 1.5
v 2.5 5 1.5
v -1.5 5 0.5
v 2.5 5 0.5
v -2.5 5 -0.5
v 2.5 5 -0.5
v -2.5 5 -1.5
v -0.5 5 -1.5
v 0.5 5 -1.5
v 2.5 5 -1.5
v -2.5 6 1.5
v -1.5 6 1.5
v -2.5 6 0.5
v -1.5 6 0.5
v -3.5 9 -1.5
v -2.5 9 -1.5
v 2.5 9 -1.5
v 3.5 9 -1.5
v -3.5 9 -2.5
v -2.5 9 -2.5
v 2.5 9 -2.5
v 3.5 9 -2.5
v -3.5 10 2.5
v -1.5 10 2.5
v 1.5 10 2.5
v 3.5 10 2.5
v -4.5 10 1.5
v -3.5 10 1.5
v -2.5 10 1.5
v -1.5 10 1.5
v 1.5 10 1.5
v 2.5 10 1.5
v 3.5 10 1.5
v 4.5 10 1.5
v -2.5 10 -0.5
v -1.5 10 -0.5
v 1.5 10 -0.5
v 2.5 10 -0.5
v -4.5 10 -1.5
v -2.5 10 -1.5
v -1.5 10 -1.5
v -0.5 10 -1.5
v 0.5 10 -1.5
v 1.5 10 -1.5
v 2.5 10 -1.5
v 4.5 10 -1.5
v -2.5 10 -2.5
v -0.5 10 -2.5
v 0.5 10 -2.5
v 2.5 10 -2.5
v -1.5 11 2.5
v 1.5 11 2.5
v -2.5 11 1.5
v -1.5 11 1.5
v 1.5 11 1.5
v 2.5 11 1.5
v -2.5 11 -0.5
v -1.5 11 -0.5
v 1.5 11 -0.5
v 2.5 11 -0.5
v -1.5 11 -1.5
v 1.5 11 -1.5

# faces
f 3/2/1 2/2/1 1/2/1
f 4/2/1 2/2/1 3/2/1
f 9/8/1 6/8/1 5/8/1
f 10/8/1 6/8/1 9/8/1
f 11/8/1 8/8/1 7/8/1
f 12/8/1 8/8/1 11/8/1
f 13/7/1 10/7/1 9/7/1
f 14/8/1 6/8/1 10/8/1
f 14/7/1 10/7/1 13/7/1
f 15/7/1 7/7/1 6/7/1
f 15/8/1 6/8/1 14/8/1
f 16/8/1 11/8/1 7/8/1
f 16/7/1 7/7/1 15/7/1
f 17/7/1 12/7/1 11/7/1
f 17/8/1 11/8/1 16/8/1
f 18/7/1 12/7/1 17/7/1
f 19/6/1 14/6/1 13/6/1
f 20/8/1 15/8/1 14/8/1
f 20/6/1 14/6/1 19/6/1
f 20/8/1 16/8/1 15/8/1
f 20/8/1 17/8/1 16/8/1
f 21/6/1 18/6/1 17/6/1
f 21/8/1 17/8/1 20/8/1
f 22/6/1 18/6/1 21/6/1
f 23/5/1 20/5/1 19/5/1
f 24/7/1 21/7/1 20/7/1
f 24/5/1 20/5/1 23/5/1
f 25/5/1 22/5/1 21/5/1
f 25/7/1 21/7/1 24/7/1
f 26/5/1 22/5/1 25/5/1
f 28/4/1 25/4/1 24/4/1
f 29/4/1 25/4/1 28/4/1
f 31/2/1 28/2/1 27/2/1
f 31/2/1 30/2/1 29/2/1
f 31/2/1 29/2/1 28/2/1
f 32/2/1 30/2/1 31/2/1
f 33/2/1 30/2/1 32/2/1
f 34/2/1 30/2/1 33/2/1
f 35/3/1 34/3/1 33/3/1
f 36/3/1 34/3/1 35/3/1
f 37/2/1 31/2/1 27/2/1
f 38/2/1 31/2/1 37/2/1
f 43/2/1 40/2/1 39/2/1
f 44/2/1 40/2/1 43/2/1
f 45/2/1 42/2/1 41/2/1
f 46/2/1 42/2/1 45/2/1
f 49/1/1 48/1/1 47/1/1
f 50/1/1 48/1/1 49/1/1
f 51/1/1 48/1/1 50/1/1
f 52/1/1 49/1/1 47/1/1
f 53/1/1 49/1/1 52/1/1
f 58/2/1 55/2/1 54/2/1
f 59/2/1 55/2/1 58/2/1
f 60/1/1 57/1/1 56/1/1
f 61/1/1 57/1/1 60/1/1
f 64/1/1 63/1/1 62/1/1
f 65/1/1 63/1/1 64/1/1
f 66/1/1 63/1/1 65/1/1
f 69/8/1 68/8/1 67/8/1
f 70/8/1 68/8/1 69/8/1
f 75/8/1 72/8/1 71/8/1
f 76/7/1 73/7/1 72/7/1
f 76/8/1 72/8/1 75/8/1
f 77/8/1 74/8/1 73/8/1
f 77/7/1 73/7/1 76/7/1
f 78/8/1 74/8/1 77/8/1
f 79/8/1 77/8/1 76/8/1
f 80/8/1 77/8/1 79/8/1
f 81/7/1 80/7/1 79/7/1
f 82/7/1 80/7/1 81/7/1
f 84/4/1 82/4/1 81/4/1
f 85/4/1 82/4/1 84/4/1
f 87/2/1 85/2/1 84/2/1
f 87/2/1 86/2/1 85/2/1
f 87/2/1 84/2/1 83/2/1
f 88/2/1 87/2/1 83/2/1
f 89/2/1 87/2/1 88/2/1
f 90/8/2 91/8/2 94/8/2
f 91/7/2 92/7/2 94/7/2
f 92/8/2 93/8/2 95/8/2
f 94/7/2 92/7/2 95/7/2
f 95/8/2 93/8/2 96/8/2
f 90/8/2 94/8/2 97/8/2
f 94/8/2 95/8/2 97/8/2
f 97/8/2 95/8/2 98/8/2
f 98/8/2 95/8/2 99/8/2
f 98/7/2 99/7/2 100/7/2
f 100/7/2 99/7/2 101/7/2
f 100/4/2 101/4/2 102/4/2
f 102/4/2 101/4/2 103/4/2
f 102/2/2 103/2/2 106/2/2
f 103/2/2 104/2/2 106/2/2
f 106/2/2 104/2/2 107/2/2
f 105/2/2 106/2/2 108/2/2
f 106/2/2 107/2/2 108/2/2
f 108/2/2 107/2/2 109/2/2
f 110/8/2 111/8/2 112/8/2
f 112/8/2 111/8/2 113/8/2
f 114/4/2 115/4/2 116/4/2
f 116/4/2 115/4/2 117/4/2
f 118/1/2 119/1/2 120/1/2
f 120/1/2 119/1/2 121/1/2
f 121/1/2 119/1/2 122/1/2
f 123/1/2 124/1/2 125/1/2
f 125/1/2 124/1/2 126/1/2
f 126/1/2 124/1/2 127/1/2
f 127/1/2 124/1/2 128/1/2
f 129/2/2 130/2/2 133/2/2
f 133/2/2 130/2/2 134/2/2
f 131/1/2 132/1/2 135/1/2
f 135/1/2 132/1/2 136/1/2
f 137/2/2 138/2/2 141/2/2
f 141/2/2 138/2/2 142/2/2
f 139/2/2 140/2/2 143/2/2
f 143/2/2 140/2/2 144/2/2
f 145/8/2 146/8/2 149/8/2
f 149/8/2 146/8/2 150/8/2
f 147/8/2 148/8/2 151/8/2
f 151/8/2 148/8/2 152/8/2
f 149/7/2 150/7/2 153/7/2
f 150/8/2 146/8/2 154/8/2
f 153/7/2 150/7/2 154/7/2
f 146/7/2 147/7/2 155/7/2
f 154/8/2 146/8/2 155/8/2
f 147/8/2 151/8/2 156/8/2
f 155/7/2 147/7/2 156/7/2
f 151/7/2 152/7/2 157/7/2
f 156/8/2 151/8/2 157/8/2
f 157/7/2 152/7/2 158/7/2
f 153/6/2 154/6/2 159/6/2
f 154/8/2 155/8/2 160/8/2
f 159/6/2 154/6/2 160/6/2
f 155/8/2 156/8/2 160/8/2
f 156/8/2 157/8/2 160/8/2
f 157/6/2 158/6/2 161/6/2
f 160/8/2 157/8/2 161/8/2
f 161/6/2 158/6/2 162/6/2
f 159/5/2 160/5/2 163/5/2
f 160/7/2 161/7/2 164/7/2
f 163/5/2 160/5/2 164/5/2
f 161/5/2 162/5/2 165/5/2
f 164/7/2 161/7/2 165/7/2
f 165/5/2 162/5/2 166/5/2
f 164/4/2 165/4/2 168/4/2
f 168/4/2 165/4/2 169/4/2
f 167/2/2 168/2/2 171/2/2
f 169/2/2 170/2/2 171/2/2
f 168/2/2 169/2/2 171/2/2
f 171/2/2 170/2/2 172/2/2
f 172/2/2 170/2/2 173/2/2
f 173/2/2 170/2/2 174/2/2
f 167/2/2 171/2/2 175/2/2
f 175/2/2 171/2/2 176/2/2
f 177/2/2 178/2/2 179/2/2
f 179/2/2 178/2/2 180/2/2
f 188/8/3 182/8/3 181/8/3
f 188/7/3 183/7/3 182/7/3
f 189/6/3 184/6/3 183/6/3
f 189/7/3 183/7/3 188/7/3
f 190/5/3 185/5/3 184/5/3
f 190/6/3 184/6/3 189/6/3
f 191/5/3 185/5/3 190/5/3
f 192/2/3 187/2/3 186/2/3
f 193/2/3 187/2/3 192/2/3
f 194/2/3 187/2/3 193/2/3
f 196/4/3 193/4/3 192/4/3
f 197/2/3 195/2/3 194/2/3
f 197/4/3 193/4/3 196/4/3
f 197/2/3 194/2/3 193/2/3
f 198/2/3 197/2/3 196/2/3
f 198/2/3 195/2/3 197/2/3
f 199/2/3 195/2/3 198/2/3
f 200/8/3 189/8/3 188/8/3
f 200/8/3 188/8/3 181/8/3
f 200/8/3 190/8/3 189/8/3
f 201/8/3 190/8/3 200/8/3
f 202/7/3 191/7/3 190/7/3
f 202/8/3 190/8/3 201/8/3
f 203/7/3 191/7/3 202/7/3
f 204/8/3 200/8/3 181/8/3
f 205/7/3 201/7/3 200/7/3
f 205/8/3 200/8/3 204/8/3
f 206/6/3 202/6/3 201/6/3
f 206/7/3 201/7/3 205/7/3
f 207/5/3 203/5/3 202/5/3
f 207/6/3 202/6/3 206/6/3
f 208/5/3 203/5/3 207/5/3
f 209/2/3 198/2/3 196/2/3
f 210/2/3 198/2/3 209/2/3
f 215/2/3 212/2/3 211/2/3
f 216/2/3 212/2/3 215/2/3
f 217/4/3 214/4/3 213/4/3
f 220/4/3 214/4/3 217/4/3
f 221/2/3 219/2/3 218/2/3
f 222/2/3 219/2/3 221/2/3
f 223/4/3 220/4/3 217/4/3
f 226/4/3 223/4/3 217/4/3
f 227/2/3 225/2/3 224/2/3
f 228/2/3 225/2/3 227/2/3
f 229/4/3 223/4/3 226/4/3
f 230/4/3 223/4/3 229/4/3
f 233/2/3 232/2/3 231/2/3
f 234/2/3 232/2/3 233/2/3
f 239/8/3 236/8/3 235/8/3
f 240/7/3 237/7/3 236/7/3
f 240/8/3 236/8/3 239/8/3
f 241/7/3 237/7/3 240/7/3
f 242/7/3 237/7/3 241/7/3
f 244/7/3 237/7/3 242/7/3
f 245/8/3 244/8/3 243/8/3
f 246/7/3 237/7/3 244/7/3
f 246/8/3 244/8/3 245/8/3
f 247/4/3 238/4/3 237/4/3
f 247/7/3 237/7/3 246/7/3
f 248/4/3 238/4/3 247/4/3
f 254/8/3 250/8/3 249/8/3
f 255/8/3 250/8/3 254/8/3
f 257/8/3 256/8/3 255/8/3
f 258/8/3 256/8/3 257/8/3
f 259/3/3 252/3/3 251/3/3
f 260/2/3 253/2/3 252/2/3
f 260/3/3 252/3/3 259/3/3
f 261/2/3 253/2/3 260/2/3
f 264/4/3 260/4/3 259/4/3
f 264/4/3 261/4/3 260/4/3
f 265/4/3 261/4/3 264/4/3
f 266/4/3 261/4/3 265/4/3
f 267/8/3 254/8/3 249/8/3
f 268/8/3 263/8/3 262/8/3
f 269/8/3 263/8/3 268/8/3
f 270/8/3 267/8/3 249/8/3
f 270/8/3 268/8/3 267/8/3
f 271/8/3 268/8/3 270/8/3
f 272/3/3 265/3/3 264/3/3
f 273/2/3 266/2/3 265/2/3
f 273/3/3 265/3/3 272/3/3
f 274/2/3 266/2/3 273/2/3
f 275/8/4 276/8/4 279/8/4
f 279/8/4 276/8/4 280/8/4
f 277/2/4 278/2/4 282/2/4
f 281/4/4 282/4/4 283/4/4
f 282/2/4 278/2/4 284/2/4
f 283/4/4 282/4/4 284/4/4
f 275/8/4 279/8/4 285/8/4
f 275/8/4 285/8/4 287/8/4
f 285/8/4 286/8/4 287/8/4
f 287/8/4 286/8/4 288/8/4
f 283/2/4 284/2/4 289/2/4
f 284/2/4 278/2/4 290/2/4
f 289/2/4 284/2/4 290/2/4
f 291/7/4 292/7/4 296/7/4
f 293/4/4 294/4/4 297/4/4
f 292/4/4 293/4/4 297/4/4
f 297/4/4 294/4/4 298/4/4
f 295/1/4 296/1/4 299/1/4
f 296/7/4 292/7/4 300/7/4
f 299/1/4 296/1/4 300/1/4
f 300/7/4 292/7/4 302/7/4
f 301/1/4 302/1/4 303/1/4
f 303/1/4 302/1/4 304/1/4
f 302/7/4 292/7/4 305/7/4
f 304/1/4 302/1/4 305/1/4
f 292/4/4 297/4/4 306/4/4
f 305/7/4 292/7/4 306/7/4
f 306/4/4 297/4/4 307/4/4
f 308/2/4 309/2/4 310/2/4
f 310/2/4 309/2/4 311/2/4
f 312/2/4 313/2/4 314/2/4
f 314/2/4 313/2/4 315/2/4
f 316/2/4 317/2/4 320/2/4
f 320/2/4 317/2/4 321/2/4
f 321/2/4 317/2/4 322/2/4
f 318/4/4 319/4/4 323/4/4
f 323/4/4 319/4/4 324/4/4
f 322/2/4 317/2/4 325/2/4
f 325/2/4 317/2/4 326/2/4
f 323/4/4 324/4/4 329/4/4
f 327/1/4 328/1/4 330/1/4
f 323/4/4 329/4/4 331/4/4
f 330/1/4 328/1/4 332/1/4
f 332/1/4 328/1/4 333/1/4
f 333/1/4 328/1/4 334/1/4
f 323/4/4 331/4/4 335/4/4
f 335/4/4 331/4/4 336/4/4
f 335/4/4 336/4/4 339/4/4
f 339/4/4 336/4/4 340/4/4
f 337/2/4 338/2/4 342/2/4
f 341/2/4 342/2/4 343/2/4
f 342/2/4 338/2/4 344/2/4
f 343/2/4 342/2/4 344/2/4
f 345/8/4 346/8/4 353/8/4
f 346/7/4 347/7/4 353/7/4
f 347/6/4 348/6/4 354/6/4
f 353/7/4 347/7/4 354/7/4
f 348/5/4 349/5/4 355/5/4
f 354/6/4 348/6/4 355/6/4
f 355/5/4 349/5/4 356/5/4
f 350/2/4 351/2/4 357/2/4
f 357/2/4 351/2/4 358/2/4
f 351/3/4 352/3/4 359/3/4
f 358/2/4 351/2/4 361/2/4
f 351/3/4 359/3/4 361/3/4
f 359/2/4 360/2/4 362/2/4
f 361/3/4 359/3/4 362/3/4
f 357/3/4 358/3/4 363/3/4
f 358/2/4 361/2/4 364/2/4
f 363/3/4 358/3/4 364/3/4
f 361/2/4 362/2/4 364/2/4
f 362/2/4 360/2/4 365/2/4
f 364/2/4 362/2/4 365/2/4
f 363/4/4 364/4/4 366/4/4
f 364/4/4 365/4/4 366/4/4
f 366/4/4 365/4/4 367/4/4
f 367/4/4 365/4/4 368/4/4
f 345/8/4 353/8/4 369/8/4
f 353/8/4 354/8/4 369/8/4
f 354/8/4 355/8/4 369/8/4
f 369/8/4 355/8/4 370/8/4
f 355/7/4 356/7/4 371/7/4
f 370/8/4 355/8/4 371/8/4
f 371/7/4 356/7/4 372/7/4
f 366/3/4 367/3/4 373/3/4
f 367/2/4 368/2/4 374/2/4
f 373/3/4 367/3/4 374/3/4
f 374/2/4 368/2/4 375/2/4
f 375/2/4 368/2/4 376/2/4
f 345/8/4 369/8/4 377/8/4
f 369/7/4 370/7/4 378/7/4
f 377/8/4 369/8/4 378/8/4
f 370/6/4 371/6/4 379/6/4
f 378/7/4 370/7/4 379/7/4
f 371/5/4 372/5/4 380/5/4
f 379/6/4 371/6/4 380/6/4
f 380/5/4 372/5/4 381/5/4
f 373/2/4 374/2/4 382/2/4
f 374/2/4 375/2/4 382/2/4
f 382/2/4 375/2/4 383/2/4
f 386/8/5 385/8/5 384/8/5
f 387/8/5 385/8/5 386/8/5
f 388/8/5 386/8/5 384/8/5
f 389/8/5 386/8/5 388/8/5
f 390/8/5 385/8/5 387/8/5
f 391/8/5 385/8/5 390/8/5
f 392/7/5 389/7/5 388/7/5
f 393/7/5 389/7/5 392/7/5
f 394/7/5 391/7/5 390/7/5
f 395/7/5 391/7/5 394/7/5
f 396/8/5 393/8/5 392/8/5
f 397/8/5 395/8/5 394/8/5
f 398/8/5 396/8/5 392/8/5
f 398/8/5 397/8/5 396/8/5
f 399/8/5 395/8/5 397/8/5
f 399/8/5 397/8/5 398/8/5
f 402/1/5 401/1/5 400/1/5
f 403/1/5 401/1/5 402/1/5
f 406/1/5 405/1/5 404/1/5
f 407/1/5 405/1/5 406/1/5
f 412/8/5 409/8/5 408/8/5
f 413/8/5 409/8/5 412/8/5
f 414/8/5 411/8/5 410/8/5
f 415/8/5 411/8/5 414/8/5
f 418/7/5 417/7/5 416/7/5
f 419/7/5 417/7/5 418/7/5
f 424/7/5 421/7/5 420/7/5
f 425/7/5 421/7/5 424/7/5
f 426/7/5 423/7/5 422/7/5
f 427/7/5 423/7/5 426/7/5
f 432/2/5 429/2/5 428/2/5
f 433/4/5 430/4/5 429/4/5
f 433/2/5 429/2/5 432/2/5
f 434/2/5 431/2/5 430/2/5
f 434/4/5 430/4/5 433/4/5
f 435/2/5 431/2/5 434/2/5
f 442/2/5 437/2/5 436/2/5
f 443/3/5 438/3/5 437/3/5
f 443/2/5 437/2/5 442/2/5
f 444/4/5 439/4/5 438/4/5
f 444/3/5 438/3/5 443/3/5
f 445/3/5 440/3/5 439/3/5
f 445/4/5 439/4/5 444/4/5
f 446/2/5 441/2/5 440/2/5
f 446/3/5 440/3/5 445/3/5
f 447/2/5 441/2/5 446/2/5
f 452/2/5 449/2/5 448/2/5
f 453/2/5 449/2/5 452/2/5
f 454/2/5 451/2/5 450/2/5
f 455/2/5 451/2/5 454/2/5
f 458/2/5 457/2/5 456/2/5
f 459/2/5 457/2/5 458/2/5
f 460/2/5 457/2/5 459/2/5
f 461/2/5 457/2/5 460/2/5
f 462/1/6 463/1/6 466/1/6
f 464/1/6 465/1/6 467/1/6
f 466/1/6 463/1/6 468/1/6
f 468/1/6 463/1/6 469/1/6
f 464/1/6 467/1/6 470/1/6
f 470/1/6 467/1/6 471/1/6
f 472/1/6 473/1/6 474/1/6
f 474/1/6 473/1/6 475/1/6
f 476/5/6 477/5/6 480/5/6
f 477/7/6 478/7/6 481/7/6
f 480/5/6 477/5/6 481/5/6
f 478/5/6 479/5/6 482/5/6
f 481/7/6 478/7/6 482/7/6
f 482/5/6 479/5/6 483/5/6
f 484/5/6 485/5/6 488/5/6
f 485/7/6 486/7/6 489/7/6
f 488/5/6 485/5/6 489/5/6
f 486/5/6 487/5/6 490/5/6
f 489/7/6 486/7/6 490/7/6
f 490/5/6 487/5/6 491/5/6
f 492/4/6 493/4/6 495/4/6
f 493/4/6 494/4/6 495/4/6
f 495/4/6 494/4/6 496/4/6
f 497/4/6 498/4/6 499/4/6
f 499/4/6 498/4/6 500/4/6
f 500/4/6 498/4/6 501/4/6
f 501/4/6 498/4/6 502/4/6
f 503/4/6 504/4/6 505/4/6
f 505/4/6 504/4/6 506/4/6
f 507/3/6 508/3/6 511/3/6
f 511/3/6 508/3/6 512/3/6
f 509/2/6 510/2/6 513/2/6
f 513/2/6 510/2/6 514/2/6
f 515/2/6 516/2/6 520/2/6
f 520/2/6 516/2/6 521/2/6
f 521/2/6 516/2/6 522/2/6
f 517/2/6 518/2/6 523/2/6
f 523/2/6 518/2/6 524/2/6
f 524/2/6 518/2/6 525/2/6
f 519/2/6 520/2/6 527/2/6
f 520/2/6 521/2/6 527/2/6
f 525/2/6 526/2/6 530/2/6
f 524/2/6 525/2/6 530/2/6
f 527/2/6 528/2/6 531/2/6
f 519/2/6 527/2/6 531/2/6
f 531/2/6 528/2/6 532/2/6
f 532/2/6 528/2/6 533/2/6
f 529/2/6 530/2/6 536/2/6
f 530/2/6 526/2/6 537/2/6
f 536/2/6 530/2/6 537/2/6
f 537/2/6 526/2/6 538/2/6
f 532/2/6 533/2/6 539/2/6
f 533/2/6 534/2/6 539/2/6
f 534/4/6 535/4/6 540/4/6
f 539/2/6 534/2/6 540/2/6
f 535/2/6 536/2/6 541/2/6
f 540/4/6 535/4/6 541/4/6
f 536/2/6 537/2/6 541/2/6
f 541/2/6 537/2/6 542/2/6
f 543/2/6 544/2/6 546/2/6
f 546/2/6 544/2/6 547/2/6
f 545/2/6 546/2/6 549/2/6
f 546/1/6 547/1/6 550/1/6
f 549/2/6 546/2/6 550/2/6
f 547/2/6 548/2/6 551/2/6
f 550/1/6 547/1/6 551/1/6
f 551/2/6 548/2/6 552/2/6
f 550/1/6 551/1/6 553/1/6
f 553/1/6 551/1/6 554/1/6
